<?xml version="1.0" encoding="UTF-8" standalone="no"?>
<!-- Created with Inkscape (http://www.inkscape.org/) -->
<svg
   xmlns:ns0="http://www.iki.fi/pav/software/textext"
   xmlns:dc="http://purl.org/dc/elements/1.1/"
   xmlns:cc="http://creativecommons.org/ns#"
   xmlns:rdf="http://www.w3.org/1999/02/22-rdf-syntax-ns#"
   xmlns:svg="http://www.w3.org/2000/svg"
   xmlns="http://www.w3.org/2000/svg"
   xmlns:sodipodi="http://sodipodi.sourceforge.net/DTD/sodipodi-0.dtd"
   xmlns:inkscape="http://www.inkscape.org/namespaces/inkscape"
   width="385.93915"
   height="265.33951"
   id="svg2"
   sodipodi:version="0.32"
   inkscape:version="0.46"
   sodipodi:docname="barrier.svg"
   version="1.0"
   inkscape:output_extension="org.inkscape.output.svg.inkscape">
  <sodipodi:namedview
     id="base"
     pagecolor="#ffffff"
     bordercolor="#666666"
     borderopacity="1.0"
     gridtolerance="10000"
     guidetolerance="10"
     objecttolerance="10"
     inkscape:pageopacity="0.0"
     inkscape:pageshadow="2"
     inkscape:zoom="2.1298694"
     inkscape:cx="192.96958"
     inkscape:cy="132.66976"
     inkscape:document-units="px"
     inkscape:current-layer="layer1"
     showgrid="false"
     inkscape:window-width="1279"
     inkscape:window-height="947"
     inkscape:window-x="1"
     inkscape:window-y="49" />
  <defs
     id="defs4">
    <marker
       style="overflow:visible"
       id="Arrow1Lstart"
       refX="0"
       refY="0"
       orient="auto"
       inkscape:stockid="Arrow1Lstart">
      <path
         transform="matrix(0.8,0,0,0.8,10,0)"
         style="fill-rule:evenodd;stroke:#000000;stroke-width:1pt;marker-start:none"
         d="M 0,0 L 5,-5 L -12.5,0 L 5,5 L 0,0 z"
         id="path3410" />
    </marker>
    <marker
       style="overflow:visible"
       id="Arrow1Lend"
       refX="0"
       refY="0"
       orient="auto"
       inkscape:stockid="Arrow1Lend">
      <path
         transform="matrix(-0.8,0,0,-0.8,-10,0)"
         style="fill-rule:evenodd;stroke:#000000;stroke-width:1pt;marker-start:none"
         d="M 0,0 L 5,-5 L -12.5,0 L 5,5 L 0,0 z"
         id="path3413" />
    </marker>
    <inkscape:perspective
       sodipodi:type="inkscape:persp3d"
       inkscape:vp_x="0 : 526.18109 : 1"
       inkscape:vp_y="0 : 1000 : 0"
       inkscape:vp_z="744.09448 : 526.18109 : 1"
       inkscape:persp3d-origin="372.04724 : 350.78739 : 1"
       id="perspective10" />
  </defs>
  <metadata
     id="metadata7">
    <rdf:RDF>
      <cc:Work
         rdf:about="">
        <dc:format>image/svg+xml</dc:format>
        <dc:type
           rdf:resource="http://purl.org/dc/dcmitype/StillImage" />
      </cc:Work>
    </rdf:RDF>
  </metadata>
  <g
     inkscape:label="Layer 1"
     inkscape:groupmode="layer"
     id="layer1"
     transform="translate(-96.100701,-28.8379)">
    <path
       style="fill:none;fill-rule:evenodd;stroke:#000000;stroke-width:1px;stroke-linecap:butt;stroke-linejoin:miter;stroke-opacity:1"
       d="M 96.600701,251.74728 L 272.23834,251.74728 L 272.23834,51.227644 L 481.53986,51.227644"
       id="path2383"
       sodipodi:nodetypes="cccc" />
    <g
       style="font-style:normal;font-variant:normal;font-weight:normal;font-stretch:normal;letter-spacing:normal;word-spacing:normal;text-anchor:start;fill:none;fill-opacity:1;stroke:#000000;stroke-linecap:butt;stroke-linejoin:miter;stroke-miterlimit:10.43299961;stroke-dasharray:none;stroke-dashoffset:0;stroke-opacity:1"
       xml:space="preserve"
       id="content"
       transform="matrix(2,0,0,-2,-321.87561,1704.3174)"
       stroke-miterlimit="10.433"
       fill-rule="even-odd"
       font-style="normal"
       font-variant="normal"
       font-weight="normal"
       font-stretch="normal"
       font-size-adjust="none"
       letter-spacing="normal"
       word-spacing="normal"
       ns0:text="region I"
       ns0:preamble="">
<path
   style="fill:#000000;stroke-width:0"
   d="M 225.15,707.9 L 225.15,709.43 C 225.15,710.42 225.56,711.31 226.32,711.31 C 226.39,711.31 226.41,711.31 226.43,711.3 C 226.4,711.29 226.2,711.17 226.2,710.91 C 226.2,710.63 226.41,710.48 226.63,710.48 C 226.81,710.48 227.06,710.6 227.06,710.92 C 227.06,711.24 226.75,711.53 226.32,711.53 C 225.59,711.53 225.24,710.86 225.1,710.43 L 225.1,711.53 L 223.71,711.42 L 223.71,711.11 C 224.41,711.11 224.49,711.04 224.49,710.55 L 224.49,707.88 C 224.49,707.43 224.38,707.43 223.71,707.43 L 223.71,707.12 C 224.1,707.13 224.57,707.15 224.85,707.15 C 225.25,707.15 225.71,707.15 226.11,707.12 L 226.11,707.43 L 225.9,707.43 C 225.17,707.43 225.15,707.54 225.15,707.9 z"
   id="path2393" />
<path
   style="fill:#000000;stroke-width:0"
   d="M 231.22,709.42 L 231.23,709.42 L 231.24,709.42 L 231.25,709.42 L 231.26,709.42 L 231.27,709.42 L 231.27,709.42 L 231.28,709.42 L 231.29,709.42 L 231.3,709.42 L 231.31,709.42 L 231.31,709.43 L 231.32,709.43 L 231.34,709.43 L 231.35,709.43 L 231.36,709.43 L 231.37,709.43 L 231.38,709.43 L 231.39,709.44 L 231.4,709.44 L 231.41,709.44 L 231.42,709.45 L 231.42,709.45 L 231.43,709.46 L 231.44,709.46 L 231.44,709.47 L 231.45,709.48 L 231.45,709.48 L 231.45,709.49 L 231.45,709.5 L 231.46,709.5 L 231.46,709.51 L 231.46,709.51 L 231.46,709.52 L 231.46,709.52 L 231.46,709.53 L 231.46,709.54 L 231.46,709.54 L 231.46,709.55 L 231.46,709.56 L 231.47,709.56 L 231.47,709.57 L 231.47,709.58 L 231.47,709.59 L 231.47,709.6 L 231.47,709.6 L 231.47,709.61 L 231.47,709.62 L 231.47,709.63 C 231.47,710.62 230.93,711.59 229.68,711.59 C 228.53,711.59 227.61,710.56 227.61,709.31 C 227.61,707.98 228.66,707.01 229.8,707.01 C 231.02,707.01 231.47,708.12 231.47,708.31 C 231.47,708.41 231.39,708.43 231.34,708.43 C 231.25,708.43 231.23,708.37 231.21,708.29 C 230.86,707.26 229.96,707.26 229.86,707.26 C 229.37,707.26 228.97,707.56 228.74,707.93 C 228.44,708.41 228.44,709.07 228.44,709.42 L 228.45,709.63 C 228.51,711.12 229.35,711.37 229.68,711.37 C 230.71,711.37 230.81,710.02 230.81,709.63 L 228.45,709.63 L 228.44,709.42 L 231.22,709.42 z"
   id="path2395" />
<path
   style="fill:#000000;stroke-width:0"
   d="M 232.99,708.92 L 233.03,708.89 L 233.06,708.87 L 233.1,708.84 L 233.14,708.82 L 233.17,708.8 L 233.21,708.78 L 233.25,708.77 L 233.28,708.75 L 233.32,708.73 L 233.35,708.72 L 233.39,708.71 L 233.42,708.7 L 233.46,708.68 L 233.49,708.67 L 233.53,708.67 L 233.56,708.66 L 233.59,708.65 L 233.62,708.64 L 233.65,708.64 L 233.68,708.63 L 233.71,708.63 L 233.74,708.62 L 233.77,708.62 L 233.8,708.62 L 233.82,708.61 L 233.85,708.61 L 233.87,708.61 L 233.9,708.61 L 233.92,708.61 L 233.94,708.61 L 233.96,708.61 L 233.98,708.61 L 233.98,708.84 C 233.11,708.84 233.11,709.83 233.11,710.06 C 233.11,710.33 233.12,710.65 233.27,710.9 C 233.35,711.02 233.58,711.3 233.98,711.3 C 234.84,711.3 234.84,710.3 234.84,710.07 C 234.84,709.8 234.83,709.48 234.68,709.23 C 234.6,709.11 234.38,708.84 233.98,708.84 L 233.98,708.84 L 233.98,708.61 C 234.9,708.61 235.59,709.29 235.59,710.06 C 235.59,710.43 235.43,710.8 235.18,711.03 C 235.54,711.37 235.9,711.42 236.08,711.42 C 236.1,711.42 236.15,711.42 236.18,711.41 C 236.07,711.37 236.02,711.26 236.02,711.14 C 236.02,710.97 236.15,710.85 236.31,710.85 C 236.41,710.85 236.6,710.92 236.6,711.15 C 236.6,711.32 236.48,711.64 236.09,711.64 C 235.89,711.64 235.45,711.58 235.03,711.17 C 234.61,711.5 234.2,711.53 233.98,711.53 C 233.05,711.53 232.36,710.84 232.36,710.07 C 232.36,709.63 232.58,709.26 232.83,709.04 C 232.7,708.9 232.52,708.57 232.52,708.22 C 232.52,707.91 232.65,707.53 232.96,707.33 C 232.36,707.16 232.04,706.73 232.04,706.34 C 232.04,705.62 233.03,705.07 234.25,705.07 L 234.26,705.3 C 233.25,705.3 232.56,705.81 232.56,706.34 C 232.56,706.79 232.94,707.16 233.38,707.19 L 233.97,707.19 C 234.82,707.19 235.94,707.19 235.94,706.34 C 235.94,705.8 235.23,705.3 234.26,705.3 L 234.26,705.3 L 234.25,705.07 C 235.42,705.07 236.46,705.58 236.46,706.35 C 236.46,706.7 236.32,707.21 235.81,707.49 C 235.28,707.77 234.7,707.77 234.1,707.77 C 233.85,707.77 233.42,707.77 233.35,707.78 C 233.03,707.82 232.82,708.13 232.82,708.45 C 232.82,708.49 232.82,708.72 232.99,708.92 z"
   id="path2397" />
<path
   style="fill:#000000;stroke-width:0"
   d="M 238.51,711.53 L 237.11,711.42 L 237.11,711.11 C 237.76,711.11 237.85,711.05 237.85,710.56 L 237.85,707.88 C 237.85,707.43 237.74,707.43 237.07,707.43 L 237.07,707.12 C 237.39,707.13 237.93,707.15 238.17,707.15 C 238.52,707.15 238.87,707.13 239.21,707.12 L 239.21,707.43 C 238.55,707.43 238.51,707.48 238.51,707.87 L 238.51,711.53 z"
   id="path2399" />
<path
   style="fill:#000000;stroke-width:0"
   d="M 238.55,713.26 L 238.55,713.29 L 238.55,713.32 L 238.54,713.35 L 238.54,713.37 L 238.53,713.4 L 238.52,713.43 L 238.51,713.45 L 238.5,713.48 L 238.49,713.5 L 238.48,713.52 L 238.47,713.54 L 238.45,713.57 L 238.44,713.59 L 238.42,713.61 L 238.41,713.62 L 238.39,713.64 L 238.37,713.66 L 238.35,713.68 L 238.33,713.69 L 238.31,713.7 L 238.29,713.72 L 238.27,713.73 L 238.24,713.74 L 238.22,713.75 L 238.2,713.76 L 238.17,713.77 L 238.15,713.77 L 238.12,713.78 L 238.1,713.78 L 238.07,713.78 L 238.05,713.79 L 238.02,713.79 C 237.71,713.79 237.49,713.52 237.49,713.26 C 237.49,712.99 237.71,712.73 238.02,712.73 C 238.3,712.73 238.55,712.94 238.55,713.26 z"
   id="path2401" />
<path
   style="fill:#000000;stroke-width:0"
   d="M 244.21,709.26 L 244.2,709.37 L 244.19,709.49 L 244.18,709.61 L 244.16,709.72 L 244.14,709.83 L 244.11,709.94 L 244.07,710.05 L 244.03,710.16 L 243.99,710.26 L 243.94,710.36 L 243.88,710.46 L 243.83,710.55 L 243.76,710.64 L 243.7,710.73 L 243.63,710.82 L 243.56,710.9 L 243.48,710.98 L 243.4,711.05 L 243.32,711.12 L 243.23,711.18 L 243.14,711.25 L 243.05,711.3 L 242.95,711.35 L 242.86,711.4 L 242.76,711.44 L 242.65,711.48 L 242.55,711.51 L 242.44,711.54 L 242.34,711.56 L 242.23,711.57 L 242.12,711.58 L 242,711.59 L 241.99,711.37 C 242.43,711.37 242.86,711.15 243.12,710.72 C 243.38,710.29 243.38,709.71 243.38,709.33 C 243.38,708.98 243.38,708.44 243.16,708 C 242.94,707.55 242.5,707.26 242,707.26 L 242,707.26 C 241.57,707.26 241.14,707.47 240.87,707.93 C 240.62,708.37 240.62,708.98 240.62,709.33 C 240.62,709.72 240.62,710.26 240.86,710.7 C 241.13,711.16 241.6,711.37 241.99,711.37 L 242,711.59 C 240.76,711.59 239.79,710.5 239.79,709.26 C 239.79,707.97 240.83,707.01 241.99,707.01 C 243.2,707.01 244.21,707.99 244.21,709.26 z"
   id="path2403" />
<path
   style="fill:#000000;stroke-width:0"
   d="M 245.59,710.55 L 245.59,707.88 C 245.59,707.43 245.48,707.43 244.81,707.43 L 244.81,707.12 C 245.16,707.13 245.67,707.15 245.94,707.15 C 246.2,707.15 246.71,707.13 247.05,707.12 L 247.05,707.43 C 246.38,707.43 246.28,707.43 246.28,707.88 L 246.28,709.71 C 246.28,710.75 246.98,711.31 247.62,711.31 C 248.25,711.31 248.36,710.77 248.36,710.2 L 248.36,707.88 C 248.36,707.43 248.25,707.43 247.58,707.43 L 247.58,707.12 C 247.93,707.13 248.44,707.15 248.71,707.15 C 248.97,707.15 249.48,707.13 249.82,707.12 L 249.82,707.43 C 249.3,707.43 249.05,707.43 249.04,707.73 L 249.04,709.63 C 249.04,710.49 249.04,710.8 248.74,711.16 C 248.6,711.33 248.27,711.53 247.69,711.53 C 246.96,711.53 246.49,711.1 246.22,710.48 L 246.22,711.53 L 244.81,711.42 L 244.81,711.11 C 245.51,711.11 245.59,711.04 245.59,710.55 z"
   id="path2405" />
<path
   style="fill:#000000;stroke-width:0"
   d="M 255.58,713.15 L 255.58,713.18 L 255.58,713.21 L 255.59,713.24 L 255.59,713.27 L 255.59,713.3 L 255.59,713.33 L 255.6,713.35 L 255.6,713.37 L 255.61,713.4 L 255.61,713.42 L 255.62,713.44 L 255.63,713.46 L 255.65,713.47 L 255.66,713.49 L 255.68,713.5 L 255.7,713.52 L 255.72,713.53 L 255.74,713.54 L 255.75,713.55 L 255.77,713.55 L 255.78,713.56 L 255.8,713.56 L 255.81,713.57 L 255.83,713.57 L 255.85,713.58 L 255.86,713.58 L 255.88,713.59 L 255.9,713.59 L 255.92,713.59 L 255.94,713.6 L 255.96,713.6 L 255.99,713.6 L 256.01,713.6 L 256.03,713.61 L 256.06,713.61 L 256.08,713.61 L 256.11,713.61 L 256.14,713.61 L 256.17,713.61 L 256.2,713.61 L 256.23,713.62 L 256.26,713.62 L 256.3,713.62 L 256.33,713.62 L 256.36,713.62 L 256.4,713.62 L 256.66,713.62 L 256.66,713.93 C 256.31,713.9 255.52,713.9 255.15,713.9 C 254.76,713.9 253.97,713.9 253.62,713.93 L 253.62,713.62 L 253.88,713.62 C 254.67,713.62 254.7,713.51 254.7,713.15 L 254.7,707.9 C 254.7,707.54 254.67,707.43 253.88,707.43 L 253.62,707.43 L 253.62,707.12 C 253.97,707.15 254.76,707.15 255.14,707.15 C 255.52,707.15 256.31,707.15 256.66,707.12 L 256.66,707.43 L 256.4,707.43 C 255.61,707.43 255.58,707.54 255.58,707.9 L 255.58,713.15 z"
   id="path2407" />
</g>    <path
       sodipodi:nodetypes="cc"
       id="path2423"
       d="M 100.99164,185.88317 L 481.53986,185.88317"
       style="fill:none;fill-rule:evenodd;stroke:#000000;stroke-width:1;stroke-linecap:butt;stroke-linejoin:miter;stroke-miterlimit:4;stroke-dasharray:6, 6;stroke-dashoffset:0;stroke-opacity:1" />
    <g
       style="font-style:normal;font-variant:normal;font-weight:normal;font-stretch:normal;letter-spacing:normal;word-spacing:normal;text-anchor:start;fill:none;fill-opacity:1;stroke:#000000;stroke-linecap:butt;stroke-linejoin:miter;stroke-miterlimit:10.43299961;stroke-dasharray:none;stroke-dashoffset:0;stroke-opacity:1"
       xml:space="preserve"
       id="g3244"
       transform="matrix(2,0,0,-2,-300.472,1624.41)"
       stroke-miterlimit="10.433"
       fill-rule="even-odd"
       font-style="normal"
       font-variant="normal"
       font-weight="normal"
       font-stretch="normal"
       font-size-adjust="none"
       letter-spacing="normal"
       word-spacing="normal"
       ns0:text="$E$"
       ns0:preamble="">
<path
   style="fill:#000000;stroke-width:0"
   d="M 230.49,709.44 L 230.49,709.45 L 230.49,709.45 L 230.49,709.46 L 230.5,709.47 L 230.5,709.48 L 230.51,709.49 L 230.51,709.5 L 230.51,709.51 L 230.52,709.52 L 230.52,709.53 L 230.52,709.53 L 230.52,709.54 L 230.53,709.54 L 230.53,709.55 L 230.53,709.55 L 230.53,709.56 L 230.53,709.56 L 230.53,709.56 L 230.53,709.57 L 230.53,709.57 L 230.53,709.57 L 230.54,709.58 L 230.54,709.58 L 230.54,709.58 L 230.54,709.58 C 230.54,709.59 230.54,709.69 230.42,709.69 C 230.33,709.69 230.31,709.63 230.29,709.57 C 229.64,708.1 229.27,707.43 227.57,707.43 L 226.11,707.43 C 225.97,707.43 225.95,707.43 225.89,707.44 C 225.79,707.45 225.76,707.46 225.76,707.54 C 225.76,707.57 225.76,707.59 225.81,707.77 L 226.49,710.49 L 227.48,710.49 C 228.32,710.49 228.32,710.28 228.32,710.03 C 228.32,709.96 228.32,709.84 228.25,709.54 C 228.23,709.49 228.23,709.46 228.23,709.43 C 228.23,709.38 228.26,709.32 228.35,709.32 C 228.43,709.32 228.46,709.37 228.5,709.52 L 229.07,711.85 C 229.07,711.91 229.02,711.96 228.95,711.96 C 228.86,711.96 228.84,711.91 228.81,711.78 C 228.6,711.03 228.42,710.8 227.51,710.8 L 226.57,710.8 L 227.17,713.2 C 227.26,713.55 227.27,713.59 227.71,713.59 L 229.11,713.59 C 230.33,713.59 230.63,713.3 230.63,712.48 C 230.63,712.24 230.63,712.22 230.59,711.95 C 230.59,711.9 230.58,711.83 230.58,711.78 C 230.58,711.72 230.61,711.66 230.7,711.66 C 230.8,711.66 230.82,711.72 230.84,711.91 L 231.03,713.63 C 231.06,713.9 231.01,713.9 230.76,713.9 L 225.73,713.9 C 225.54,713.9 225.43,713.9 225.43,713.7 C 225.43,713.59 225.52,713.59 225.71,713.59 C 226.08,713.59 226.36,713.59 226.36,713.41 C 226.36,713.37 226.36,713.35 226.31,713.17 L 225,707.9 C 224.9,707.51 224.88,707.43 224.09,707.43 C 223.92,707.43 223.81,707.43 223.81,707.24 C 223.81,707.12 223.9,707.12 224.09,707.12 L 229.26,707.12 C 229.49,707.12 229.5,707.13 229.57,707.29 L 230.49,709.44 z"
   id="path3246" />
</g>    <path
       sodipodi:nodetypes="cc"
       id="path3265"
       d="M 272.901,251.74728 L 448.53864,251.74728"
       style="fill:none;fill-rule:evenodd;stroke:#000000;stroke-width:1;stroke-linecap:butt;stroke-linejoin:miter;stroke-miterlimit:4;stroke-dasharray:6, 6;stroke-dashoffset:0;stroke-opacity:1" />
    <g
       ns0:preamble=""
       ns0:text="$z$"
       word-spacing="normal"
       letter-spacing="normal"
       font-size-adjust="none"
       font-stretch="normal"
       font-weight="normal"
       font-variant="normal"
       font-style="normal"
       fill-rule="even-odd"
       stroke-miterlimit="10.433"
       transform="matrix(2,0,0,-2,-64.683008,1679.9063)"
       id="g3291"
       xml:space="preserve"
       style="font-style:normal;font-variant:normal;font-weight:normal;font-stretch:normal;letter-spacing:normal;word-spacing:normal;text-anchor:start;fill:none;fill-opacity:1;stroke:#000000;stroke-linecap:butt;stroke-linejoin:miter;stroke-miterlimit:10.43299961;stroke-dasharray:none;stroke-dashoffset:0;stroke-opacity:1">
<path
   id="path3293"
   d="M 224.76,707.95 L 224.81,708 L 224.86,708.05 L 224.9,708.1 L 224.95,708.15 L 224.99,708.2 L 225.04,708.24 L 225.08,708.29 L 225.12,708.33 L 225.16,708.37 L 225.2,708.41 L 225.24,708.44 L 225.27,708.48 L 225.31,708.52 L 225.35,708.55 L 225.42,708.62 L 225.49,708.68 L 225.55,708.74 L 225.62,708.8 L 225.68,708.86 L 225.81,708.97 L 225.88,709.03 L 225.94,709.09 C 225.94,709.09 226.56,709.62 226.92,709.98 C 227.87,710.91 228.09,711.39 228.09,711.43 C 228.09,711.53 227.99,711.53 227.98,711.53 C 227.91,711.53 227.88,711.51 227.83,711.42 C 227.53,710.94 227.32,710.78 227.08,710.78 C 226.84,710.78 226.72,710.93 226.57,711.1 C 226.38,711.33 226.21,711.53 225.88,711.53 C 225.14,711.53 224.68,710.6 224.68,710.39 C 224.68,710.34 224.71,710.28 224.8,710.28 C 224.89,710.28 224.91,710.33 224.93,710.39 C 225.12,710.85 225.69,710.86 225.77,710.86 C 225.98,710.86 226.17,710.79 226.4,710.71 C 226.8,710.56 226.91,710.56 227.17,710.56 C 226.81,710.13 225.97,709.41 225.78,709.26 C 225.29,708.81 225.28,708.8 224.89,708.42 C 224.21,707.75 223.86,707.18 223.86,707.11 C 223.86,707.01 223.96,707.01 223.98,707.01 C 224.06,707.01 224.08,707.03 224.14,707.14 C 224.37,707.49 224.67,707.76 224.99,707.76 C 225.22,707.76 225.32,707.67 225.56,707.38 C 225.73,707.17 225.91,707.01 226.2,707.01 C 227.19,707.01 227.77,708.28 227.77,708.55 C 227.77,708.6 227.73,708.65 227.65,708.65 C 227.56,708.65 227.54,708.59 227.51,708.52 C 227.28,707.87 226.64,707.68 226.31,707.68 C 226.11,707.68 225.93,707.74 225.72,707.81 C 225.38,707.94 225.24,707.98 225.03,707.98 C 225.01,707.98 224.85,707.98 224.76,707.95 z"
   style="fill:#000000;stroke-width:0" />
</g>    <g
       style="font-style:normal;font-variant:normal;font-weight:normal;font-stretch:normal;letter-spacing:normal;word-spacing:normal;text-anchor:start;fill:none;fill-opacity:1;stroke:#000000;stroke-linecap:butt;stroke-linejoin:miter;stroke-miterlimit:10.43299961;stroke-dasharray:none;stroke-dashoffset:0;stroke-opacity:1"
       xml:space="preserve"
       id="g3355"
       transform="matrix(2,0,0,-2,-113.21134,1704.3174)"
       stroke-miterlimit="10.433"
       fill-rule="even-odd"
       font-style="normal"
       font-variant="normal"
       font-weight="normal"
       font-stretch="normal"
       font-size-adjust="none"
       letter-spacing="normal"
       word-spacing="normal"
       ns0:text="region II"
       ns0:preamble="">
<path
   style="fill:#000000;stroke-width:0"
   d="M 225.15,707.9 L 225.15,709.43 C 225.15,710.42 225.56,711.31 226.32,711.31 C 226.39,711.31 226.41,711.31 226.43,711.3 C 226.4,711.29 226.2,711.17 226.2,710.91 C 226.2,710.63 226.41,710.48 226.63,710.48 C 226.81,710.48 227.06,710.6 227.06,710.92 C 227.06,711.24 226.75,711.53 226.32,711.53 C 225.59,711.53 225.24,710.86 225.1,710.43 L 225.1,711.53 L 223.71,711.42 L 223.71,711.11 C 224.41,711.11 224.49,711.04 224.49,710.55 L 224.49,707.88 C 224.49,707.43 224.38,707.43 223.71,707.43 L 223.71,707.12 C 224.1,707.13 224.57,707.15 224.85,707.15 C 225.25,707.15 225.71,707.15 226.11,707.12 L 226.11,707.43 L 225.9,707.43 C 225.17,707.43 225.15,707.54 225.15,707.9 z"
   id="path3357" />
<path
   style="fill:#000000;stroke-width:0"
   d="M 231.22,709.42 L 231.23,709.42 L 231.24,709.42 L 231.25,709.42 L 231.26,709.42 L 231.27,709.42 L 231.27,709.42 L 231.28,709.42 L 231.29,709.42 L 231.3,709.42 L 231.31,709.42 L 231.31,709.43 L 231.32,709.43 L 231.34,709.43 L 231.35,709.43 L 231.36,709.43 L 231.37,709.43 L 231.38,709.43 L 231.39,709.44 L 231.4,709.44 L 231.41,709.44 L 231.42,709.45 L 231.42,709.45 L 231.43,709.46 L 231.44,709.46 L 231.44,709.47 L 231.45,709.48 L 231.45,709.48 L 231.45,709.49 L 231.45,709.5 L 231.46,709.5 L 231.46,709.51 L 231.46,709.51 L 231.46,709.52 L 231.46,709.52 L 231.46,709.53 L 231.46,709.54 L 231.46,709.54 L 231.46,709.55 L 231.46,709.56 L 231.47,709.56 L 231.47,709.57 L 231.47,709.58 L 231.47,709.59 L 231.47,709.6 L 231.47,709.6 L 231.47,709.61 L 231.47,709.62 L 231.47,709.63 C 231.47,710.62 230.93,711.59 229.68,711.59 C 228.53,711.59 227.61,710.56 227.61,709.31 C 227.61,707.98 228.66,707.01 229.8,707.01 C 231.02,707.01 231.47,708.12 231.47,708.31 C 231.47,708.41 231.39,708.43 231.34,708.43 C 231.25,708.43 231.23,708.37 231.21,708.29 C 230.86,707.26 229.96,707.26 229.86,707.26 C 229.37,707.26 228.97,707.56 228.74,707.93 C 228.44,708.41 228.44,709.07 228.44,709.42 L 228.45,709.63 C 228.51,711.12 229.35,711.37 229.68,711.37 C 230.71,711.37 230.81,710.02 230.81,709.63 L 228.45,709.63 L 228.44,709.42 L 231.22,709.42 z"
   id="path3359" />
<path
   style="fill:#000000;stroke-width:0"
   d="M 232.99,708.92 L 233.03,708.89 L 233.06,708.87 L 233.1,708.84 L 233.14,708.82 L 233.17,708.8 L 233.21,708.78 L 233.25,708.77 L 233.28,708.75 L 233.32,708.73 L 233.35,708.72 L 233.39,708.71 L 233.42,708.7 L 233.46,708.68 L 233.49,708.67 L 233.53,708.67 L 233.56,708.66 L 233.59,708.65 L 233.62,708.64 L 233.65,708.64 L 233.68,708.63 L 233.71,708.63 L 233.74,708.62 L 233.77,708.62 L 233.8,708.62 L 233.82,708.61 L 233.85,708.61 L 233.87,708.61 L 233.9,708.61 L 233.92,708.61 L 233.94,708.61 L 233.96,708.61 L 233.98,708.61 L 233.98,708.84 C 233.11,708.84 233.11,709.83 233.11,710.06 C 233.11,710.33 233.12,710.65 233.27,710.9 C 233.35,711.02 233.58,711.3 233.98,711.3 C 234.84,711.3 234.84,710.3 234.84,710.07 C 234.84,709.8 234.83,709.48 234.68,709.23 C 234.6,709.11 234.38,708.84 233.98,708.84 L 233.98,708.84 L 233.98,708.61 C 234.9,708.61 235.59,709.29 235.59,710.06 C 235.59,710.43 235.43,710.8 235.18,711.03 C 235.54,711.37 235.9,711.42 236.08,711.42 C 236.1,711.42 236.15,711.42 236.18,711.41 C 236.07,711.37 236.02,711.26 236.02,711.14 C 236.02,710.97 236.15,710.85 236.31,710.85 C 236.41,710.85 236.6,710.92 236.6,711.15 C 236.6,711.32 236.48,711.64 236.09,711.64 C 235.89,711.64 235.45,711.58 235.03,711.17 C 234.61,711.5 234.2,711.53 233.98,711.53 C 233.05,711.53 232.36,710.84 232.36,710.07 C 232.36,709.63 232.58,709.26 232.83,709.04 C 232.7,708.9 232.52,708.57 232.52,708.22 C 232.52,707.91 232.65,707.53 232.96,707.33 C 232.36,707.16 232.04,706.73 232.04,706.34 C 232.04,705.62 233.03,705.07 234.25,705.07 L 234.26,705.3 C 233.25,705.3 232.56,705.81 232.56,706.34 C 232.56,706.79 232.94,707.16 233.38,707.19 L 233.97,707.19 C 234.82,707.19 235.94,707.19 235.94,706.34 C 235.94,705.8 235.23,705.3 234.26,705.3 L 234.26,705.3 L 234.25,705.07 C 235.42,705.07 236.46,705.58 236.46,706.35 C 236.46,706.7 236.32,707.21 235.81,707.49 C 235.28,707.77 234.7,707.77 234.1,707.77 C 233.85,707.77 233.42,707.77 233.35,707.78 C 233.03,707.82 232.82,708.13 232.82,708.45 C 232.82,708.49 232.82,708.72 232.99,708.92 z"
   id="path3361" />
<path
   style="fill:#000000;stroke-width:0"
   d="M 238.51,711.53 L 237.11,711.42 L 237.11,711.11 C 237.76,711.11 237.85,711.05 237.85,710.56 L 237.85,707.88 C 237.85,707.43 237.74,707.43 237.07,707.43 L 237.07,707.12 C 237.39,707.13 237.93,707.15 238.17,707.15 C 238.52,707.15 238.87,707.13 239.21,707.12 L 239.21,707.43 C 238.55,707.43 238.51,707.48 238.51,707.87 L 238.51,711.53 z"
   id="path3363" />
<path
   style="fill:#000000;stroke-width:0"
   d="M 238.55,713.26 L 238.55,713.29 L 238.55,713.32 L 238.54,713.35 L 238.54,713.37 L 238.53,713.4 L 238.52,713.43 L 238.51,713.45 L 238.5,713.48 L 238.49,713.5 L 238.48,713.52 L 238.47,713.54 L 238.45,713.57 L 238.44,713.59 L 238.42,713.61 L 238.41,713.62 L 238.39,713.64 L 238.37,713.66 L 238.35,713.68 L 238.33,713.69 L 238.31,713.7 L 238.29,713.72 L 238.27,713.73 L 238.24,713.74 L 238.22,713.75 L 238.2,713.76 L 238.17,713.77 L 238.15,713.77 L 238.12,713.78 L 238.1,713.78 L 238.07,713.78 L 238.05,713.79 L 238.02,713.79 C 237.71,713.79 237.49,713.52 237.49,713.26 C 237.49,712.99 237.71,712.73 238.02,712.73 C 238.3,712.73 238.55,712.94 238.55,713.26 z"
   id="path3365" />
<path
   style="fill:#000000;stroke-width:0"
   d="M 244.21,709.26 L 244.2,709.37 L 244.19,709.49 L 244.18,709.61 L 244.16,709.72 L 244.14,709.83 L 244.11,709.94 L 244.07,710.05 L 244.03,710.16 L 243.99,710.26 L 243.94,710.36 L 243.88,710.46 L 243.83,710.55 L 243.76,710.64 L 243.7,710.73 L 243.63,710.82 L 243.56,710.9 L 243.48,710.98 L 243.4,711.05 L 243.32,711.12 L 243.23,711.18 L 243.14,711.25 L 243.05,711.3 L 242.95,711.35 L 242.86,711.4 L 242.76,711.44 L 242.65,711.48 L 242.55,711.51 L 242.44,711.54 L 242.34,711.56 L 242.23,711.57 L 242.12,711.58 L 242,711.59 L 241.99,711.37 C 242.43,711.37 242.86,711.15 243.12,710.72 C 243.38,710.29 243.38,709.71 243.38,709.33 C 243.38,708.98 243.38,708.44 243.16,708 C 242.94,707.55 242.5,707.26 242,707.26 L 242,707.26 C 241.57,707.26 241.14,707.47 240.87,707.93 C 240.62,708.37 240.62,708.98 240.62,709.33 C 240.62,709.72 240.62,710.26 240.86,710.7 C 241.13,711.16 241.6,711.37 241.99,711.37 L 242,711.59 C 240.76,711.59 239.79,710.5 239.79,709.26 C 239.79,707.97 240.83,707.01 241.99,707.01 C 243.2,707.01 244.21,707.99 244.21,709.26 z"
   id="path3367" />
<path
   style="fill:#000000;stroke-width:0"
   d="M 245.59,710.55 L 245.59,707.88 C 245.59,707.43 245.48,707.43 244.81,707.43 L 244.81,707.12 C 245.16,707.13 245.67,707.15 245.94,707.15 C 246.2,707.15 246.71,707.13 247.05,707.12 L 247.05,707.43 C 246.38,707.43 246.28,707.43 246.28,707.88 L 246.28,709.71 C 246.28,710.75 246.98,711.31 247.62,711.31 C 248.25,711.31 248.36,710.77 248.36,710.2 L 248.36,707.88 C 248.36,707.43 248.25,707.43 247.58,707.43 L 247.58,707.12 C 247.93,707.13 248.44,707.15 248.71,707.15 C 248.97,707.15 249.48,707.13 249.82,707.12 L 249.82,707.43 C 249.3,707.43 249.05,707.43 249.04,707.73 L 249.04,709.63 C 249.04,710.49 249.04,710.8 248.74,711.16 C 248.6,711.33 248.27,711.53 247.69,711.53 C 246.96,711.53 246.49,711.1 246.22,710.48 L 246.22,711.53 L 244.81,711.42 L 244.81,711.11 C 245.51,711.11 245.59,711.04 245.59,710.55 z"
   id="path3369" />
<path
   style="fill:#000000;stroke-width:0"
   d="M 255.58,713.15 L 255.58,713.18 L 255.58,713.21 L 255.59,713.24 L 255.59,713.27 L 255.59,713.3 L 255.59,713.33 L 255.6,713.35 L 255.6,713.37 L 255.61,713.4 L 255.61,713.42 L 255.62,713.44 L 255.63,713.46 L 255.65,713.47 L 255.66,713.49 L 255.68,713.5 L 255.7,713.52 L 255.72,713.53 L 255.74,713.54 L 255.75,713.55 L 255.77,713.55 L 255.78,713.56 L 255.8,713.56 L 255.81,713.57 L 255.83,713.57 L 255.85,713.58 L 255.86,713.58 L 255.88,713.59 L 255.9,713.59 L 255.92,713.59 L 255.94,713.6 L 255.96,713.6 L 255.99,713.6 L 256.01,713.6 L 256.03,713.61 L 256.06,713.61 L 256.08,713.61 L 256.11,713.61 L 256.14,713.61 L 256.17,713.61 L 256.2,713.61 L 256.23,713.62 L 256.26,713.62 L 256.3,713.62 L 256.33,713.62 L 256.36,713.62 L 256.4,713.62 L 256.66,713.62 L 256.66,713.93 C 256.31,713.9 255.52,713.9 255.15,713.9 C 254.76,713.9 253.97,713.9 253.62,713.93 L 253.62,713.62 L 253.88,713.62 C 254.67,713.62 254.7,713.51 254.7,713.15 L 254.7,707.9 C 254.7,707.54 254.67,707.43 253.88,707.43 L 253.62,707.43 L 253.62,707.12 C 253.97,707.15 254.76,707.15 255.14,707.15 C 255.52,707.15 256.31,707.15 256.66,707.12 L 256.66,707.43 L 256.4,707.43 C 255.61,707.43 255.58,707.54 255.58,707.9 L 255.58,713.15 z"
   id="path3371" />
<path
   style="fill:#000000;stroke-width:0"
   d="M 259.46,713.15 L 259.46,713.18 L 259.46,713.21 L 259.46,713.24 L 259.46,713.27 L 259.47,713.3 L 259.47,713.33 L 259.47,713.35 L 259.48,713.37 L 259.49,713.4 L 259.49,713.42 L 259.5,713.44 L 259.51,713.46 L 259.53,713.47 L 259.54,713.49 L 259.56,713.5 L 259.58,713.52 L 259.6,713.53 L 259.62,713.54 L 259.63,713.55 L 259.65,713.55 L 259.66,713.56 L 259.67,713.56 L 259.69,713.57 L 259.71,713.57 L 259.72,713.58 L 259.74,713.58 L 259.76,713.59 L 259.78,713.59 L 259.8,713.59 L 259.82,713.6 L 259.84,713.6 L 259.86,713.6 L 259.89,713.6 L 259.91,713.61 L 259.94,713.61 L 259.96,713.61 L 259.99,713.61 L 260.02,713.61 L 260.05,713.61 L 260.08,713.61 L 260.11,713.62 L 260.14,713.62 L 260.17,713.62 L 260.21,713.62 L 260.24,713.62 L 260.28,713.62 L 260.54,713.62 L 260.54,713.93 C 260.19,713.9 259.4,713.9 259.02,713.9 C 258.64,713.9 257.85,713.9 257.5,713.93 L 257.5,713.62 L 257.76,713.62 C 258.55,713.62 258.58,713.51 258.58,713.15 L 258.58,707.9 C 258.58,707.54 258.55,707.43 257.76,707.43 L 257.5,707.43 L 257.5,707.12 C 257.85,707.15 258.64,707.15 259.01,707.15 C 259.4,707.15 260.19,707.15 260.54,707.12 L 260.54,707.43 L 260.28,707.43 C 259.49,707.43 259.46,707.54 259.46,707.9 L 259.46,713.15 z"
   id="path3373" />
</g>    <path
       id="path4704"
       d="M 404.71965,152.07224 L 404.71965,185.64237"
       style="fill:none;fill-rule:evenodd;stroke:#000000;stroke-width:1px;stroke-linecap:butt;stroke-linejoin:miter;marker-start:none;marker-end:url(#Arrow1Lend);stroke-opacity:1" />
    <path
       id="path3405"
       d="M 404.71965,51.361833 L 404.71965,84.931967"
       style="fill:none;fill-rule:evenodd;stroke:#000000;stroke-width:1px;stroke-linecap:butt;stroke-linejoin:miter;marker-start:url(#Arrow1Lstart);stroke-opacity:1" />
    <g
       ns0:preamble=""
       ns0:text="$eV-E$"
       word-spacing="normal"
       letter-spacing="normal"
       font-size-adjust="none"
       font-stretch="normal"
       font-weight="normal"
       font-variant="normal"
       font-style="normal"
       fill-rule="even-odd"
       stroke-miterlimit="10.433"
       transform="matrix(2,0,0,-2,-76.420816,1539.5221)"
       id="g7872"
       xml:space="preserve"
       style="font-style:normal;font-variant:normal;font-weight:normal;font-stretch:normal;letter-spacing:normal;word-spacing:normal;text-anchor:start;fill:none;fill-opacity:1;stroke:#000000;stroke-linecap:butt;stroke-linejoin:miter;stroke-miterlimit:10.43299961;stroke-dasharray:none;stroke-dashoffset:0;stroke-opacity:1">
<path
   id="path7874"
   d="M 225.3,709.42 L 225.32,709.42 L 225.36,709.42 L 225.39,709.42 L 225.42,709.43 L 225.46,709.43 L 225.5,709.43 L 225.54,709.43 L 225.59,709.43 L 225.63,709.43 L 225.68,709.44 L 225.72,709.44 L 225.77,709.44 L 225.82,709.45 L 225.87,709.45 L 225.98,709.46 L 226.09,709.47 L 226.19,709.49 L 226.3,709.51 L 226.41,709.53 L 226.52,709.55 L 226.57,709.57 L 226.62,709.58 L 226.67,709.6 L 226.72,709.62 L 226.77,709.63 L 226.82,709.65 C 227.52,709.95 227.57,710.54 227.57,710.68 C 227.57,711.12 227.19,711.53 226.5,711.53 L 226.5,711.31 C 226.97,711.31 227.24,711.02 227.24,710.68 C 227.24,709.64 225.64,709.64 225.24,709.64 L 224.83,709.64 C 225.22,711.16 226.24,711.31 226.5,711.31 L 226.5,711.53 C 225.4,711.53 223.89,710.56 223.89,708.82 C 223.89,707.8 224.48,707.01 225.46,707.01 C 226.88,707.01 227.72,708.07 227.72,708.19 C 227.72,708.25 227.66,708.32 227.6,708.32 C 227.55,708.32 227.53,708.3 227.47,708.22 C 226.68,707.23 225.59,707.23 225.48,707.23 C 224.7,707.23 224.61,708.07 224.61,708.39 C 224.61,708.51 224.62,708.82 224.77,709.42 L 225.3,709.42 z"
   style="fill:#000000;stroke-width:0" />
<path
   id="path7876"
   d="M 234.32,712.79 L 234.37,712.86 L 234.41,712.93 L 234.46,712.99 L 234.5,713.05 L 234.55,713.1 L 234.59,713.15 L 234.63,713.2 L 234.68,713.25 L 234.72,713.29 L 234.76,713.32 L 234.8,713.36 L 234.84,713.39 L 234.89,713.42 L 234.93,713.44 L 234.97,713.47 L 235.01,713.49 L 235.05,713.51 L 235.09,713.52 L 235.12,713.54 L 235.16,713.55 L 235.2,713.56 L 235.24,713.57 L 235.28,713.58 L 235.31,713.59 L 235.35,713.6 L 235.39,713.6 L 235.46,713.61 L 235.53,713.61 L 235.6,713.62 C 235.72,713.63 235.73,713.8 235.73,713.81 C 235.73,713.89 235.68,713.93 235.6,713.93 C 235.34,713.93 235.05,713.9 234.78,713.9 C 234.45,713.9 234.12,713.93 233.8,713.93 C 233.74,713.93 233.61,713.93 233.61,713.74 C 233.61,713.63 233.7,713.62 233.77,713.62 C 234.04,713.6 234.22,713.5 234.22,713.29 C 234.22,713.14 234.07,712.92 234.07,712.91 L 231.02,708.05 L 230.34,713.32 C 230.34,713.49 230.57,713.62 231.03,713.62 C 231.17,713.62 231.27,713.62 231.27,713.82 C 231.27,713.91 231.2,713.93 231.14,713.93 C 230.74,713.93 230.31,713.9 229.9,713.9 C 229.72,713.9 229.53,713.91 229.35,713.91 C 229.17,713.91 228.98,713.93 228.82,713.93 C 228.74,713.93 228.62,713.93 228.62,713.74 C 228.62,713.62 228.71,713.62 228.87,713.62 C 229.43,713.62 229.44,713.53 229.47,713.28 L 230.26,707.13 C 230.29,706.93 230.33,706.9 230.46,706.9 C 230.62,706.9 230.66,706.95 230.74,707.08 L 234.32,712.79 z"
   style="fill:#000000;stroke-width:0" />
<path
   id="path7878"
   d="M 244.9,709.41 L 244.91,709.41 L 244.92,709.41 L 244.95,709.41 L 244.98,709.42 L 244.99,709.42 L 245.01,709.42 L 245.02,709.42 L 245.04,709.42 L 245.05,709.42 L 245.06,709.42 L 245.08,709.43 L 245.09,709.43 L 245.1,709.43 L 245.11,709.44 L 245.13,709.44 L 245.14,709.45 L 245.15,709.46 L 245.16,709.46 L 245.17,709.47 L 245.18,709.48 L 245.19,709.49 L 245.19,709.49 L 245.2,709.5 L 245.2,709.5 L 245.2,709.51 L 245.21,709.51 L 245.21,709.52 L 245.21,709.53 L 245.21,709.53 L 245.22,709.54 L 245.22,709.55 L 245.22,709.55 L 245.22,709.56 L 245.22,709.57 L 245.22,709.58 L 245.23,709.59 L 245.23,709.59 L 245.23,709.6 L 245.23,709.61 C 245.23,709.81 245.04,709.81 244.9,709.81 L 239.47,709.81 C 239.33,709.81 239.14,709.81 239.14,709.61 C 239.14,709.41 239.33,709.41 239.47,709.41 L 244.9,709.41 z"
   style="fill:#000000;stroke-width:0" />
<path
   id="path7880"
   d="M 255.33,709.44 L 255.33,709.45 L 255.33,709.45 L 255.33,709.46 L 255.34,709.47 L 255.34,709.48 L 255.35,709.49 L 255.35,709.5 L 255.35,709.51 L 255.36,709.52 L 255.36,709.53 L 255.36,709.53 L 255.36,709.54 L 255.37,709.54 L 255.37,709.55 L 255.37,709.55 L 255.37,709.56 L 255.37,709.56 L 255.37,709.56 L 255.37,709.57 L 255.37,709.57 L 255.37,709.57 L 255.38,709.58 L 255.38,709.58 L 255.38,709.58 L 255.38,709.58 C 255.38,709.59 255.38,709.69 255.26,709.69 C 255.17,709.69 255.15,709.63 255.13,709.57 C 254.48,708.1 254.11,707.43 252.41,707.43 L 250.95,707.43 C 250.81,707.43 250.79,707.43 250.73,707.44 C 250.63,707.45 250.6,707.46 250.6,707.54 C 250.6,707.57 250.6,707.59 250.65,707.77 L 251.33,710.49 L 252.32,710.49 C 253.16,710.49 253.16,710.28 253.16,710.03 C 253.16,709.96 253.16,709.84 253.09,709.54 C 253.07,709.49 253.07,709.46 253.07,709.43 C 253.07,709.38 253.1,709.32 253.19,709.32 C 253.27,709.32 253.3,709.37 253.34,709.52 L 253.91,711.85 C 253.91,711.91 253.86,711.96 253.79,711.96 C 253.7,711.96 253.68,711.91 253.65,711.78 C 253.44,711.03 253.26,710.8 252.35,710.8 L 251.41,710.8 L 252.01,713.2 C 252.1,713.55 252.11,713.59 252.55,713.59 L 253.95,713.59 C 255.17,713.59 255.47,713.3 255.47,712.48 C 255.47,712.24 255.47,712.22 255.43,711.95 C 255.43,711.9 255.42,711.83 255.42,711.78 C 255.42,711.72 255.45,711.66 255.54,711.66 C 255.65,711.66 255.65,711.72 255.68,711.91 L 255.87,713.63 C 255.9,713.9 255.85,713.9 255.6,713.9 L 250.57,713.9 C 250.38,713.9 250.27,713.9 250.27,713.7 C 250.27,713.59 250.37,713.59 250.55,713.59 C 250.92,713.59 251.2,713.59 251.2,713.41 C 251.2,713.37 251.2,713.35 251.15,713.17 L 249.84,707.9 C 249.74,707.51 249.72,707.43 248.93,707.43 C 248.76,707.43 248.65,707.43 248.65,707.24 C 248.65,707.12 248.74,707.12 248.93,707.12 L 254.1,707.12 C 254.33,707.12 254.34,707.13 254.41,707.29 L 255.33,709.44 z"
   style="fill:#000000;stroke-width:0" />
</g>    <g
       xml:space="preserve"
       id="g7976"
       transform="matrix(2,0,0,-2,-98.993255,1456.6979)"
       stroke-miterlimit="10.433"
       fill-rule="even-odd"
       font-style="normal"
       font-variant="normal"
       font-weight="normal"
       font-stretch="normal"
       font-size-adjust="none"
       letter-spacing="normal"
       word-spacing="normal"
       ns0:text="$eV$"
       ns0:preamble=""
       style="font-style:normal;font-variant:normal;font-weight:normal;font-stretch:normal;letter-spacing:normal;word-spacing:normal;text-anchor:start;fill:none;fill-opacity:1;stroke:#000000;stroke-linecap:butt;stroke-linejoin:miter;stroke-miterlimit:10.43299961;stroke-dasharray:none;stroke-dashoffset:0;stroke-opacity:1">
<path
   d="M 225.3,709.42 L 225.32,709.42 L 225.36,709.42 L 225.39,709.42 L 225.42,709.43 L 225.46,709.43 L 225.5,709.43 L 225.54,709.43 L 225.59,709.43 L 225.63,709.43 L 225.68,709.44 L 225.72,709.44 L 225.77,709.44 L 225.82,709.45 L 225.87,709.45 L 225.98,709.46 L 226.09,709.47 L 226.19,709.49 L 226.3,709.51 L 226.41,709.53 L 226.52,709.55 L 226.57,709.57 L 226.62,709.58 L 226.67,709.6 L 226.72,709.62 L 226.77,709.63 L 226.82,709.65 C 227.52,709.95 227.57,710.54 227.57,710.68 C 227.57,711.12 227.19,711.53 226.5,711.53 L 226.5,711.31 C 226.97,711.31 227.24,711.02 227.24,710.68 C 227.24,709.64 225.64,709.64 225.24,709.64 L 224.83,709.64 C 225.22,711.16 226.24,711.31 226.5,711.31 L 226.5,711.53 C 225.4,711.53 223.89,710.56 223.89,708.82 C 223.89,707.8 224.48,707.01 225.46,707.01 C 226.88,707.01 227.72,708.07 227.72,708.19 C 227.72,708.25 227.66,708.32 227.6,708.32 C 227.55,708.32 227.53,708.3 227.47,708.22 C 226.68,707.23 225.59,707.23 225.48,707.23 C 224.7,707.23 224.61,708.07 224.61,708.39 C 224.61,708.51 224.62,708.82 224.77,709.42 L 225.3,709.42 z"
   id="path7978"
   style="fill:#000000;stroke-width:0" />
<path
   d="M 234.32,712.79 L 234.37,712.86 L 234.41,712.93 L 234.46,712.99 L 234.5,713.05 L 234.55,713.1 L 234.59,713.15 L 234.63,713.2 L 234.68,713.25 L 234.72,713.29 L 234.76,713.32 L 234.8,713.36 L 234.84,713.39 L 234.89,713.42 L 234.93,713.44 L 234.97,713.47 L 235.01,713.49 L 235.05,713.51 L 235.09,713.52 L 235.12,713.54 L 235.16,713.55 L 235.2,713.56 L 235.24,713.57 L 235.28,713.58 L 235.31,713.59 L 235.35,713.6 L 235.39,713.6 L 235.46,713.61 L 235.53,713.61 L 235.6,713.62 C 235.72,713.63 235.73,713.8 235.73,713.81 C 235.73,713.89 235.68,713.93 235.6,713.93 C 235.34,713.93 235.05,713.9 234.78,713.9 C 234.45,713.9 234.12,713.93 233.8,713.93 C 233.74,713.93 233.61,713.93 233.61,713.74 C 233.61,713.63 233.7,713.62 233.77,713.62 C 234.04,713.6 234.22,713.5 234.22,713.29 C 234.22,713.14 234.07,712.92 234.07,712.91 L 231.02,708.05 L 230.34,713.32 C 230.34,713.49 230.57,713.62 231.03,713.62 C 231.17,713.62 231.27,713.62 231.27,713.82 C 231.27,713.91 231.2,713.93 231.14,713.93 C 230.74,713.93 230.31,713.9 229.9,713.9 C 229.72,713.9 229.53,713.91 229.35,713.91 C 229.17,713.91 228.98,713.93 228.82,713.93 C 228.74,713.93 228.62,713.93 228.62,713.74 C 228.62,713.62 228.71,713.62 228.87,713.62 C 229.43,713.62 229.44,713.53 229.47,713.28 L 230.26,707.13 C 230.29,706.93 230.33,706.9 230.46,706.9 C 230.62,706.9 230.66,706.95 230.74,707.08 L 234.32,712.79 z"
   id="path7980"
   style="fill:#000000;stroke-width:0" />
</g>    <g
       ns0:preamble=""
       ns0:text="$\\pi^+$"
       word-spacing="normal"
       letter-spacing="normal"
       font-size-adjust="none"
       font-stretch="normal"
       font-weight="normal"
       font-variant="normal"
       font-style="normal"
       fill-rule="even-odd"
       stroke-miterlimit="10.433"
       transform="matrix(2,0,0,-2,-312.58554,1508.5343)"
       id="g8076"
       xml:space="preserve"
       style="font-style:normal;font-variant:normal;font-weight:normal;font-stretch:normal;letter-spacing:normal;word-spacing:normal;text-anchor:start;fill:none;fill-opacity:1;stroke:#000000;stroke-linecap:butt;stroke-linejoin:miter;stroke-miterlimit:10.43299961;stroke-dasharray:none;stroke-dashoffset:0;stroke-opacity:1">
<path
   id="path8078"
   d="M 226.07,710.84 L 227.2,710.84 C 226.87,709.36 226.78,708.94 226.78,708.27 C 226.78,708.12 226.78,707.85 226.86,707.51 C 226.96,707.07 227.07,707.01 227.22,707.01 C 227.42,707.01 227.63,707.19 227.63,707.39 C 227.63,707.45 227.63,707.47 227.57,707.61 C 227.28,708.33 227.28,708.98 227.28,709.26 C 227.28,709.78 227.35,710.32 227.46,710.84 L 228.59,710.84 C 228.72,710.84 229.08,710.84 229.08,711.18 C 229.08,711.42 228.87,711.42 228.68,711.42 L 225.35,711.42 C 225.13,711.42 224.75,711.42 224.31,710.95 C 223.96,710.56 223.7,710.1 223.7,710.05 C 223.7,710.04 223.7,709.95 223.82,709.95 C 223.9,709.95 223.92,709.99 223.98,710.07 C 224.47,710.84 225.05,710.84 225.25,710.84 L 225.81,710.84 C 225.49,709.63 224.96,708.43 224.54,707.52 C 224.46,707.37 224.46,707.35 224.46,707.28 C 224.46,707.09 224.62,707.01 224.75,707.01 C 225.05,707.01 225.13,707.29 225.25,707.66 C 225.38,708.12 225.38,708.14 225.51,708.64 L 226.07,710.84 z"
   style="fill:#000000;stroke-width:0" />
<path
   id="path8080"
   d="M 232.7,712.31 L 234.83,712.31 C 234.92,712.31 235.09,712.31 235.09,712.48 C 235.09,712.66 234.93,712.66 234.83,712.66 L 232.7,712.66 L 232.7,714.8 C 232.7,714.89 232.7,715.05 232.53,715.05 C 232.36,715.05 232.36,714.89 232.36,714.8 L 232.36,712.66 L 230.22,712.66 C 230.13,712.66 229.96,712.66 229.96,712.49 C 229.96,712.31 230.12,712.31 230.22,712.31 L 232.36,712.31 L 232.36,710.17 C 232.36,710.08 232.36,709.91 232.52,709.91 C 232.7,709.91 232.7,710.08 232.7,710.17 L 232.7,712.31 z"
   style="fill:#000000;stroke-width:0" />
</g>    <path
       style="fill:none;fill-rule:evenodd;stroke:#000000;stroke-width:1px;stroke-linecap:butt;stroke-linejoin:miter;marker-start:none;marker-end:url(#Arrow1Lend);stroke-opacity:1"
       d="M 171.37201,89.392335 L 213.15861,89.392335"
       id="path8129" />
  </g>
</svg>
