<?xml version="1.0" encoding="UTF-8" standalone="no"?>
<svg
   xmlns:dc="http://purl.org/dc/elements/1.1/"
   xmlns:cc="http://creativecommons.org/ns#"
   xmlns:rdf="http://www.w3.org/1999/02/22-rdf-syntax-ns#"
   xmlns:svg="http://www.w3.org/2000/svg"
   xmlns="http://www.w3.org/2000/svg"
   xmlns:sodipodi="http://sodipodi.sourceforge.net/DTD/sodipodi-0.dtd"
   xmlns:inkscape="http://www.inkscape.org/namespaces/inkscape"
   width="680.46869pt"
   height="238.69334pt"
   viewBox="0 0 680.46868 238.69335"
   version="1.2"
   id="svg39"
   sodipodi:docname="feynmanrulesqed.svg"
   inkscape:version="0.92.1 r15371">
  <sodipodi:namedview
     pagecolor="#ffffff"
     bordercolor="#666666"
     borderopacity="1"
     objecttolerance="10"
     gridtolerance="10"
     guidetolerance="10"
     inkscape:pageopacity="0"
     inkscape:pageshadow="2"
     inkscape:window-width="1920"
     inkscape:window-height="1011"
     id="namedview41"
     showgrid="false"
     inkscape:zoom="1.1204726"
     inkscape:cx="494.12748"
     inkscape:cy="291.68223"
     inkscape:window-x="0"
     inkscape:window-y="0"
     inkscape:window-maximized="1"
     inkscape:current-layer="layer1"
     fit-margin-top="0"
     fit-margin-left="0"
     fit-margin-right="0"
     fit-margin-bottom="0" />
  <metadata
     id="metadata45">
    <rdf:RDF>
      <cc:Work
         rdf:about="">
        <dc:format>image/svg+xml</dc:format>
        <dc:type
           rdf:resource="http://purl.org/dc/dcmitype/StillImage" />
        <dc:title></dc:title>
      </cc:Work>
    </rdf:RDF>
  </metadata>
  <defs
     id="defs43">
    <marker
       inkscape:isstock="true"
       style="overflow:visible"
       id="marker6392"
       refX="0"
       refY="0"
       orient="auto"
       inkscape:stockid="Arrow1Lend">
      <path
         inkscape:connector-curvature="0"
         transform="matrix(-0.8,0,0,-0.8,-10,0)"
         style="fill:#000000;fill-opacity:1;fill-rule:evenodd;stroke:#000000;stroke-width:1.00000003pt;stroke-opacity:1"
         d="M 0,0 5,-5 -12.5,0 5,5 Z"
         id="path6390" />
    </marker>
    <marker
       inkscape:isstock="true"
       style="overflow:visible"
       id="marker6346"
       refX="0"
       refY="0"
       orient="auto"
       inkscape:stockid="Arrow1Lend">
      <path
         inkscape:connector-curvature="0"
         transform="matrix(-0.8,0,0,-0.8,-10,0)"
         style="fill:#000000;fill-opacity:1;fill-rule:evenodd;stroke:#000000;stroke-width:1.00000003pt;stroke-opacity:1"
         d="M 0,0 5,-5 -12.5,0 5,5 Z"
         id="path6344" />
    </marker>
    <marker
       inkscape:isstock="true"
       style="overflow:visible"
       id="marker6162"
       refX="0"
       refY="0"
       orient="auto"
       inkscape:stockid="Arrow1Lend">
      <path
         inkscape:connector-curvature="0"
         transform="matrix(-0.8,0,0,-0.8,-10,0)"
         style="fill:#000000;fill-opacity:1;fill-rule:evenodd;stroke:#000000;stroke-width:1.00000003pt;stroke-opacity:1"
         d="M 0,0 5,-5 -12.5,0 5,5 Z"
         id="path6160" />
    </marker>
    <marker
       inkscape:stockid="Arrow1Lstart"
       orient="auto"
       refY="0"
       refX="0"
       id="marker6120"
       style="overflow:visible"
       inkscape:isstock="true">
      <path
         id="path6118"
         d="M 0,0 5,-5 -12.5,0 5,5 Z"
         style="fill:#000000;fill-opacity:1;fill-rule:evenodd;stroke:#000000;stroke-width:1.00000003pt;stroke-opacity:1"
         transform="matrix(0.8,0,0,0.8,10,0)"
         inkscape:connector-curvature="0" />
    </marker>
    <marker
       inkscape:stockid="Arrow1Lstart"
       orient="auto"
       refY="0"
       refX="0"
       id="marker6072"
       style="overflow:visible"
       inkscape:isstock="true">
      <path
         id="path6070"
         d="M 0,0 5,-5 -12.5,0 5,5 Z"
         style="fill:#000000;fill-opacity:1;fill-rule:evenodd;stroke:#000000;stroke-width:1.00000003pt;stroke-opacity:1"
         transform="matrix(0.8,0,0,0.8,10,0)"
         inkscape:connector-curvature="0" />
    </marker>
    <marker
       inkscape:stockid="Arrow1Lend"
       orient="auto"
       refY="0"
       refX="0"
       id="marker5416"
       style="overflow:visible"
       inkscape:isstock="true"
       inkscape:collect="always">
      <path
         id="path5414"
         d="M 0,0 5,-5 -12.5,0 5,5 Z"
         style="fill:#000000;fill-opacity:1;fill-rule:evenodd;stroke:#000000;stroke-width:1.00000003pt;stroke-opacity:1"
         transform="matrix(-0.8,0,0,-0.8,-10,0)"
         inkscape:connector-curvature="0" />
    </marker>
    <marker
       inkscape:isstock="true"
       style="overflow:visible"
       id="Arrow1Lstart"
       refX="0"
       refY="0"
       orient="auto"
       inkscape:stockid="Arrow1Lstart">
      <path
         inkscape:connector-curvature="0"
         transform="matrix(0.8,0,0,0.8,10,0)"
         style="fill:#000000;fill-opacity:1;fill-rule:evenodd;stroke:#000000;stroke-width:1.00000003pt;stroke-opacity:1"
         d="M 0,0 5,-5 -12.5,0 5,5 Z"
         id="path4618" />
    </marker>
    <marker
       inkscape:isstock="true"
       style="overflow:visible"
       id="marker4902"
       refX="0"
       refY="0"
       orient="auto"
       inkscape:stockid="Arrow1Lend">
      <path
         inkscape:connector-curvature="0"
         transform="matrix(-0.8,0,0,-0.8,-10,0)"
         style="fill:#000000;fill-opacity:1;fill-rule:evenodd;stroke:#000000;stroke-width:1.00000003pt;stroke-opacity:1"
         d="M 0,0 5,-5 -12.5,0 5,5 Z"
         id="path4900" />
    </marker>
    <marker
       inkscape:isstock="true"
       style="overflow:visible"
       id="Arrow1Lend"
       refX="0"
       refY="0"
       orient="auto"
       inkscape:stockid="Arrow1Lend">
      <path
         inkscape:connector-curvature="0"
         transform="matrix(-0.8,0,0,-0.8,-10,0)"
         style="fill:#000000;fill-opacity:1;fill-rule:evenodd;stroke:#000000;stroke-width:1.00000003pt;stroke-opacity:1"
         d="M 0,0 5,-5 -12.5,0 5,5 Z"
         id="path4621" />
    </marker>
    <marker
       inkscape:isstock="true"
       style="overflow:visible"
       id="Arrow1Lend-3"
       refX="0"
       refY="0"
       orient="auto"
       inkscape:stockid="Arrow1Lend">
      <path
         inkscape:connector-curvature="0"
         transform="matrix(-0.8,0,0,-0.8,-10,0)"
         style="fill:#000000;fill-opacity:1;fill-rule:evenodd;stroke:#000000;stroke-width:1.00000003pt;stroke-opacity:1"
         d="M 0,0 5,-5 -12.5,0 5,5 Z"
         id="path4621-6" />
    </marker>
    <marker
       inkscape:isstock="true"
       style="overflow:visible"
       id="Arrow1Lstart-7"
       refX="0"
       refY="0"
       orient="auto"
       inkscape:stockid="Arrow1Lstart">
      <path
         inkscape:connector-curvature="0"
         transform="matrix(0.8,0,0,0.8,10,0)"
         style="fill:#000000;fill-opacity:1;fill-rule:evenodd;stroke:#000000;stroke-width:1.00000003pt;stroke-opacity:1"
         d="M 0,0 5,-5 -12.5,0 5,5 Z"
         id="path4618-5" />
    </marker>
    <marker
       inkscape:isstock="true"
       style="overflow:visible"
       id="Arrow1Lend-3-3"
       refX="0"
       refY="0"
       orient="auto"
       inkscape:stockid="Arrow1Lend">
      <path
         inkscape:connector-curvature="0"
         transform="matrix(-0.8,0,0,-0.8,-10,0)"
         style="fill:#000000;fill-opacity:1;fill-rule:evenodd;stroke:#000000;stroke-width:1.00000003pt;stroke-opacity:1"
         d="M 0,0 5,-5 -12.5,0 5,5 Z"
         id="path4621-6-5" />
    </marker>
    <marker
       inkscape:isstock="true"
       style="overflow:visible"
       id="Arrow1Lstart-7-61"
       refX="0"
       refY="0"
       orient="auto"
       inkscape:stockid="Arrow1Lstart"
       inkscape:collect="always">
      <path
         inkscape:connector-curvature="0"
         transform="matrix(0.8,0,0,0.8,10,0)"
         style="fill:#000000;fill-opacity:1;fill-rule:evenodd;stroke:#000000;stroke-width:1.00000003pt;stroke-opacity:1"
         d="M 0,0 5,-5 -12.5,0 5,5 Z"
         id="path4618-5-8" />
    </marker>
  </defs>
  <g
     transform="translate(0.0078125,24.263587)"
     style="display:inline"
     inkscape:label="frame"
     id="layer1"
     inkscape:groupmode="layer">
    <path
       sodipodi:nodetypes="ccc"
       id="path12"
       d="M 14.011718,0.39843695 V 198.62891 H 661.58985"
       style="fill:none;stroke:#000000;stroke-width:0.79999995;stroke-linecap:butt;stroke-linejoin:miter;stroke-miterlimit:4;stroke-opacity:1;marker-end:url(#marker6346);marker-start:url(#marker6120)"
       inkscape:connector-curvature="0" />
    <path
       id="path14"
       d="m 4.1484379,9.9101544 -0.734376,2.5312506 h 1.46875 L 4.7109379,13.01953 H 3.273438 l -1.59375,5.484374 C 1.5,19.089843 1.414062,19.468749 1.414062,19.64453 c 0,0.105469 0.023438,0.183594 0.078126,0.234375 0.050781,0.05469 0.109374,0.07813 0.1718739,0.07813 0.1523441,0 0.359376,-0.101562 0.6093761,-0.312501 0.152343,-0.121092 0.488281,-0.503905 1,-1.140624 l 0.2968739,0.21875 C 3.007812,19.558598 2.46875,20.148441 1.960938,20.488284 c -0.34375,0.226563 -0.695313,0.343751 -1.046876,0.343751 -0.27343702,0 -0.49609301,-0.08594 -0.67187401,-0.250001 -0.16796919,-0.164061 -0.25000049,-0.382812 -0.25000049,-0.65625 0,-0.332031 0.0976563,-0.84375 0.2968745,-1.531249 l 1.5468759,-5.375 H 0.42968799 l 0.09375,-0.359375 C 1.199219,12.476566 1.761719,12.199223 2.2109379,11.832035 2.667969,11.468754 3.179688,10.828129 3.7421879,9.9101597 Z m 0,0"
       style="fill:#000000;fill-opacity:1;fill-rule:nonzero;stroke:none;stroke-width:0.99999994"
       inkscape:connector-curvature="0" />
    <path
       id="path16"
       d="m 624.00781,205.82031 c 0.30078,0.32422 0.53125,0.64453 0.6875,0.95313 0.11328,0.23047 0.29688,0.82031 0.54688,1.76562 l 0.8125,-1.23437 c 0.21484,-0.28907 0.48437,-0.57032 0.79687,-0.84375 0.3086,-0.26953 0.58203,-0.45313 0.8125,-0.54688 0.14453,-0.0586 0.3125,-0.0937 0.5,-0.0937 0.25781,0 0.46875,0.0742 0.625,0.21875 0.15235,0.13672 0.23438,0.3086 0.23438,0.51563 0,0.23047 -0.0508,0.38672 -0.14063,0.46875 -0.16797,0.15625 -0.36719,0.23437 -0.59375,0.23437 -0.125,0 -0.26172,-0.0234 -0.40625,-0.0781 -0.29297,-0.10157 -0.49219,-0.15625 -0.59375,-0.15625 -0.14844,0 -0.32031,0.0898 -0.51562,0.26562 -0.38672,0.32422 -0.84766,0.94531 -1.375,1.85938 l 0.75,3.20312 c 0.12109,0.49219 0.22265,0.78516 0.29687,0.875 0.082,0.0937 0.16406,0.14063 0.25,0.14063 0.1211,0 0.27344,-0.0703 0.45313,-0.21875 0.33984,-0.27735 0.63281,-0.64844 0.875,-1.10938 l 0.3125,0.17188 c -0.38672,0.73047 -0.88282,1.33593 -1.48438,1.8125 -0.33594,0.26953 -0.62109,0.40625 -0.85937,0.40625 -0.34375,0 -0.6211,-0.19532 -0.82813,-0.57813 -0.125,-0.23828 -0.39453,-1.28125 -0.79687,-3.125 -0.96875,1.67969 -1.7461,2.76172 -2.32813,3.25 -0.375,0.30078 -0.74219,0.45313 -1.09375,0.45313 -0.24609,0 -0.47265,-0.0898 -0.67187,-0.26563 -0.14453,-0.13281 -0.21875,-0.3164 -0.21875,-0.54687 0,-0.20703 0.0703,-0.37891 0.20312,-0.51563 0.13672,-0.13281 0.30469,-0.20312 0.5,-0.20312 0.19531,0 0.40625,0.10156 0.625,0.29687 0.16406,0.14844 0.28906,0.21875 0.375,0.21875 0.0703,0 0.16406,-0.0508 0.28125,-0.15625 0.28906,-0.22656 0.6875,-0.73437 1.1875,-1.51562 0.4961,-0.77735 0.82813,-1.34375 0.98438,-1.6875 -0.38672,-1.4961 -0.59766,-2.29688 -0.625,-2.39063 -0.13672,-0.39453 -0.32032,-0.67578 -0.54688,-0.84375 -0.23047,-0.16406 -0.57031,-0.25 -1.01562,-0.25 -0.14844,0 -0.3086,0.008 -0.48438,0.0156 v -0.32813 z m 0,0"
       style="fill:#000000;fill-opacity:1;fill-rule:nonzero;stroke:none;stroke-width:0.99999994"
       inkscape:connector-curvature="0" />
  </g>
  <g
     inkscape:label="rule"
     id="layer2"
     inkscape:groupmode="layer"
     transform="translate(0,24.662024)">
    <path
       style="fill:none;stroke:#000000;stroke-width:0.79999995;stroke-linecap:butt;stroke-linejoin:miter;stroke-miterlimit:4;stroke-opacity:1"
       d="m 115.52008,97.914064 c 3.29297,-8.000002 4.46484,-8.000002 7.75781,0 3.29297,7.999996 4.46876,7.999996 7.76172,0 3.29297,-8.000002 4.46486,-8.000002 7.75781,0 3.29298,7.999996 4.46875,7.999996 7.76172,0 3.29298,-8.000002 4.46486,-8.000002 7.75782,0 3.29688,7.999996 4.46875,7.999996 7.76172,0 3.29297,-8.000002 4.46485,-8.000002 7.76172,0 3.29297,7.999996 4.46485,7.999996 7.75781,0 3.29297,-8.000002 4.46875,-8.000002 7.76172,0 3.29297,7.999996 4.46485,7.999996 7.75782,0 3.29296,-8.000002 4.46875,-8.000002 7.76171,0 3.29297,7.999996 4.46485,7.999996 7.75782,0 3.29297,-8.000002 4.46875,-8.000002 7.76172,0"
       id="path2"
       inkscape:connector-curvature="0" />
    <path
       inkscape:transform-center-y="-18.002673"
       inkscape:transform-center-x="5.4553521"
       style="fill:none;stroke:#000000;stroke-width:0.75225002;stroke-linecap:butt;stroke-linejoin:miter;stroke-miterlimit:4;stroke-dasharray:none;stroke-opacity:1;marker-mid:url(#Arrow1Lend-3)"
       d="m 48.408439,173.30084 33.5562,-37.6953 33.555441,-37.691476"
       id="path4"
       inkscape:connector-curvature="0" />
    <g
       id="g5905"
       transform="translate(0,1.46808)">
      <path
         inkscape:connector-curvature="0"
         id="path30"
         d="m 92.132469,147.28526 h 0.33984 l 0.0977,-0.004 h 0.10547 l 0.11328,-0.004 0.11328,-0.008 0.1211,-0.004 0.125,-0.004 0.1289,-0.0117 0.125,-0.004 0.13672,-0.0117 0.136721,-0.0156 0.27734,-0.0273 0.28907,-0.0312 0.28906,-0.043 0.29297,-0.0508 0.28906,-0.0586 0.28516,-0.0664 0.14453,-0.0391 0.13281,-0.0391 0.14062,-0.043 0.13282,-0.0469 0.1289,-0.0469 0.12891,-0.0508 c 1.85937,-0.80078 1.99219,-2.37109 1.99219,-2.74609 0,-1.17187 -1.01172,-2.26171 -2.84766,-2.26171 v 0.58983 c 1.25,0 1.97266,0.76953 1.97266,1.67188 0,2.77344 -4.261721,2.77344 -5.351571,2.77344 h -1.09765 c 1.04297,-4.05079 3.785151,-4.44532 4.476561,-4.44532 v -0.58983 c -2.957031,0 -6.980471,2.58594 -6.980471,7.24608 0,2.71485 1.57422,4.82032 4.1836,4.82032 3.804681,0 6.046871,-2.82422 6.046871,-3.14454 0,-0.16015 -0.16016,-0.34765 -0.32031,-0.34765 -0.13672,0 -0.1875,0.0547 -0.34375,0.26953 -2.10547,2.63672 -5.007811,2.63672 -5.332031,2.63672 -2.07422,0 -2.3125,-2.23828 -2.3125,-3.09375 0,-0.32031 0.0273,-1.14063 0.42578,-2.76953 z m 0,0"
         style="fill:#000000;fill-opacity:1;fill-rule:nonzero;stroke:none;stroke-width:1" />
      <path
         inkscape:connector-curvature="0"
         id="path32"
         d="m 113.31215,139.60558 h 0.1836 l 0.0312,-0.008 h 0.0273 l 0.0312,-0.004 h 0.0312 l 0.0352,-0.004 0.0312,-0.008 0.0273,-0.0117 0.0312,-0.004 0.0312,-0.0117 0.0273,-0.004 0.0273,-0.0117 0.0273,-0.0156 0.0234,-0.0117 0.0234,-0.0156 0.0195,-0.0195 0.0273,-0.0156 0.0156,-0.0234 0.0117,-0.008 0.0117,-0.0117 0.004,-0.0156 0.0117,-0.0117 0.004,-0.0117 0.0117,-0.0156 0.004,-0.0156 0.008,-0.0117 0.008,-0.0312 0.008,-0.0156 v -0.0147 l 0.004,-0.0234 0.008,-0.0156 v -0.0352 l 0.004,-0.0234 v -0.0195 c 0,-0.46484 -0.42969,-0.46484 -0.75,-0.46484 h -11.10929 c -0.29688,0 -0.74219,0 -0.74219,0.44922 0,0.46484 0.42578,0.46484 0.74219,0.46484 z m 0,0"
         style="fill:#000000;fill-opacity:1;fill-rule:nonzero;stroke:none;stroke-width:1" />
    </g>
    <path
       style="fill:#000000;fill-opacity:1;fill-rule:nonzero;stroke:none;stroke-width:1"
       d="m 199.10212,79.238281 -0.12109,0.195312 -0.1211,0.187499 -0.11328,0.171876 -0.12109,0.167969 -0.11719,0.160156 -0.12109,0.144531 -0.1211,0.148437 -0.11328,0.128907 -0.12109,0.125 -0.11719,0.117187 -0.12109,0.109376 -0.1211,0.101562 -0.12109,0.09375 -0.11719,0.08984 -0.12109,0.08203 -0.1211,0.07813 -0.12109,0.07031 -0.12109,0.0625 -0.24219,0.117186 -0.12891,0.04297 -0.12109,0.04687 -0.12109,0.03906 -0.12891,0.03516 -0.125,0.03516 -0.125,0.02344 -0.125,0.02734 -0.12891,0.01953 -0.2539,0.03125 -0.26563,0.02344 c -0.38281,0.02734 -0.66797,0.02734 -0.66797,0.632812 0,0.191407 0.16016,0.351563 0.41407,0.351563 h 5.92578 c 0.1914,0 0.59765,0 0.59765,-0.605469 0,-0.351562 -0.28125,-0.378906 -0.50781,-0.378906 -0.73047,-0.0625 -1.49609,-0.320312 -1.49609,-1.117188 0,-0.382812 0.1914,-0.730468 0.44531,-1.175781 l 2.42187,-4.078125 h 7.98829 l -0.0937,-0.984375 h -7.29297 l 6.27734,-10.503906 1.01563,10.503906 0.0937,0.984375 c 0.0664,0.671875 0.51171,5 0.51171,5.316406 0,0.953126 -1.65234,1.054688 -2.29296,1.054688 -0.44922,0 -0.76563,0 -0.76563,0.632812 0,0.351563 0.38281,0.351563 0.44531,0.351563 h 7.57813 c 0.19531,0 0.57031,0 0.57031,-0.636719 0,-0.347656 -0.3125,-0.347656 -0.72656,-0.347656 -1.97656,0 -1.97656,-0.222656 -2.07422,-1.148438 l -1.94141,-19.894529 c -0.0625,-0.640625 -0.0625,-0.769531 -0.60156,-0.769531 -0.51172,0 -0.63672,0.226562 -0.82812,0.546875 z m 0,0"
       id="path34"
       inkscape:connector-curvature="0" />
    <path
       style="fill:#000000;fill-opacity:1;fill-rule:nonzero;stroke:none;stroke-width:1"
       d="m 218.25056,74.980468 -0.008,0.03125 -0.004,0.03516 -0.008,0.02344 -0.008,0.02734 -0.004,0.02344 -0.008,0.02734 -0.004,0.02344 -0.008,0.01953 -0.008,0.02734 v 0.01953 l -0.004,0.01953 v 0.01563 l -0.008,0.01563 v 0.01953 l -0.008,0.01172 v 0.02344 l -0.004,0.01562 v 0.05078 l -0.008,0.0039 v 0.03906 c 0,0.488282 0.40235,0.710938 0.76172,0.710938 0.79688,0 0.97657,-0.734375 1.06641,-1.113281 0.043,-0.113281 0.49219,-1.898438 1.02734,-4.078125 0.69141,0.46875 1.57813,0.648437 2.38672,0.648437 1.91406,0 3.16016,-1.5625 3.20703,-1.605469 0.42188,1.535157 1.96094,1.605469 2.29297,1.605469 0.80078,0 1.36328,-0.492187 1.75781,-1.183593 0.49219,-0.871093 0.78516,-2.140626 0.78516,-2.222657 0,-0.296875 -0.29297,-0.296875 -0.35547,-0.296875 -0.3125,0 -0.33203,0.08984 -0.49219,0.691406 -0.26953,1.074219 -0.6914,2.382813 -1.625,2.382813 -0.58203,0 -0.74218,-0.484375 -0.74218,-1.089844 0,-0.378905 0.1875,-1.179687 0.33984,-1.757812 0.15234,-0.601563 0.37891,-1.515625 0.48828,-2.007813 l 0.51563,-1.980468 c 0.1289,-0.558594 0.3789,-1.542969 0.3789,-1.648438 0,-0.449219 -0.35937,-0.71875 -0.73828,-0.71875 -0.24219,0 -0.66797,0.109375 -0.91406,0.539062 -0.0703,0.132813 -0.24219,0.84375 -0.35547,1.289063 l -0.46875,1.855469 -0.6875,2.777344 c -0.16016,0.5625 -0.16016,0.601562 -0.35937,0.894532 -0.69141,0.980468 -1.66797,1.847655 -2.9375,1.847655 -1.82813,0 -1.82813,-1.578125 -1.82813,-1.980468 0,-0.582032 0.0625,-0.867188 0.375,-2.070313 0.22266,-0.984375 0.26953,-1.136719 0.49219,-2.007813 l 0.3125,-1.25 c 0.10937,-0.46875 0.33203,-1.3125 0.33203,-1.402343 0,-0.402344 -0.3125,-0.714844 -0.75781,-0.714844 -0.80078,0 -1,0.78125 -1.07032,1.046875 z m 0,0"
       id="path36"
       inkscape:connector-curvature="0" />
    <path
       inkscape:connector-curvature="0"
       id="path132"
       d="m 48.408439,21.414051 33.5562,37.6953 33.555441,37.69148"
       style="fill:none;stroke:#000000;stroke-width:0.75212198;stroke-linecap:butt;stroke-linejoin:miter;stroke-miterlimit:4;stroke-opacity:1;marker-mid:url(#Arrow1Lstart-7)"
       inkscape:transform-center-x="5.4553521"
       inkscape:transform-center-y="18.002673" />
    <g
       id="g5915">
      <path
         style="fill:#000000;fill-opacity:1;fill-rule:nonzero;stroke:none;stroke-width:1"
         d="m 92.132469,48.28526 h 0.33984 l 0.0977,-0.004 h 0.10547 l 0.11328,-0.004 0.11328,-0.008 0.1211,-0.004 0.125,-0.004 0.1289,-0.0117 0.125,-0.004 0.13672,-0.0117 0.136721,-0.0156 0.27734,-0.0273 0.28907,-0.0312 0.28906,-0.043 0.29297,-0.0508 0.28906,-0.0586 0.28516,-0.0664 0.14453,-0.0391 0.13281,-0.0391 0.14062,-0.043 0.13282,-0.0469 0.1289,-0.0469 0.12891,-0.0508 c 1.85937,-0.80078 1.99219,-2.37109 1.99219,-2.74609 0,-1.17187 -1.01172,-2.26171 -2.84766,-2.26171 v 0.58983 c 1.25,0 1.97266,0.76953 1.97266,1.67188 0,2.77344 -4.261721,2.77344 -5.351571,2.77344 h -1.09765 c 1.04297,-4.05079 3.785151,-4.44532 4.476561,-4.44532 v -0.58983 c -2.957031,0 -6.980471,2.58594 -6.980471,7.24608 0,2.71485 1.57422,4.82032 4.1836,4.82032 3.804681,0 6.046871,-2.82422 6.046871,-3.14454 0,-0.16015 -0.16016,-0.34765 -0.32031,-0.34765 -0.13672,0 -0.1875,0.0547 -0.34375,0.26953 -2.10547,2.63672 -5.007811,2.63672 -5.332031,2.63672 -2.07422,0 -2.3125,-2.23828 -2.3125,-3.09375 0,-0.32031 0.0273,-1.14063 0.42578,-2.76953 z m 0,0"
         id="path5167"
         inkscape:connector-curvature="0" />
      <path
         style="fill:#000000;fill-opacity:1;fill-rule:nonzero;stroke:none;stroke-width:1"
         d="m 113.31215,40.60558 h 0.1836 l 0.0312,-0.008 h 0.0273 l 0.0312,-0.004 h 0.0312 l 0.0352,-0.004 0.0312,-0.008 0.0273,-0.0117 0.0312,-0.004 0.0312,-0.0117 0.0273,-0.004 0.0273,-0.0117 0.0273,-0.0156 0.0234,-0.0117 0.0234,-0.0156 0.0195,-0.0195 0.0273,-0.0156 0.0156,-0.0234 0.0117,-0.008 0.0117,-0.0117 0.004,-0.0156 0.0117,-0.0117 0.004,-0.0117 0.0117,-0.0156 0.004,-0.0156 0.008,-0.0117 0.008,-0.0312 0.008,-0.0156 v -0.0147 l 0.004,-0.0234 0.008,-0.0156 v -0.0352 l 0.004,-0.0234 v -0.0195 c 0,-0.46484 -0.42969,-0.46484 -0.75,-0.46484 h -11.10929 c -0.29688,0 -0.74219,0 -0.74219,0.44922 0,0.46484 0.42578,0.46484 0.74219,0.46484 z m 0,0"
         id="path5169"
         inkscape:connector-curvature="0" />
    </g>
    <g
       transform="translate(-182.41284,111.78319)"
       id="g5798">
      <path
         style="font-style:normal;font-variant:normal;font-weight:normal;font-stretch:normal;letter-spacing:normal;word-spacing:normal;text-anchor:start;fill:#000000;fill-opacity:1;fill-rule:evenodd;stroke:#000000;stroke-width:0;stroke-linecap:butt;stroke-linejoin:miter;stroke-miterlimit:10.43299961;stroke-dasharray:none;stroke-dashoffset:0;stroke-opacity:1"
         inkscape:connector-curvature="0"
         d="m 500.40677,40.199735 0.0753,-0.0054 h 0.0861 0.0915 0.0915 l 0.10223,-0.0054 h 0.10762 l 0.11299,-0.0054 0.11838,-0.0054 0.11838,-0.0054 0.12376,-0.0054 0.12914,-0.0054 0.13452,-0.01076 0.13452,-0.01076 0.13452,-0.01076 0.28518,-0.0269 0.28518,-0.03766 0.29594,-0.03767 0.29057,-0.05381 0.29056,-0.05919 0.29056,-0.06457 0.1399,-0.03767 0.1399,-0.04305 0.13452,-0.04304 0.13452,-0.04304 0.12914,-0.04843 0.12914,-0.05381 c 1.87252,-0.806995 2.00704,-2.383568 2.00704,-2.754843 0,-1.183775 -1.01697,-2.276075 -2.86796,-2.276075 v 0.586505 c 1.26448,0 1.98551,0.774835 1.98551,1.68957 0,2.781871 -4.28849,2.781871 -5.38618,2.781871 h -1.10306 c 1.04926,-4.067876 3.8096,-4.471436 4.50373,-4.471436 v -0.586505 c -2.97558,0 -7.01656,2.593542 -7.01656,7.285595 0,2.733444 1.57657,4.853476 4.2024,4.853476 3.83113,0 6.08568,-2.841059 6.08568,-3.163906 0,-0.156044 -0.16143,-0.349752 -0.31747,-0.349752 -0.13452,0 -0.18833,0.05919 -0.35513,0.26904 -2.12003,2.652731 -5.03642,2.652731 -5.35389,2.652731 -2.09313,0 -2.34065,-2.249172 -2.34065,-3.110099 0,-0.317467 0.0269,-1.15149 0.43047,-2.787252 z"
         id="path5616" />
      <path
         style="font-style:normal;font-variant:normal;font-weight:normal;font-stretch:normal;letter-spacing:normal;word-spacing:normal;text-anchor:start;fill:#000000;fill-opacity:1;fill-rule:evenodd;stroke:#000000;stroke-width:0;stroke-linecap:butt;stroke-linejoin:miter;stroke-miterlimit:10.43299961;stroke-dasharray:none;stroke-dashoffset:0;stroke-opacity:1"
         inkscape:connector-curvature="0"
         d="m 516.54377,32.472915 h 5.73593 c 0.24213,0 0.68874,0 0.68874,-0.457368 0,-0.462748 -0.43047,-0.462748 -0.68874,-0.462748 h -5.73593 v -5.757451 c 0,-0.242135 0,-0.688741 -0.45199,-0.688741 -0.47351,0 -0.47351,0.430463 -0.47351,0.688741 v 5.757451 h -5.75207 c -0.24213,0 -0.69412,0 -0.69412,0.446606 0,0.47351 0.42508,0.47351 0.69412,0.47351 h 5.75207 v 5.757449 c 0,0.242136 0,0.688742 0.45737,0.688742 0.46813,0 0.46813,-0.430463 0.46813,-0.688742 z"
         id="path5618" />
    </g>
    <g
       id="g5911"
       transform="translate(-182.41284,11.31511)">
      <path
         id="path5907"
         d="m 500.40677,40.199735 0.0753,-0.0054 h 0.0861 0.0915 0.0915 l 0.10223,-0.0054 h 0.10762 l 0.11299,-0.0054 0.11838,-0.0054 0.11838,-0.0054 0.12376,-0.0054 0.12914,-0.0054 0.13452,-0.01076 0.13452,-0.01076 0.13452,-0.01076 0.28518,-0.0269 0.28518,-0.03766 0.29594,-0.03767 0.29057,-0.05381 0.29056,-0.05919 0.29056,-0.06457 0.1399,-0.03767 0.1399,-0.04305 0.13452,-0.04304 0.13452,-0.04304 0.12914,-0.04843 0.12914,-0.05381 c 1.87252,-0.806995 2.00704,-2.383568 2.00704,-2.754843 0,-1.183775 -1.01697,-2.276075 -2.86796,-2.276075 v 0.586505 c 1.26448,0 1.98551,0.774835 1.98551,1.68957 0,2.781871 -4.28849,2.781871 -5.38618,2.781871 h -1.10306 c 1.04926,-4.067876 3.8096,-4.471436 4.50373,-4.471436 v -0.586505 c -2.97558,0 -7.01656,2.593542 -7.01656,7.285595 0,2.733444 1.57657,4.853476 4.2024,4.853476 3.83113,0 6.08568,-2.841059 6.08568,-3.163906 0,-0.156044 -0.16143,-0.349752 -0.31747,-0.349752 -0.13452,0 -0.18833,0.05919 -0.35513,0.26904 -2.12003,2.652731 -5.03642,2.652731 -5.35389,2.652731 -2.09313,0 -2.34065,-2.249172 -2.34065,-3.110099 0,-0.317467 0.0269,-1.15149 0.43047,-2.787252 z"
         inkscape:connector-curvature="0"
         style="font-style:normal;font-variant:normal;font-weight:normal;font-stretch:normal;letter-spacing:normal;word-spacing:normal;text-anchor:start;fill:#000000;fill-opacity:1;fill-rule:evenodd;stroke:#000000;stroke-width:0;stroke-linecap:butt;stroke-linejoin:miter;stroke-miterlimit:10.43299961;stroke-dasharray:none;stroke-dashoffset:0;stroke-opacity:1" />
      <path
         id="path5909"
         d="m 516.54377,32.472915 h 5.73593 c 0.24213,0 0.68874,0 0.68874,-0.457368 0,-0.462748 -0.43047,-0.462748 -0.68874,-0.462748 h -5.73593 v -5.757451 c 0,-0.242135 0,-0.688741 -0.45199,-0.688741 -0.47351,0 -0.47351,0.430463 -0.47351,0.688741 v 5.757451 h -5.75207 c -0.24213,0 -0.69412,0 -0.69412,0.446606 0,0.47351 0.42508,0.47351 0.69412,0.47351 h 5.75207 v 5.757449 c 0,0.242136 0,0.688742 0.45737,0.688742 0.46813,0 0.46813,-0.430463 0.46813,-0.688742 z"
         inkscape:connector-curvature="0"
         style="font-style:normal;font-variant:normal;font-weight:normal;font-stretch:normal;letter-spacing:normal;word-spacing:normal;text-anchor:start;fill:#000000;fill-opacity:1;fill-rule:evenodd;stroke:#000000;stroke-width:0;stroke-linecap:butt;stroke-linejoin:miter;stroke-miterlimit:10.43299961;stroke-dasharray:none;stroke-dashoffset:0;stroke-opacity:1" />
    </g>
  </g>
  <g
     inkscape:label="rule 2"
     id="layer4"
     inkscape:groupmode="layer"
     transform="translate(0,24.662024)">
    <path
       style="fill:none;stroke:#000000;stroke-width:0.79999995;stroke-linecap:butt;stroke-linejoin:miter;stroke-miterlimit:4;stroke-opacity:1"
       d="m 338.27009,97.914064 c 3.29297,-8.000002 4.46484,-8.000002 7.75781,0 3.29297,7.999996 4.46876,7.999996 7.76172,0 3.29297,-8.000002 4.46486,-8.000002 7.75781,0 3.29298,7.999996 4.46875,7.999996 7.76172,0 3.29298,-8.000002 4.46486,-8.000002 7.75782,0 3.29688,7.999996 4.46875,7.999996 7.76172,0 3.29297,-8.000002 4.46485,-8.000002 7.76172,0 3.29297,7.999996 4.46485,7.999996 7.75781,0 3.29297,-8.000002 4.46875,-8.000002 7.76172,0 3.29297,7.999996 4.46485,7.999996 7.75782,0 3.29296,-8.000002 4.46875,-8.000002 7.76171,0 3.29297,7.999996 4.46485,7.999996 7.75782,0 3.29297,-8.000002 4.46875,-8.000002 7.76172,0"
       id="path2-9"
       inkscape:connector-curvature="0" />
    <path
       inkscape:transform-center-y="-18.002673"
       inkscape:transform-center-x="5.4553521"
       style="fill:none;stroke:#000000;stroke-width:0.75225002;stroke-linecap:butt;stroke-linejoin:miter;stroke-miterlimit:4;stroke-dasharray:none;stroke-opacity:1;marker-mid:url(#marker6072)"
       d="m 271.15845,173.30084 33.5562,-37.6953 33.55544,-37.691476"
       id="path4-1"
       inkscape:connector-curvature="0" />
    <path
       style="fill:#000000;fill-opacity:1;fill-rule:nonzero;stroke:none;stroke-width:1"
       d="m 421.85213,79.238281 -0.12109,0.195312 -0.1211,0.187499 -0.11328,0.171876 -0.12109,0.167969 -0.11719,0.160156 -0.12109,0.144531 -0.1211,0.148437 -0.11328,0.128907 -0.12109,0.125 -0.11719,0.117187 -0.12109,0.109376 -0.1211,0.101562 -0.12109,0.09375 -0.11719,0.08984 -0.12109,0.08203 -0.1211,0.07813 -0.12109,0.07031 -0.12109,0.0625 -0.24219,0.117186 -0.12891,0.04297 -0.12109,0.04687 -0.12109,0.03906 -0.12891,0.03516 -0.125,0.03516 -0.125,0.02344 -0.125,0.02734 -0.12891,0.01953 -0.2539,0.03125 -0.26563,0.02344 c -0.38281,0.02734 -0.66797,0.02734 -0.66797,0.632812 0,0.191407 0.16016,0.351563 0.41407,0.351563 h 5.92578 c 0.1914,0 0.59765,0 0.59765,-0.605469 0,-0.351562 -0.28125,-0.378906 -0.50781,-0.378906 -0.73047,-0.0625 -1.49609,-0.320312 -1.49609,-1.117188 0,-0.382812 0.1914,-0.730468 0.44531,-1.175781 l 2.42187,-4.078125 h 7.98829 l -0.0937,-0.984375 h -7.29297 l 6.27734,-10.503906 1.01563,10.503906 0.0937,0.984375 c 0.0664,0.671875 0.51171,5 0.51171,5.316406 0,0.953126 -1.65234,1.054688 -2.29296,1.054688 -0.44922,0 -0.76563,0 -0.76563,0.632812 0,0.351563 0.38281,0.351563 0.44531,0.351563 h 7.57813 c 0.19531,0 0.57031,0 0.57031,-0.636719 0,-0.347656 -0.3125,-0.347656 -0.72656,-0.347656 -1.97656,0 -1.97656,-0.222656 -2.07422,-1.148438 l -1.94141,-19.894529 c -0.0625,-0.640625 -0.0625,-0.769532 -0.60156,-0.769532 -0.51172,0 -0.63672,0.226563 -0.82812,0.546876 z m 0,0"
       id="path34-0"
       inkscape:connector-curvature="0" />
    <path
       style="fill:#000000;fill-opacity:1;fill-rule:nonzero;stroke:none;stroke-width:1"
       d="m 441.00057,74.980468 -0.008,0.03125 -0.004,0.03516 -0.008,0.02344 -0.008,0.02734 -0.004,0.02344 -0.008,0.02734 -0.004,0.02344 -0.008,0.01953 -0.008,0.02734 v 0.01953 l -0.004,0.01953 v 0.01563 l -0.008,0.01563 v 0.01953 l -0.008,0.01172 v 0.02344 l -0.004,0.01562 v 0.05078 l -0.008,0.0039 v 0.03906 c 0,0.488282 0.40235,0.710938 0.76172,0.710938 0.79687,0 0.97657,-0.734375 1.06641,-1.113281 0.043,-0.113281 0.49219,-1.898438 1.02733,-4.078125 0.69141,0.46875 1.57814,0.648437 2.38673,0.648437 1.91406,0 3.16015,-1.5625 3.20703,-1.605469 0.42187,1.535157 1.96093,1.605469 2.29297,1.605469 0.80078,0 1.36328,-0.492187 1.75781,-1.183593 0.49219,-0.871093 0.78516,-2.140626 0.78516,-2.222657 0,-0.296875 -0.29297,-0.296875 -0.35547,-0.296875 -0.3125,0 -0.33203,0.08984 -0.4922,0.691406 -0.26952,1.074219 -0.69139,2.382813 -1.62499,2.382813 -0.58203,0 -0.74219,-0.484375 -0.74219,-1.089844 0,-0.378905 0.1875,-1.179687 0.33984,-1.757812 0.15234,-0.601563 0.37892,-1.515625 0.48828,-2.007813 l 0.51564,-1.980468 c 0.1289,-0.558594 0.3789,-1.542969 0.3789,-1.648438 0,-0.449219 -0.35937,-0.71875 -0.73828,-0.71875 -0.24219,0 -0.66797,0.109375 -0.91406,0.539062 -0.0703,0.132813 -0.24219,0.84375 -0.35547,1.289063 l -0.46875,1.855469 -0.68751,2.777344 c -0.16015,0.5625 -0.16015,0.601562 -0.35937,0.894532 -0.69141,0.980468 -1.66797,1.847655 -2.93749,1.847655 -1.82813,0 -1.82813,-1.578125 -1.82813,-1.980468 0,-0.582032 0.0625,-0.867188 0.375,-2.070313 0.22266,-0.984375 0.26952,-1.136719 0.49218,-2.007813 l 0.31251,-1.25 c 0.10937,-0.46875 0.33203,-1.3125 0.33203,-1.402343 0,-0.402344 -0.3125,-0.714844 -0.75782,-0.714844 -0.80077,0 -0.99999,0.78125 -1.07031,1.046875 z m 0,0"
       id="path36-9"
       inkscape:connector-curvature="0" />
    <path
       inkscape:connector-curvature="0"
       id="path132-3"
       d="m 271.15845,21.414051 33.5562,37.6953 33.55544,37.69148"
       style="fill:none;stroke:#000000;stroke-width:0.75212198;stroke-linecap:butt;stroke-linejoin:miter;stroke-miterlimit:4;stroke-opacity:1;marker-mid:url(#marker6162)"
       inkscape:transform-center-x="5.4553521"
       inkscape:transform-center-y="18.002673" />
  </g>
  <g
     inkscape:label="rule 3"
     id="layer5"
     inkscape:groupmode="layer"
     transform="translate(0,24.662024)">
    <path
       style="fill:#000000;fill-opacity:1;fill-rule:nonzero;stroke:none;stroke-width:1"
       d="m 488.65747,147.28526 h 0.33984 l 0.0977,-0.004 h 0.10547 l 0.11328,-0.004 0.11328,-0.008 0.1211,-0.004 0.125,-0.004 0.1289,-0.0117 0.125,-0.004 0.13672,-0.0117 0.13672,-0.0156 0.27734,-0.0273 0.28907,-0.0312 0.28906,-0.043 0.29297,-0.0508 0.28906,-0.0586 0.28516,-0.0664 0.14453,-0.0391 0.13281,-0.0391 0.14062,-0.043 0.13282,-0.0469 0.1289,-0.0469 0.12891,-0.0508 c 1.85937,-0.80077 1.99219,-2.37109 1.99219,-2.74609 0,-1.17186 -1.01172,-2.2617 -2.84766,-2.2617 v 0.58983 c 1.25,0 1.97266,0.76953 1.97266,1.67187 0,2.77344 -4.26172,2.77344 -5.35157,2.77344 h -1.09765 c 1.04297,-4.05078 3.78515,-4.44531 4.47656,-4.44531 v -0.58983 c -2.95703,0 -6.98047,2.58594 -6.98047,7.24608 0,2.71485 1.57422,4.82031 4.1836,4.82031 3.80468,0 6.04687,-2.82422 6.04687,-3.14454 0,-0.16014 -0.16016,-0.34764 -0.32031,-0.34764 -0.13672,0 -0.1875,0.0547 -0.34375,0.26952 -2.10547,2.63673 -5.00781,2.63673 -5.33203,2.63673 -2.07422,0 -2.3125,-2.23829 -2.3125,-3.09375 0,-0.32031 0.0273,-1.14063 0.42578,-2.76954 z m 0,0"
       id="path30-20"
       inkscape:connector-curvature="0" />
    <path
       style="fill:#000000;fill-opacity:1;fill-rule:nonzero;stroke:none;stroke-width:1"
       d="m 509.83715,139.60558 h 0.1836 l 0.0312,-0.008 h 0.0273 l 0.0312,-0.004 h 0.0312 l 0.0352,-0.004 0.0312,-0.008 0.0273,-0.0117 0.0312,-0.004 0.0312,-0.0117 0.0273,-0.004 0.0273,-0.0117 0.0273,-0.0156 0.0234,-0.0117 0.0234,-0.0156 0.0195,-0.0195 0.0273,-0.0156 0.0156,-0.0234 0.0117,-0.008 0.0117,-0.0117 0.004,-0.0156 0.0117,-0.0117 0.004,-0.0117 0.0117,-0.0156 0.004,-0.0156 0.008,-0.0117 0.008,-0.0312 0.008,-0.0156 v -0.0147 l 0.004,-0.0234 0.008,-0.0156 v -0.0352 l 0.004,-0.0234 v -0.0195 c 0,-0.46484 -0.42969,-0.46484 -0.75,-0.46484 h -11.10929 c -0.29688,0 -0.74219,0 -0.74219,0.44922 0,0.46484 0.42578,0.46484 0.74219,0.46484 z m 0,0"
       id="path32-2"
       inkscape:connector-curvature="0" />
    <path
       style="fill:#000000;fill-opacity:1;fill-rule:nonzero;stroke:none;stroke-width:1"
       d="m 648.12712,79.238281 -0.12109,0.195312 -0.1211,0.187499 -0.11328,0.171876 -0.12109,0.167969 -0.11719,0.160156 -0.12109,0.144531 -0.1211,0.148437 -0.11328,0.128907 -0.12109,0.125 -0.11719,0.117187 -0.12109,0.109376 -0.1211,0.101562 -0.12109,0.09375 -0.11719,0.08984 -0.12109,0.08203 -0.1211,0.07813 -0.12109,0.07031 -0.12109,0.0625 -0.24219,0.117186 -0.12891,0.04297 -0.12109,0.04687 -0.12109,0.03906 -0.12891,0.03516 -0.125,0.03516 -0.125,0.02344 -0.125,0.02734 -0.12891,0.01953 -0.2539,0.03125 -0.26563,0.02344 c -0.38281,0.02734 -0.66797,0.02734 -0.66797,0.632812 0,0.191407 0.16016,0.351563 0.41407,0.351563 h 5.92578 c 0.1914,0 0.59765,0 0.59765,-0.605469 0,-0.351562 -0.28125,-0.378906 -0.50781,-0.378906 -0.73047,-0.0625 -1.49609,-0.320312 -1.49609,-1.117188 0,-0.382812 0.1914,-0.730468 0.44531,-1.175781 l 2.42187,-4.078125 h 7.98829 l -0.0937,-0.984375 h -7.29297 l 6.27734,-10.503906 1.01563,10.503906 0.0937,0.984375 c 0.0664,0.671875 0.51171,5 0.51171,5.316406 0,0.953126 -1.65234,1.054688 -2.29296,1.054688 -0.44922,0 -0.76563,0 -0.76563,0.632812 0,0.351563 0.38281,0.351563 0.44531,0.351563 h 7.57813 c 0.19531,0 0.57031,0 0.57031,-0.636719 0,-0.347656 -0.3125,-0.347656 -0.72656,-0.347656 -1.97656,0 -1.97656,-0.222656 -2.07422,-1.148438 l -1.94141,-19.894529 c -0.0625,-0.640625 -0.0625,-0.769532 -0.60156,-0.769532 -0.51172,0 -0.63672,0.226563 -0.82812,0.546876 z m 0,0"
       id="path34-3"
       inkscape:connector-curvature="0" />
    <path
       style="fill:#000000;fill-opacity:1;fill-rule:nonzero;stroke:none;stroke-width:1"
       d="m 667.27556,74.980468 -0.008,0.03125 -0.004,0.03516 -0.008,0.02344 -0.008,0.02734 -0.004,0.02344 -0.008,0.02734 -0.004,0.02344 -0.008,0.01953 -0.008,0.02734 v 0.01953 l -0.004,0.01953 v 0.01563 l -0.008,0.01563 v 0.01953 l -0.008,0.01172 v 0.02344 l -0.004,0.01562 v 0.05078 l -0.008,0.0039 v 0.03906 c 0,0.488282 0.40235,0.710938 0.76172,0.710938 0.79687,0 0.97657,-0.734375 1.06641,-1.113281 0.043,-0.113281 0.49219,-1.898438 1.02733,-4.078125 0.69141,0.46875 1.57814,0.648437 2.38673,0.648437 1.91406,0 3.16015,-1.5625 3.20703,-1.605469 0.42187,1.535157 1.96093,1.605469 2.29297,1.605469 0.80078,0 1.36328,-0.492187 1.75781,-1.183593 0.49219,-0.871093 0.78516,-2.140626 0.78516,-2.222657 0,-0.296875 -0.29297,-0.296875 -0.35547,-0.296875 -0.3125,0 -0.33203,0.08984 -0.4922,0.691406 -0.26952,1.074219 -0.69139,2.382813 -1.62499,2.382813 -0.58203,0 -0.74219,-0.484375 -0.74219,-1.089844 0,-0.378905 0.1875,-1.179687 0.33984,-1.757812 0.15234,-0.601563 0.37892,-1.515625 0.48828,-2.007813 l 0.51564,-1.980468 c 0.1289,-0.558594 0.3789,-1.542969 0.3789,-1.648438 0,-0.449219 -0.35937,-0.71875 -0.73828,-0.71875 -0.24219,0 -0.66797,0.109375 -0.91406,0.539062 -0.0703,0.132813 -0.24219,0.84375 -0.35547,1.289063 l -0.46875,1.855469 -0.68751,2.777344 c -0.16015,0.5625 -0.16015,0.601562 -0.35937,0.894532 -0.69141,0.980468 -1.66797,1.847655 -2.93749,1.847655 -1.82813,0 -1.82813,-1.578125 -1.82813,-1.980468 0,-0.582032 0.0625,-0.867188 0.375,-2.070313 0.22266,-0.984375 0.26952,-1.136719 0.49218,-2.007813 l 0.31251,-1.25 c 0.10937,-0.46875 0.33203,-1.3125 0.33203,-1.402343 0,-0.402344 -0.3125,-0.714844 -0.75782,-0.714844 -0.80077,0 -0.99999,0.78125 -1.07031,1.046875 z m 0,0"
       id="path36-7"
       inkscape:connector-curvature="0" />
    <path
       style="fill:none;stroke:#000000;stroke-width:0.79999995;stroke-linecap:butt;stroke-linejoin:miter;stroke-miterlimit:4;stroke-opacity:1"
       d="m 560.98534,114.24109 c -8,-3.29297 -8,-4.46484 0,-7.75781 7.99999,-3.29297 7.99999,-4.46876 0,-7.761724 -8,-3.29297 -8,-4.46486 0,-7.75781 7.99999,-3.29298 7.99999,-4.46875 0,-7.76172 -8,-3.29298 -8,-4.46486 0,-7.75782 7.99999,-3.29688 7.99999,-4.46875 0,-7.76172 -8,-3.29297 -8,-4.46485 0,-7.76172 7.99999,-3.29297 7.99999,-4.46485 0,-7.75781 -8,-3.29297 -8,-4.46875 0,-7.76172 7.99999,-3.29297 7.99999,-4.46485 0,-7.75782 -8,-3.29296 -8,-4.46875 0,-7.76171 7.99999,-3.29297 7.99999,-4.46485 0,-7.75782 -8,-3.29297 -8,-4.46875 0,-7.76172"
       id="path2-7"
       inkscape:connector-curvature="0" />
    <path
       inkscape:transform-center-y="-18.002673"
       inkscape:transform-center-x="5.4553521"
       style="fill:none;stroke:#000000;stroke-width:0.75225002;stroke-linecap:butt;stroke-linejoin:miter;stroke-miterlimit:4;stroke-dasharray:none;stroke-opacity:1;marker-mid:url(#Arrow1Lstart-7-61)"
       d="m 636.37211,181.35273 -37.6953,-33.5562 -37.69147,-33.55544"
       id="path4-9"
       inkscape:connector-curvature="0" />
    <path
       inkscape:connector-curvature="0"
       id="path132-5"
       d="m 484.48532,181.35273 37.6953,-33.5562 37.69149,-33.55544"
       style="fill:none;stroke:#000000;stroke-width:0.75212198;stroke-linecap:butt;stroke-linejoin:miter;stroke-miterlimit:4;stroke-opacity:1;marker-mid:url(#marker5416)"
       inkscape:transform-center-x="5.4553521"
       inkscape:transform-center-y="18.002673" />
    <g
       id="g5675"
       transform="matrix(1.7598154,0,0,1.7598154,-45.196134,-258.03775)">
      <g
         word-spacing="normal"
         letter-spacing="normal"
         font-size-adjust="none"
         font-stretch="normal"
         font-weight="normal"
         font-variant="normal"
         font-style="normal"
         stroke-miterlimit="10.433"
         xml:space="preserve"
         transform="matrix(0.30575904,0,0,-0.30575904,-53.507832,270.30928)"
         id="content"
         style="font-style:normal;font-variant:normal;font-weight:normal;font-stretch:normal;letter-spacing:normal;word-spacing:normal;text-anchor:start;fill:none;fill-opacity:1;fill-rule:evenodd;stroke:#000000;stroke-linecap:butt;stroke-linejoin:miter;stroke-miterlimit:10.43299961;stroke-dasharray:none;stroke-dashoffset:0;stroke-opacity:1"><path
           id="path5636"
           d="m 760.82,439.48 v 0.02 l 0.01,0.02 0.01,0.04 0.01,0.04 0.01,0.05 0.01,0.04 0.01,0.05 0.01,0.05 0.01,0.05 0.01,0.05 0.01,0.05 0.01,0.05 0.01,0.05 0.01,0.05 v 0.04 l 0.01,0.05 v 0.03 0.02 c 0,0.5 -0.35,0.55 -0.6,0.55 -0.5,0 -0.54,-0.11 -0.75,-1 l -8.26,-32.94 c -3.78,0.45 -5.67,2.3 -5.67,5.59 0,0.99 0,2.28 2.68,9.27 0.21,0.59 0.55,1.44 0.55,2.44 0,2.23 -1.59,4.07 -4.09,4.07 -4.74,0 -6.58,-7.21 -6.58,-7.67 0,-0.5 0.5,-0.5 0.61,-0.5 0.5,0 0.55,0.11 0.8,0.91 1.34,4.73 3.32,6.17 5.03,6.17 0.39,0 1.25,0 1.25,-1.59 0,-1.3 -0.5,-2.53 -1.16,-4.28 -2.39,-6.29 -2.39,-7.58 -2.39,-8.43 0,-4.73 3.89,-6.78 8.67,-7.07 -0.4,-1.79 -0.4,-1.89 -1.09,-4.54 -0.16,-0.54 -1.16,-4.57 -1.16,-4.73 0,-0.05 0,-0.5 0.61,-0.5 0.09,0 0.34,0 0.44,0.2 0.15,0.1 0.45,1.35 0.61,2.05 l 1.89,7.42 c 1.84,0 6.22,0 10.9,5.33 2.05,2.3 3.1,4.48 3.65,5.98 0.45,1.24 1.54,5.58 1.54,7.77 0,2.8 -1.34,3.48 -2.2,3.48 -1.24,0 -2.49,-1.29 -2.49,-2.39 0,-0.64 0.3,-0.93 0.75,-1.34 0.55,-0.55 1.8,-1.84 1.8,-4.23 0,-3.19 -2.59,-7.27 -4.34,-9.07 -4.38,-4.43 -7.56,-4.43 -9.36,-4.43 z"
           inkscape:connector-curvature="0"
           style="fill:#000000;stroke-width:0" /><path
           id="path5638"
           d="m 820.89,422.84 v 0.1 l -0.01,0.1 v 0.09 l -0.01,0.09 v 0.09 l -0.01,0.08 -0.01,0.08 -0.02,0.08 -0.01,0.07 -0.01,0.07 -0.02,0.07 -0.02,0.07 -0.02,0.06 -0.02,0.05 -0.02,0.06 -0.02,0.05 -0.02,0.04 -0.03,0.05 -0.02,0.04 -0.03,0.04 -0.03,0.03 -0.03,0.03 -0.03,0.03 -0.03,0.03 -0.03,0.02 -0.03,0.02 -0.04,0.02 -0.03,0.01 -0.03,0.01 -0.04,0.01 h -0.03 -0.04 c -0.25,0 -0.66,-0.34 -0.7,-1.29 -0.21,-4.78 -3.49,-7.52 -6.99,-7.52 -3.12,0 -5.51,2.14 -7.97,4.28 -2.53,2.3 -5.12,4.58 -8.51,4.58 -5.44,0 -8.38,-5.48 -8.38,-10.02 0,-1.59 0.66,-1.59 0.7,-1.59 0.55,0 0.71,1 0.71,1.16 0.19,5.47 3.94,7.67 6.97,7.67 3.14,0 5.53,-2.14 7.97,-4.3 2.54,-2.28 5.14,-4.58 8.51,-4.58 5.44,0 8.38,5.49 8.38,10.02 z"
           inkscape:connector-curvature="0"
           style="fill:#000000;stroke-width:0" /><path
           id="path5640"
           d="m 843.01,417.71 0.04,1.05 c 0.3,7.42 4.49,8.66 6.19,8.66 5.13,0 5.63,-6.72 5.63,-8.66 h -11.82 l -0.04,-1.05 h 13.9 c 1.1,0 1.24,0 1.24,1.05 0,4.92 -2.69,9.75 -8.91,9.75 -5.78,0 -10.37,-5.12 -10.37,-11.36 0,-6.67 5.23,-11.5 10.97,-11.5 6.07,0 8.31,5.53 8.31,6.47 0,0.5 -0.39,0.61 -0.64,0.61 -0.46,0 -0.55,-0.3 -0.66,-0.7 -1.73,-5.13 -6.22,-5.13 -6.72,-5.13 -2.5,0 -4.48,1.49 -5.62,3.33 -1.5,2.39 -1.5,5.69 -1.5,7.48 z"
           inkscape:connector-curvature="0"
           style="fill:#000000;stroke-width:0" /><path
           id="path5642"
           d="m 875.82,432.07 h 10.66 c 0.45,0 1.28,0 1.28,0.85 0,0.86 -0.8,0.86 -1.28,0.86 h -10.66 v 10.7 c 0,0.45 0,1.28 -0.84,1.28 -0.88,0 -0.88,-0.8 -0.88,-1.28 v -10.7 h -10.69 c -0.45,0 -1.29,0 -1.29,-0.83 0,-0.88 0.79,-0.88 1.29,-0.88 h 10.69 v -10.7 c 0,-0.45 0,-1.28 0.85,-1.28 0.87,0 0.87,0.8 0.87,1.28 z"
           inkscape:connector-curvature="0"
           style="fill:#000000;stroke-width:0" /><path
           id="path5644"
           d="m 901.57,445.98 v 0.05 0.06 l -0.01,0.05 -0.01,0.05 -0.01,0.06 -0.01,0.06 -0.02,0.05 -0.02,0.06 -0.02,0.05 -0.02,0.06 -0.03,0.06 -0.03,0.05 -0.03,0.05 -0.04,0.06 -0.04,0.05 -0.04,0.05 -0.04,0.05 -0.05,0.05 -0.05,0.04 -0.05,0.04 -0.06,0.04 -0.06,0.04 -0.06,0.04 -0.07,0.03 -0.07,0.03 -0.07,0.02 -0.07,0.03 -0.08,0.01 -0.08,0.02 -0.08,0.01 -0.09,0.01 h -0.09 c -0.94,0 -1.95,-0.91 -1.95,-1.92 0,-0.6 0.45,-1.33 1.4,-1.33 1,0 1.95,0.98 1.95,1.92 z"
           inkscape:connector-curvature="0"
           style="fill:#000000;stroke-width:0" /><path
           id="path5646"
           d="m 894.47,428.28 -0.06,-0.17 -0.05,-0.17 -0.03,-0.08 -0.03,-0.09 -0.02,-0.09 -0.02,-0.08 -0.03,-0.09 -0.02,-0.1 -0.01,-0.09 -0.02,-0.1 -0.01,-0.09 -0.01,-0.05 v -0.06 -0.05 l -0.01,-0.05 v -0.06 -0.05 c 0,-1.64 1.39,-2.95 3.3,-2.95 3.48,0 5.03,4.79 5.03,5.32 0,0.46 -0.45,0.46 -0.56,0.46 -0.49,0 -0.53,-0.21 -0.67,-0.6 -0.8,-2.78 -2.33,-4.22 -3.69,-4.22 -0.71,0 -0.88,0.46 -0.88,1.22 0,0.8 0.25,1.47 0.57,2.24 0.34,0.93 0.73,1.87 1.1,2.78 0.32,0.84 1.58,4.01 1.72,4.44 0.1,0.34 0.21,0.76 0.21,1.11 0,1.64 -1.39,2.95 -3.31,2.95 -3.46,0 -5.05,-4.74 -5.05,-5.33 0,-0.45 0.48,-0.45 0.59,-0.45 0.49,0 0.52,0.17 0.63,0.56 0.9,3 2.43,4.25 3.71,4.25 0.57,0 0.88,-0.28 0.88,-1.22 0,-0.8 -0.2,-1.33 -1.08,-3.48 z"
           inkscape:connector-curvature="0"
           style="fill:#000000;stroke-width:0" /><path
           id="path5648"
           d="m 931.91,432.25 0.01,0.02 0.01,0.02 0.01,0.02 0.01,0.02 0.01,0.02 0.01,0.02 v 0.01 l 0.01,0.02 0.01,0.02 0.01,0.02 0.01,0.03 0.01,0.03 0.02,0.03 0.01,0.03 0.01,0.03 0.01,0.02 0.01,0.02 v 0.03 l 0.01,0.02 0.01,0.02 v 0.02 l 0.01,0.01 v 0.02 0.02 l 0.01,0.01 v 0.01 0.01 0.01 l 0.01,0.01 v 0.01 0.01 0.01 0 0.01 0 0.01 0 c 0,0.22 -0.14,0.5 -0.6,0.5 -0.07,0 -0.25,0 -0.38,-0.14 -0.07,-0.08 -0.12,-0.11 -0.52,-1.02 -2.27,-5.01 -4.05,-6.76 -9.73,-6.76 h -5.93 c -1.07,0 -1.11,0.05 -1.11,0.36 0,0.03 0,0.2 0.14,0.72 l 2.33,9.34 h 3.91 c 2.75,0 3.17,-0.45 3.17,-1.61 0,-0.37 -0.11,-0.97 -0.25,-1.56 -0.09,-0.31 -0.09,-0.34 -0.09,-0.42 0,-0.07 0.03,-0.49 0.59,-0.49 0.49,0 0.52,0.17 0.66,0.77 l 1.92,7.64 c 0.09,0.41 0.09,0.48 0.09,0.51 0,0.35 -0.26,0.49 -0.59,0.49 -0.46,0 -0.49,-0.17 -0.69,-0.91 -0.73,-2.72 -1.78,-3.17 -4.73,-3.17 h -3.67 l 2.09,8.3 c 0.28,1.08 0.31,1.19 1.78,1.19 h 5.67 c 4.58,0 5.72,-0.94 5.72,-4.05 0,-0.91 -0.14,-1.95 -0.14,-2.13 0,-0.28 0.11,-0.59 0.59,-0.59 0.54,0 0.57,0.31 0.63,0.91 l 0.62,6.06 c 0.11,1.05 -0.12,1.05 -1,1.05 h -19.17 c -0.69,0 -1.11,0 -1.11,-0.77 0,-0.48 0.38,-0.48 1.16,-0.48 0.54,0 0.69,0 1.31,-0.08 0.7,-0.07 0.77,-0.13 0.77,-0.49 0,-0.23 -0.1,-0.59 -0.14,-0.76 l -4.57,-18.22 c -0.34,-1.36 -0.37,-1.61 -3.09,-1.61 -0.62,0 -1.05,0 -1.05,-0.77 0,-0.48 0.43,-0.48 1.05,-0.48 h 19.69 c 0.86,0 0.9,0 1.19,0.62 z"
           inkscape:connector-curvature="0"
           style="fill:#000000;stroke-width:0" /><path
           id="path5650"
           d="m 944.09,437.96 h 3.55 c 0.66,0 1.11,0 1.11,0.77 0,0.48 -0.45,0.48 -1.03,0.48 h -3.31 l 1.28,5.16 c 0.03,0.17 0.11,0.34 0.11,0.49 0,0.64 -0.49,1.12 -1.19,1.12 -0.88,0 -1.39,-0.59 -1.64,-1.5 -0.24,-0.87 0.22,0.8 -1.33,-5.27 h -3.55 c -0.65,0 -1.11,0 -1.11,-0.76 0,-0.49 0.41,-0.49 1.05,-0.49 h 3.3 l -2.05,-8.21 c -0.22,-0.88 -0.53,-2.13 -0.53,-2.58 0,-2.06 1.75,-3.31 3.73,-3.31 3.88,0 6.07,4.87 6.07,5.32 0,0.46 -0.46,0.46 -0.57,0.46 -0.4,0 -0.45,-0.08 -0.71,-0.66 -0.99,-2.2 -2.77,-4.16 -4.68,-4.16 -0.73,0 -1.21,0.46 -1.21,1.71 0,0.36 0.14,1.09 0.2,1.43 z"
           inkscape:connector-curvature="0"
           style="fill:#000000;stroke-width:0" /><path
           id="path5652"
           d="m 1001.1,422.5 h 0.1 0.2 0.1 l 0.1,0.01 v 0 l 0.1,0.01 0.1,0.01 0.1,0.01 v 0.01 l 0.1,0.01 0.1,0.02 v 0.02 l 0.1,0.02 0.1,0.02 v 0.03 l 0.1,0.03 v 0.04 l 0.1,0.03 v 0.05 l 0.1,0.04 v 0.05 0.03 0.03 l 0.1,0.02 v 0.03 0.03 0.04 0.03 0.04 0.03 0.04 0.04 0.04 l 0.1,0.04 v 0.04 0.04 0.05 c 0,1 -1,1 -1.7,1 h -29.82 c -0.71,0 -1.64,0 -1.64,-1 0,-0.98 0.93,-0.98 1.68,-0.98 z"
           inkscape:connector-curvature="0"
           style="fill:#000000;stroke-width:0" /><path
           id="path5654"
           d="m 1001.1,412.82 h 0.1 0.1 l 0.1,0.01 h 0.1 0.1 l 0.1,0.01 v 0.01 h 0.1 l 0.1,0.01 v 0.02 l 0.1,0.01 0.1,0.02 v 0.02 l 0.1,0.02 0.1,0.02 V 413 l 0.1,0.03 v 0.04 l 0.1,0.04 v 0.04 l 0.1,0.05 v 0.02 0.03 0.02 0.03 l 0.1,0.03 v 0.03 0.03 0.03 0.04 0.03 0.04 0.04 0.04 0.04 l 0.1,0.04 v 0.04 0.05 0.04 c 0,1 -1,1 -1.7,1 h -29.78 c -0.75,0 -1.68,0 -1.68,-1 0,-1 0.93,-1 1.64,-1 z"
           inkscape:connector-curvature="0"
           style="fill:#000000;stroke-width:0" /><path
           id="path5656"
           d="m 1024.9,417.71 0.1,1.05 c 0.3,7.42 4.5,8.66 6.2,8.66 5.1,0 5.6,-6.72 5.6,-8.66 H 1025 l -0.1,-1.05 h 13.9 c 1.1,0 1.3,0 1.3,1.05 0,4.92 -2.7,9.75 -8.9,9.75 -5.8,0 -10.4,-5.12 -10.4,-11.36 0,-6.67 5.2,-11.5 11,-11.5 6,0 8.3,5.53 8.3,6.47 0,0.5 -0.4,0.61 -0.7,0.61 -0.4,0 -0.5,-0.3 -0.6,-0.7 -1.8,-5.13 -6.2,-5.13 -6.7,-5.13 -2.5,0 -4.5,1.49 -5.7,3.33 -1.5,2.39 -1.5,5.69 -1.5,7.48 z"
           inkscape:connector-curvature="0"
           style="fill:#000000;stroke-width:0" /><path
           id="path5658"
           d="m 1067.5,432.07 h 0.1 v 0 l 0.1,0.01 h 0.2 v 0 l 0.1,0.01 v 0 l 0.1,0.01 0.1,0.01 v 0.01 l 0.1,0.01 v 0.01 l 0.1,0.02 v 0.02 l 0.1,0.02 v 0.02 l 0.1,0.03 v 0.03 l 0.1,0.03 v 0.04 0.04 l 0.1,0.02 v 0.02 0.02 0.03 0.02 0.03 0.02 l 0.1,0.03 v 0.03 0.03 0.03 0.03 0.04 0.03 0.03 0.04 0.04 0.04 c 0,0.86 -0.8,0.86 -1.4,0.86 h -20.7 c -0.6,0 -1.4,0 -1.4,-0.83 0,-0.88 0.8,-0.88 1.4,-0.88 z"
           inkscape:connector-curvature="0"
           style="fill:#000000;stroke-width:0" /><path
           id="path5660"
           d="m 1084,445.98 v 0.05 0.06 0.05 0.05 l -0.1,0.06 v 0.06 0.05 0.06 0.05 0.06 l -0.1,0.06 v 0.05 0.05 l -0.1,0.06 v 0.05 l -0.1,0.05 v 0.05 0.05 l -0.1,0.04 -0.1,0.04 v 0.04 l -0.1,0.04 v 0.04 l -0.1,0.03 -0.1,0.03 v 0.02 l -0.1,0.03 -0.1,0.01 -0.1,0.02 -0.1,0.01 v 0.01 h -0.1 c -1,0 -2,-0.91 -2,-1.92 0,-0.6 0.5,-1.33 1.4,-1.33 1,0 2,0.98 2,1.92 z"
           inkscape:connector-curvature="0"
           style="fill:#000000;stroke-width:0" /><path
           id="path5662"
           d="m 1076.9,428.28 -0.1,-0.09 v -0.08 -0.17 l -0.1,-0.08 v -0.09 -0.09 -0.08 l -0.1,-0.09 v -0.1 -0.09 -0.1 -0.09 -0.05 -0.06 -0.05 -0.05 -0.06 -0.05 c 0,-1.64 1.3,-2.95 3.2,-2.95 3.5,0 5.1,4.79 5.1,5.32 0,0.46 -0.5,0.46 -0.6,0.46 -0.5,0 -0.5,-0.21 -0.6,-0.6 -0.9,-2.78 -2.4,-4.22 -3.7,-4.22 -0.7,0 -0.9,0.46 -0.9,1.22 0,0.8 0.2,1.47 0.6,2.24 0.3,0.93 0.7,1.87 1.1,2.78 0.3,0.84 1.5,4.01 1.7,4.44 0.1,0.34 0.2,0.76 0.2,1.11 0,1.64 -1.4,2.95 -3.3,2.95 -3.5,0 -5.1,-4.74 -5.1,-5.33 0,-0.45 0.5,-0.45 0.6,-0.45 0.5,0 0.5,0.17 0.6,0.56 0.9,3 2.5,4.25 3.8,4.25 0.5,0 0.8,-0.28 0.8,-1.22 0,-0.8 -0.2,-1.33 -1,-3.48 z"
           inkscape:connector-curvature="0"
           style="fill:#000000;stroke-width:0" /><path
           id="path5664"
           d="m 1114.3,432.25 v 0.02 0.02 0.02 0.02 l 0.1,0.02 v 0.02 0.01 0.02 0.02 0.02 0.03 0.03 0.03 0.03 l 0.1,0.03 v 0.02 0.02 0.03 0.02 0.02 0.02 0.01 0.02 0.02 0.01 0.01 0.01 0.01 0.01 0.01 0.01 0.01 0 0.01 0 0.01 0 c 0,0.22 -0.1,0.5 -0.6,0.5 0,0 -0.2,0 -0.3,-0.14 -0.1,-0.08 -0.2,-0.11 -0.6,-1.02 -2.2,-5.01 -4,-6.76 -9.7,-6.76 h -5.9 c -1.1,0 -1.1,0.05 -1.1,0.36 0,0.03 0,0.2 0.1,0.72 l 2.3,9.34 h 3.9 c 2.8,0 3.2,-0.45 3.2,-1.61 0,-0.37 -0.1,-0.97 -0.2,-1.56 -0.1,-0.31 -0.1,-0.34 -0.1,-0.42 0,-0.07 0,-0.49 0.6,-0.49 0.5,0 0.5,0.17 0.6,0.77 l 1.9,7.64 c 0.1,0.41 0.1,0.48 0.1,0.51 0,0.35 -0.2,0.49 -0.6,0.49 -0.4,0 -0.4,-0.17 -0.7,-0.91 -0.7,-2.72 -1.7,-3.17 -4.7,-3.17 h -3.6 l 2,8.3 c 0.3,1.08 0.3,1.19 1.8,1.19 h 5.7 c 4.6,0 5.7,-0.94 5.7,-4.05 0,-0.91 -0.1,-1.95 -0.1,-2.13 0,-0.28 0.1,-0.59 0.6,-0.59 0.5,0 0.5,0.31 0.6,0.91 l 0.6,6.06 c 0.1,1.05 -0.1,1.05 -1,1.05 h -19.2 c -0.6,0 -1.1,0 -1.1,-0.77 0,-0.48 0.4,-0.48 1.2,-0.48 0.5,0 0.7,0 1.3,-0.08 0.7,-0.07 0.8,-0.13 0.8,-0.49 0,-0.23 -0.1,-0.59 -0.2,-0.76 l -4.5,-18.22 c -0.4,-1.36 -0.4,-1.61 -3.1,-1.61 -0.6,0 -1.1,0 -1.1,-0.77 0,-0.48 0.5,-0.48 1.1,-0.48 h 19.7 c 0.8,0 0.9,0 1.2,0.62 z"
           inkscape:connector-curvature="0"
           style="fill:#000000;stroke-width:0" /><path
           id="path5666"
           d="m 1130.3,450.34 -0.6,-0.45 -0.6,-0.46 -0.5,-0.47 -0.6,-0.49 -0.5,-0.5 -0.4,-0.51 -0.5,-0.53 -0.4,-0.53 -0.4,-0.54 -0.4,-0.55 -0.3,-0.56 -0.4,-0.56 -0.3,-0.57 -0.3,-0.57 -0.2,-0.58 -0.3,-0.58 -0.2,-0.58 -0.2,-0.58 -0.2,-0.59 -0.2,-0.58 -0.1,-0.58 -0.2,-0.58 -0.1,-0.57 -0.1,-0.57 -0.1,-0.57 -0.1,-0.56 v -0.55 l -0.1,-0.55 v -0.53 l -0.1,-0.53 v -0.52 -0.5 c 0,-4.92 1.5,-12.55 8.4,-17.42 0.3,0 0.7,0 0.7,0.4 0,0.22 -0.1,0.28 -0.4,0.53 -4.6,4.19 -6.3,10.11 -6.3,16.46 0,9.4 3.6,14 6.4,16.58 0.2,0.14 0.3,0.25 0.3,0.42 0,0.42 -0.4,0.42 -0.7,0.42 z"
           inkscape:connector-curvature="0"
           style="fill:#000000;stroke-width:0" /><path
           id="path5668"
           d="m 1159.4,432.07 h 0.1 v 0 l 0.2,0.01 h 0.1 v 0 l 0.1,0.01 v 0 l 0.1,0.01 0.1,0.01 v 0.01 l 0.1,0.01 v 0.01 l 0.1,0.02 v 0.02 l 0.1,0.02 v 0.02 l 0.1,0.03 v 0.03 l 0.1,0.03 v 0.04 0.04 l 0.1,0.02 v 0.02 0.02 0.03 0.02 0.03 l 0.1,0.02 v 0.03 0.03 0.03 0.03 0.03 0.04 0.03 0.03 0.04 0.04 0.04 c 0,0.86 -0.8,0.86 -1.4,0.86 h -20.7 c -0.6,0 -1.4,0 -1.4,-0.83 0,-0.88 0.8,-0.88 1.4,-0.88 z"
           inkscape:connector-curvature="0"
           style="fill:#000000;stroke-width:0" /><path
           id="path5670"
           d="m 1173.2,437.96 h 3.5 c 0.7,0 1.1,0 1.1,0.77 0,0.48 -0.4,0.48 -1,0.48 h -3.3 l 1.3,5.16 c 0,0.17 0.1,0.34 0.1,0.49 0,0.64 -0.5,1.12 -1.2,1.12 -0.9,0 -1.4,-0.59 -1.7,-1.5 -0.2,-0.87 0.3,0.8 -1.3,-5.27 h -3.5 c -0.7,0 -1.1,0 -1.1,-0.76 0,-0.49 0.4,-0.49 1,-0.49 h 3.3 l -2,-8.21 c -0.3,-0.88 -0.6,-2.13 -0.6,-2.58 0,-2.06 1.8,-3.31 3.8,-3.31 3.8,0 6,4.87 6,5.32 0,0.46 -0.4,0.46 -0.5,0.46 -0.4,0 -0.5,-0.08 -0.8,-0.66 -0.9,-2.2 -2.7,-4.16 -4.6,-4.16 -0.8,0 -1.3,0.46 -1.3,1.71 0,0.36 0.2,1.09 0.3,1.43 z"
           inkscape:connector-curvature="0"
           style="fill:#000000;stroke-width:0" /><path
           id="path5672"
           d="m 1182.7,450.34 v 0 0 0 h -0.1 v 0 0 h -0.1 v -0.01 0 0 l -0.1,-0.01 v 0 -0.01 -0.01 h -0.1 v -0.01 -0.01 -0.02 l -0.1,-0.01 v -0.01 -0.02 -0.02 l -0.1,-0.02 v -0.01 -0.01 -0.01 -0.01 -0.01 -0.02 -0.01 -0.01 -0.02 -0.01 -0.02 -0.01 -0.02 -0.02 -0.02 -0.01 -0.02 -0.02 c 0,-0.17 0.1,-0.28 0.3,-0.53 3,-2.75 6.3,-7.46 6.3,-16.44 0,-7.28 -2.3,-12.8 -6,-16.2 -0.6,-0.6 -0.6,-0.63 -0.6,-0.82 0,-0.17 0.1,-0.4 0.4,-0.4 0.4,0 3.7,2.29 6,6.65 1.6,2.89 2.6,6.66 2.6,10.74 0,4.9 -1.5,12.53 -8.4,17.42 z"
           inkscape:connector-curvature="0"
           style="fill:#000000;stroke-width:0" /></g>    </g>
    <g
       id="g5844"
       transform="translate(-327.93812,16.06465)">
      <path
         style="font-style:normal;font-variant:normal;font-weight:normal;font-stretch:normal;letter-spacing:normal;word-spacing:normal;text-anchor:start;fill:#000000;fill-opacity:1;fill-rule:evenodd;stroke:#000000;stroke-width:0;stroke-linecap:butt;stroke-linejoin:miter;stroke-miterlimit:10.43299961;stroke-dasharray:none;stroke-dashoffset:0;stroke-opacity:1"
         inkscape:connector-curvature="0"
         d="m 430.16131,-35.550395 v -0.01076 l 0.005,-0.01076 0.005,-0.02152 0.005,-0.02152 0.005,-0.0269 0.005,-0.02152 0.005,-0.0269 0.005,-0.0269 0.005,-0.0269 0.005,-0.0269 0.005,-0.0269 0.005,-0.0269 0.005,-0.0269 0.005,-0.0269 v -0.02152 l 0.005,-0.0269 v -0.01614 -0.01076 c 0,-0.269039 -0.18833,-0.295943 -0.32285,-0.295943 -0.26904,0 -0.29057,0.05919 -0.40356,0.538079 l -4.44481,17.724338 c -2.03394,-0.242135 -3.05091,-1.237583 -3.05091,-3.007864 0,-0.532699 0,-1.226821 1.44206,-4.987997 0.11299,-0.317467 0.29594,-0.774834 0.29594,-1.312914 0,-1.199917 -0.85555,-2.189983 -2.20075,-2.189983 -2.55049,0 -3.54056,3.879553 -3.54056,4.127069 0,0.26904 0.26904,0.26904 0.32823,0.26904 0.26904,0 0.29594,-0.05919 0.43046,-0.489652 0.72103,-2.545116 1.78643,-3.31995 2.70654,-3.31995 0.20985,0 0.6726,0 0.6726,0.855546 0,0.699503 -0.26904,1.361341 -0.62417,2.30298 -1.28601,3.38452 -1.28601,4.078642 -1.28601,4.53601 0,2.545116 2.09313,3.648179 4.66515,3.804222 -0.21523,0.963162 -0.21523,1.01697 -0.58651,2.44288 -0.0861,0.290564 -0.62417,2.459024 -0.62417,2.545116 0,0.0269 0,0.26904 0.32823,0.26904 0.0484,0 0.18295,0 0.23675,-0.107616 0.0807,-0.0538 0.24214,-0.726407 0.32823,-1.103063 l 1.01697,-3.992549 c 0.99007,0 3.34686,0 5.86507,-2.867964 1.10306,-1.237583 1.66804,-2.410596 1.96399,-3.217715 0.24213,-0.667219 0.82864,-3.002483 0.82864,-4.180877 0,-1.506623 -0.72103,-1.872517 -1.18377,-1.872517 -0.66722,0 -1.33982,0.694123 -1.33982,1.28601 0,0.344371 0.16142,0.500413 0.40356,0.721026 0.29594,0.295944 0.96854,0.990067 0.96854,2.276077 0,1.716473 -1.39362,3.911837 -2.33526,4.88038 -2.35679,2.383692 -4.06788,2.383692 -5.03643,2.383692 z"
         id="path5620" />
      <path
         style="font-style:normal;font-variant:normal;font-weight:normal;font-stretch:normal;letter-spacing:normal;word-spacing:normal;text-anchor:start;fill:#000000;fill-opacity:1;fill-rule:evenodd;stroke:#000000;stroke-width:0;stroke-linecap:butt;stroke-linejoin:miter;stroke-miterlimit:10.43299961;stroke-dasharray:none;stroke-dashoffset:0;stroke-opacity:1"
         inkscape:connector-curvature="0"
         d="m 462.48374,-26.596752 v -0.05381 l -0.005,-0.05381 v -0.04843 l -0.005,-0.04843 v -0.04843 l -0.005,-0.04304 -0.005,-0.04304 -0.0108,-0.04304 -0.005,-0.03767 -0.005,-0.03766 -0.0108,-0.03767 -0.0108,-0.03767 -0.0108,-0.03229 -0.0108,-0.0269 -0.0108,-0.03229 -0.0108,-0.0269 -0.0108,-0.02152 -0.0161,-0.0269 -0.0108,-0.02153 -0.0161,-0.02152 -0.0161,-0.01614 -0.0161,-0.01614 -0.0161,-0.01614 -0.0161,-0.01614 -0.0161,-0.01076 -0.0161,-0.01076 -0.0215,-0.01076 -0.0161,-0.0054 -0.0161,-0.0054 -0.0215,-0.0054 h -0.0161 -0.0215 c -0.13452,0 -0.35513,0.182947 -0.37666,0.694122 -0.11299,2.57202 -1.87789,4.046358 -3.76117,4.046358 -1.67881,0 -2.96482,-1.15149 -4.2885,-2.30298 -1.36134,-1.237583 -2.75496,-2.464404 -4.57905,-2.464404 -2.92715,0 -4.50911,2.948676 -4.50911,5.391556 0,0.855546 0.35513,0.855546 0.37666,0.855546 0.29594,0 0.38203,-0.538079 0.38203,-0.624171 0.10224,-2.943295 2.12004,-4.12707 3.75042,-4.12707 1.68957,0 2.97558,1.15149 4.28849,2.313742 1.36672,1.226821 2.76573,2.464403 4.57906,2.464403 2.92715,0 4.5091,-2.954055 4.5091,-5.391556 z"
         id="path5622" />
      <path
         style="font-style:normal;font-variant:normal;font-weight:normal;font-stretch:normal;letter-spacing:normal;word-spacing:normal;text-anchor:start;fill:#000000;fill-opacity:1;fill-rule:evenodd;stroke:#000000;stroke-width:0;stroke-linecap:butt;stroke-linejoin:miter;stroke-miterlimit:10.43299961;stroke-dasharray:none;stroke-dashoffset:0;stroke-opacity:1"
         inkscape:connector-curvature="0"
         d="m 474.38606,-23.836405 0.0215,-0.564983 c 0.16142,-3.99255 2.41597,-4.659768 3.33071,-4.659768 2.76035,0 3.02939,3.615894 3.02939,4.659768 h -6.36011 l -0.0215,0.564983 h 7.47931 c 0.59189,0 0.66722,0 0.66722,-0.564983 0,-2.647351 -1.44744,-5.246275 -4.79429,-5.246275 -3.1101,0 -5.57988,2.754967 -5.57988,6.112583 0,3.58899 2.81415,6.187914 5.90273,6.187914 3.26614,0 4.47144,-2.97558 4.47144,-3.481374 0,-0.26904 -0.20985,-0.328229 -0.34437,-0.328229 -0.24752,0 -0.29595,0.161424 -0.35514,0.376655 -0.93087,2.760348 -3.34685,2.760348 -3.61589,2.760348 -1.3452,0 -2.4106,-0.801738 -3.02401,-1.791804 -0.80712,-1.28601 -0.80712,-3.061672 -0.80712,-4.024835 z"
         id="path5624" />
      <path
         style="font-style:normal;font-variant:normal;font-weight:normal;font-stretch:normal;letter-spacing:normal;word-spacing:normal;text-anchor:start;fill:#000000;fill-opacity:1;fill-rule:evenodd;stroke:#000000;stroke-width:0;stroke-linecap:butt;stroke-linejoin:miter;stroke-miterlimit:10.43299961;stroke-dasharray:none;stroke-dashoffset:0;stroke-opacity:1"
         inkscape:connector-curvature="0"
         d="m 497.23829,-31.563226 h 0.0269 0.0323 l 0.0592,-0.0054 h 0.0646 0.0323 l 0.0269,-0.0054 h 0.0322 l 0.0323,-0.0054 0.0323,-0.0054 0.0322,-0.0054 0.0269,-0.0054 0.0323,-0.0054 0.0269,-0.01076 0.0322,-0.01076 0.0269,-0.01076 0.0269,-0.01076 0.0215,-0.01614 0.0269,-0.01614 0.0215,-0.01614 0.0215,-0.02153 0.0215,-0.02153 0.0107,-0.01076 0.005,-0.01076 0.0107,-0.01076 0.005,-0.01614 0.0108,-0.01076 0.005,-0.01614 0.005,-0.01076 0.005,-0.01614 0.005,-0.01614 0.005,-0.01614 0.005,-0.01614 0.005,-0.01614 0.005,-0.02153 v -0.01614 l 0.005,-0.01614 v -0.02153 -0.02153 -0.02153 c 0,-0.462749 -0.43046,-0.462749 -0.74793,-0.462749 h -11.16941 c -0.3067,0 -0.75331,0 -0.75331,0.446607 0,0.473509 0.43046,0.473509 0.75331,0.473509 z"
         id="path5626" />
      <path
         style="font-style:normal;font-variant:normal;font-weight:normal;font-stretch:normal;letter-spacing:normal;word-spacing:normal;text-anchor:start;fill:#000000;fill-opacity:1;fill-rule:evenodd;stroke:#000000;stroke-width:0;stroke-linecap:butt;stroke-linejoin:miter;stroke-miterlimit:10.43299961;stroke-dasharray:none;stroke-dashoffset:0;stroke-opacity:1"
         inkscape:connector-curvature="0"
         d="m 506.0897,-39.047911 v -0.0269 -0.03229 l -0.005,-0.0269 -0.005,-0.0269 -0.005,-0.03228 -0.005,-0.03228 -0.0108,-0.0269 -0.0107,-0.03228 -0.0108,-0.0269 -0.0107,-0.03229 -0.0161,-0.03229 -0.0161,-0.0269 -0.0161,-0.0269 -0.0215,-0.03229 -0.0215,-0.0269 -0.0215,-0.0269 -0.0215,-0.0269 -0.0269,-0.0269 -0.0269,-0.02152 -0.0269,-0.02152 -0.0322,-0.02152 -0.0323,-0.02152 -0.0322,-0.02152 -0.0376,-0.01614 -0.0377,-0.01614 -0.0376,-0.01076 -0.0376,-0.01614 -0.043,-0.0054 -0.043,-0.01076 -0.043,-0.0054 -0.0485,-0.0054 h -0.0485 c -0.50579,0 -1.05463,0.489653 -1.05463,1.033113 0,0.322848 0.24751,0.715646 0.75869,0.715646 0.53808,0 1.04925,-0.527318 1.04925,-1.033113 z"
         id="path5628" />
      <path
         style="font-style:normal;font-variant:normal;font-weight:normal;font-stretch:normal;letter-spacing:normal;word-spacing:normal;text-anchor:start;fill:#000000;fill-opacity:1;fill-rule:evenodd;stroke:#000000;stroke-width:0;stroke-linecap:butt;stroke-linejoin:miter;stroke-miterlimit:10.43299961;stroke-dasharray:none;stroke-dashoffset:0;stroke-opacity:1"
         inkscape:connector-curvature="0"
         d="m 502.26395,-29.523905 -0.0269,0.09147 -0.0269,0.09147 -0.0161,0.04304 -0.0161,0.04843 -0.0108,0.04843 -0.0107,0.04304 -0.0161,0.04843 -0.0107,0.05381 -0.005,0.04843 -0.0107,0.05381 -0.005,0.04843 -0.005,0.0269 v 0.03229 0.0269 l -0.005,0.0269 v 0.03229 0.0269 c 0,0.88245 0.74793,1.587335 1.77566,1.587335 1.87252,0 2.70654,-2.577401 2.70654,-2.862583 0,-0.247517 -0.24213,-0.247517 -0.30132,-0.247517 -0.26366,0 -0.28518,0.112997 -0.3659,0.322848 -0.42508,1.495861 -1.24834,2.270695 -1.98013,2.270695 -0.37665,0 -0.47351,-0.247516 -0.47351,-0.656457 0,-0.430463 0.13452,-0.790976 0.30132,-1.205298 0.18834,-0.500413 0.39819,-1.006208 0.60265,-1.495861 0.16681,-0.451986 0.84479,-2.157698 0.92012,-2.389072 0.0538,-0.182947 0.113,-0.408941 0.113,-0.597269 0,-0.88245 -0.74793,-1.587334 -1.78643,-1.587334 -1.85637,0 -2.71191,2.550497 -2.71191,2.867963 0,0.242136 0.25827,0.242136 0.31746,0.242136 0.25828,0 0.2798,-0.09147 0.33899,-0.301324 0.48427,-1.614239 1.30753,-2.286838 2.00166,-2.286838 0.30132,0 0.46813,0.150662 0.46813,0.656457 0,0.430464 -0.10762,0.715646 -0.58113,1.872517 z"
         id="path5630" />
      <path
         style="font-style:normal;font-variant:normal;font-weight:normal;font-stretch:normal;letter-spacing:normal;word-spacing:normal;text-anchor:start;fill:#000000;fill-opacity:1;fill-rule:evenodd;stroke:#000000;stroke-width:0;stroke-linecap:butt;stroke-linejoin:miter;stroke-miterlimit:10.43299961;stroke-dasharray:none;stroke-dashoffset:0;stroke-opacity:1"
         inkscape:connector-curvature="0"
         d="m 522.41503,-31.66008 0.005,-0.01076 0.005,-0.01076 0.005,-0.01076 0.005,-0.01076 0.005,-0.01076 0.005,-0.01076 v -0.0054 l 0.005,-0.01076 0.005,-0.01076 0.005,-0.01076 0.005,-0.01614 0.005,-0.01614 0.0108,-0.01614 0.005,-0.01614 0.005,-0.01614 0.005,-0.01076 v -0.01075 l 0.005,-0.01614 0.005,-0.01076 0.005,-0.01076 v -0.01076 l 0.005,-0.0054 v -0.01076 -0.01076 l 0.005,-0.0054 v -0.0054 -0.0054 -0.0054 -0.0054 l 0.005,-0.0054 v -0.0054 -0.0054 0 -0.0054 0 -0.0054 0 c 0,-0.118378 -0.0753,-0.269041 -0.31747,-0.269041 -0.0431,0 -0.13452,0 -0.21523,0.07533 -0.0323,0.04305 -0.0538,0.05919 -0.27442,0.548842 -1.22144,2.695778 -2.17922,3.637416 -5.2409,3.637416 h -3.18543 c -0.58112,0 -0.59727,-0.0269 -0.59727,-0.193708 0,-0.01614 0,-0.107616 0.0753,-0.387417 l 1.25373,-5.025662 h 2.1039 c 1.47971,0 1.70571,0.242135 1.70571,0.866308 0,0.199089 -0.0592,0.521937 -0.13452,0.839404 -0.0485,0.166804 -0.0485,0.182947 -0.0485,0.225993 0,0.03767 0.0161,0.263659 0.31746,0.263659 0.25828,0 0.27442,-0.09147 0.35514,-0.414321 l 1.03311,-4.110927 c 0.0485,-0.220613 0.0485,-0.258279 0.0485,-0.274421 0,-0.188328 -0.1399,-0.263659 -0.31747,-0.263659 -0.24214,0 -0.26366,0.09147 -0.37127,0.489652 -0.3928,1.463576 -0.95778,1.705712 -2.54512,1.705712 h -1.98014 l 1.12998,-4.466059 c 0.15066,-0.581126 0.1668,-0.640315 0.95778,-0.640315 h 3.05091 c 2.4644,0 3.07781,0.505795 3.07781,2.179222 0,0.489652 -0.0753,1.049255 -0.0753,1.146109 0,0.150662 0.0592,0.317467 0.31747,0.317467 0.28518,0 0.30132,-0.166805 0.33899,-0.489652 l 0.33361,-3.260762 c 0.0667,-0.564763 -0.0571,-0.564763 -0.53058,-0.564763 H 512.4767 c -0.37127,0 -0.59727,0 -0.59727,0.414322 0,0.258278 0.20448,0.258278 0.62418,0.258278 0.29594,0 0.36589,0 0.70488,0.04305 0.37665,0.03766 0.41432,0.06995 0.41432,0.263659 0,0.123758 -0.0538,0.317467 -0.0807,0.40894 l -2.45364,9.803808 c -0.18295,0.731789 -0.19909,0.866308 -1.66267,0.866308 -0.33899,0 -0.56498,0 -0.56498,0.414322 0,0.258277 0.22599,0.258277 0.56498,0.258277 h 10.59479 c 0.46274,0 0.48427,0 0.63493,-0.333609 z"
         id="path5632" />
      <path
         style="font-style:normal;font-variant:normal;font-weight:normal;font-stretch:normal;letter-spacing:normal;word-spacing:normal;text-anchor:start;fill:#000000;fill-opacity:1;fill-rule:evenodd;stroke:#000000;stroke-width:0;stroke-linecap:butt;stroke-linejoin:miter;stroke-miterlimit:10.43299961;stroke-dasharray:none;stroke-dashoffset:0;stroke-opacity:1"
         inkscape:connector-curvature="0"
         d="m 528.96884,-34.732514 h 1.91018 c 0.35513,0 0.59727,0 0.59727,-0.414321 0,-0.258278 -0.24214,-0.258278 -0.55422,-0.258278 h -1.78105 l 0.68875,-2.77649 c 0.0161,-0.09147 0.0592,-0.182947 0.0592,-0.263659 0,-0.344371 -0.26365,-0.602649 -0.64031,-0.602649 -0.47351,0 -0.74793,0.317467 -0.88245,0.807119 -0.12914,0.468129 0.11838,-0.430464 -0.71564,2.835679 h -1.91018 c -0.34976,0 -0.59727,0 -0.59727,0.40894 0,0.263659 0.22061,0.263659 0.56498,0.263659 h 1.77566 l -1.10306,4.417633 c -0.11838,0.473509 -0.28518,1.146109 -0.28518,1.388245 0,1.108443 0.94164,1.781043 2.00704,1.781043 2.08774,0 3.26613,-2.620447 3.26613,-2.862583 0,-0.247517 -0.24751,-0.247517 -0.3067,-0.247517 -0.21523,0 -0.24214,0.04304 -0.38742,0.355133 -0.52732,1.183774 -1.4851,2.23841 -2.51283,2.23841 -0.3928,0 -0.65645,-0.247516 -0.65645,-0.920116 0,-0.193708 0.0807,-0.586506 0.11299,-0.769453 z"
         id="path5634" />
    </g>
    <g
       id="g6035"
       transform="translate(146.08716,111.78319)">
      <path
         id="path6031"
         d="m 500.40677,40.199735 0.0753,-0.0054 h 0.0861 0.0915 0.0915 l 0.10223,-0.0054 h 0.10762 l 0.11299,-0.0054 0.11838,-0.0054 0.11838,-0.0054 0.12376,-0.0054 0.12914,-0.0054 0.13452,-0.01076 0.13452,-0.01076 0.13452,-0.01076 0.28518,-0.0269 0.28518,-0.03766 0.29594,-0.03767 0.29057,-0.05381 0.29056,-0.05919 0.29056,-0.06457 0.1399,-0.03767 0.1399,-0.04305 0.13452,-0.04304 0.13452,-0.04304 0.12914,-0.04843 0.12914,-0.05381 c 1.87252,-0.806995 2.00704,-2.383568 2.00704,-2.754843 0,-1.183775 -1.01697,-2.276075 -2.86796,-2.276075 v 0.586505 c 1.26448,0 1.98551,0.774835 1.98551,1.68957 0,2.781871 -4.28849,2.781871 -5.38618,2.781871 h -1.10306 c 1.04926,-4.067876 3.8096,-4.471436 4.50373,-4.471436 v -0.586505 c -2.97558,0 -7.01656,2.593542 -7.01656,7.285595 0,2.733444 1.57657,4.853476 4.2024,4.853476 3.83113,0 6.08568,-2.841059 6.08568,-3.163906 0,-0.156044 -0.16143,-0.349752 -0.31747,-0.349752 -0.13452,0 -0.18833,0.05919 -0.35513,0.26904 -2.12003,2.652731 -5.03642,2.652731 -5.35389,2.652731 -2.09313,0 -2.34065,-2.249172 -2.34065,-3.110099 0,-0.317467 0.0269,-1.15149 0.43047,-2.787252 z"
         inkscape:connector-curvature="0"
         style="font-style:normal;font-variant:normal;font-weight:normal;font-stretch:normal;letter-spacing:normal;word-spacing:normal;text-anchor:start;fill:#000000;fill-opacity:1;fill-rule:evenodd;stroke:#000000;stroke-width:0;stroke-linecap:butt;stroke-linejoin:miter;stroke-miterlimit:10.43299961;stroke-dasharray:none;stroke-dashoffset:0;stroke-opacity:1" />
      <path
         id="path6033"
         d="m 516.54377,32.472915 h 5.73593 c 0.24213,0 0.68874,0 0.68874,-0.457368 0,-0.462748 -0.43047,-0.462748 -0.68874,-0.462748 h -5.73593 v -5.757451 c 0,-0.242135 0,-0.688741 -0.45199,-0.688741 -0.47351,0 -0.47351,0.430463 -0.47351,0.688741 v 5.757451 h -5.75207 c -0.24213,0 -0.69412,0 -0.69412,0.446606 0,0.47351 0.42508,0.47351 0.69412,0.47351 h 5.75207 v 5.757449 c 0,0.242136 0,0.688742 0.45737,0.688742 0.46813,0 0.46813,-0.430463 0.46813,-0.688742 z"
         inkscape:connector-curvature="0"
         style="font-style:normal;font-variant:normal;font-weight:normal;font-stretch:normal;letter-spacing:normal;word-spacing:normal;text-anchor:start;fill:#000000;fill-opacity:1;fill-rule:evenodd;stroke:#000000;stroke-width:0;stroke-linecap:butt;stroke-linejoin:miter;stroke-miterlimit:10.43299961;stroke-dasharray:none;stroke-dashoffset:0;stroke-opacity:1" />
    </g>
  </g>
  <g
     style="display:none"
     inkscape:label="vertex"
     id="layer3"
     inkscape:groupmode="layer"
     transform="translate(0,24.662024)">
    <path
       style="fill:#000000;fill-opacity:1;fill-rule:nonzero;stroke:none;stroke-width:1"
       d="m 272.24274,97.851563 h 0.24218 l 0.043,-0.0078 h 0.043 l 0.0352,-0.0039 0.0391,-0.0039 0.0391,-0.0078 0.0703,-0.0078 0.0352,-0.01172 0.0312,-0.0078 0.0391,-0.01172 0.0547,-0.02734 0.0312,-0.01953 0.0273,-0.01563 0.0234,-0.01953 0.0273,-0.02344 0.0195,-0.02344 0.0234,-0.02734 0.004,-0.0078 0.0117,-0.01563 0.0234,-0.04687 0.008,-0.02344 0.008,-0.03125 0.008,-0.01953 0.004,-0.01953 v -0.01953 l 0.004,-0.02344 v -0.01953 l 0.004,-0.01953 v -0.04687 c 0,-0.519531 -0.46484,-0.519531 -0.89843,-0.519531 h -13.9336 c -0.4375,0 -0.90625,0 -0.90625,0.519531 0,0.511719 0.46875,0.511719 0.90625,0.511719 z m 0,0"
       id="path18"
       inkscape:connector-curvature="0" />
    <path
       style="fill:#000000;fill-opacity:1;fill-rule:nonzero;stroke:none;stroke-width:1"
       d="m 282.23102,87.679688 v -0.05078 l -0.008,-0.09375 -0.008,-0.04687 -0.008,-0.03906 -0.0117,-0.04687 -0.0156,-0.04297 -0.0156,-0.03906 -0.0156,-0.04297 -0.0195,-0.04297 -0.0195,-0.03906 -0.0234,-0.03516 -0.0234,-0.03906 -0.0274,-0.03516 -0.0312,-0.03125 -0.0234,-0.03125 -0.0391,-0.03125 -0.0312,-0.03125 -0.0351,-0.02344 -0.0703,-0.05469 -0.0859,-0.03906 -0.0391,-0.02344 -0.0469,-0.01172 -0.0469,-0.01563 -0.0469,-0.01172 -0.0508,-0.01172 -0.0508,-0.0078 -0.0547,-0.0078 h -0.0504 l -0.0547,-0.0039 c -0.69531,0 -1.39453,0.671874 -1.39453,1.363281 0,0.492187 0.36328,0.933593 0.98438,0.933593 0.58984,0 1.36328,-0.597656 1.36328,-1.367187 z m 0,0"
       id="path20"
       inkscape:connector-curvature="0" />
    <path
       style="fill:#000000;fill-opacity:1;fill-rule:nonzero;stroke:none;stroke-width:1"
       d="m 280.27399,97.363282 0.0234,-0.06641 0.0273,-0.06641 0.0273,-0.0625 0.0234,-0.05859 0.0234,-0.05078 0.0195,-0.05078 0.0195,-0.04687 0.0156,-0.04687 0.0195,-0.04687 0.0156,-0.03906 0.0312,-0.08594 0.0156,-0.03516 0.0117,-0.03516 0.0273,-0.07812 0.0273,-0.07031 0.0273,-0.07422 0.0117,-0.03516 0.0156,-0.04297 0.0156,-0.03906 0.0469,-0.128907 0.0195,-0.04687 0.0156,-0.05469 0.0195,-0.05469 0.0195,-0.05078 0.0469,-0.125 c 0.20703,-0.519531 0.33594,-0.875 0.33594,-1.367187 0,-1.160156 -0.82422,-2.113282 -2.11328,-2.113282 -2.41797,0 -3.39844,3.738282 -3.39844,3.964844 0,0.257813 0.25391,0.257813 0.30469,0.257813 0.26172,0 0.28515,-0.05078 0.41406,-0.464844 0.69531,-2.417969 1.72656,-3.1875 2.60156,-3.1875 0.20703,0 0.64844,0 0.64844,0.820313 0,0.542968 -0.18359,1.085937 -0.28516,1.339843 -0.20703,0.671875 -1.36718,3.660157 -1.78125,4.765628 -0.25781,0.667967 -0.59375,1.519527 -0.59375,2.058587 0,1.21094 0.87891,2.11328 2.11719,2.11328 2.41797,0 3.3711,-3.73828 3.3711,-3.96484 0,-0.257807 -0.23047,-0.257807 -0.30469,-0.257807 -0.26172,0 -0.26172,0.0781 -0.39063,0.460927 -0.46093,1.6211 -1.3125,3.19532 -2.625,3.19532 -0.4414,0 -0.62109,-0.25782 -0.62109,-0.84766 0,-0.64844 0.15625,-1.00391 0.75,-2.57422 z m 0,0"
       id="path22"
       inkscape:connector-curvature="0" />
    <path
       style="fill:#000000;fill-opacity:1;fill-rule:nonzero;stroke:none;stroke-width:1"
       d="m 288.52399,97.824219 h 0.33203 l 0.0937,-0.0039 h 0.10156 l 0.10937,-0.0078 0.10938,-0.0039 0.11719,-0.0039 0.12109,-0.0039 0.12109,-0.01172 0.125,-0.0039 0.12891,-0.01172 0.13672,-0.01563 0.26953,-0.02734 0.27734,-0.03125 0.28125,-0.03906 0.28125,-0.04687 0.28125,-0.05859 0.27344,-0.06641 0.14063,-0.03516 0.1289,-0.03516 0.13282,-0.04297 0.1289,-0.04688 0.25,-0.09375 c 1.79688,-0.773437 1.92969,-2.292968 1.92969,-2.65625 0,-1.132812 -0.98047,-2.1875 -2.75781,-2.1875 v 0.570313 c 1.21093,0 1.90625,0.742187 1.90625,1.617187 0,2.683595 -4.11719,2.683595 -5.17188,2.683595 h -1.0625 c 1.00781,-3.917974 3.66016,-4.300787 4.32813,-4.300787 v -0.570308 c -2.85938,0 -6.7461,2.503907 -6.7461,7.007813 0,2.624998 1.51953,4.660148 4.04297,4.660148 3.67969,0 5.84766,-2.72656 5.84766,-3.03906 0,-0.15625 -0.15625,-0.33594 -0.3125,-0.33594 -0.12891,0 -0.17969,0.0508 -0.32813,0.25781 -2.03906,2.55079 -4.84765,2.55079 -5.15625,2.55079 -2.00781,0 -2.23828,-2.16016 -2.23828,-2.98829 0,-0.3125 0.0274,-1.105458 0.41406,-2.679677 z m 0,0"
       id="path24"
       inkscape:connector-curvature="0" />
    <path
       style="fill:#000000;fill-opacity:1;fill-rule:nonzero;stroke:none;stroke-width:1"
       d="m 297.16852,97.234375 0.0547,-0.140624 0.043,-0.128907 0.0586,-0.128906 0.0586,-0.121094 0.0547,-0.121093 0.0586,-0.117188 0.0625,-0.113281 0.0664,-0.109376 0.0664,-0.105468 0.13282,-0.195313 0.0742,-0.09375 0.14453,-0.179687 0.14843,-0.160156 0.15625,-0.152345 0.16016,-0.136719 0.16011,-0.128905 0.16406,-0.117188 0.16406,-0.101562 0.16406,-0.09375 0.16407,-0.08594 0.16015,-0.07422 0.16797,-0.06641 0.15235,-0.05859 0.15625,-0.05078 0.14843,-0.03906 0.14453,-0.03906 0.13672,-0.03125 0.13282,-0.02344 0.125,-0.02344 0.11328,-0.01562 0.10547,-0.01563 0.0976,-0.0078 0.082,-0.0039 h 0.0781 l 0.0547,-0.0078 h 0.0859 c 3.88672,0 4.17188,4.507813 4.17188,6.542967 0,1.5703 -0.12891,2.00781 -0.3125,2.51953 -0.5625,1.88281 -1.33985,4.8711 -1.33985,5.53906 0,0.28516 0.13282,0.46485 0.33985,0.46485 0.33594,0 0.54297,-0.56641 0.82422,-1.54688 0.58984,-2.16015 0.84765,-3.6289 0.95312,-4.42968 0.0508,-0.33594 0.10156,-0.66797 0.20703,-1.00391 0.82032,-2.546877 2.46875,-6.382813 3.5,-8.421874 0.17969,-0.308594 0.49219,-0.875 0.49219,-0.976563 0,-0.257812 -0.26172,-0.257812 -0.3125,-0.257812 -0.0781,0 -0.23047,0 -0.30859,0.179687 -1.33985,2.445313 -2.36719,5.019532 -3.39844,7.621092 -0.0234,-0.796867 -0.0508,-2.753904 -1.05859,-5.253904 -0.61719,-1.570313 -1.64454,-2.832032 -3.42188,-2.832032 -3.22266,0 -5.02344,3.914063 -5.02344,4.714844 0,0.257813 0.23047,0.257813 0.48828,0.257813 z m 0,0"
       id="path26"
       inkscape:connector-curvature="0" />
    <path
       style="fill:#000000;fill-opacity:1;fill-rule:nonzero;stroke:none;stroke-width:1"
       d="m 311.56305,97.371094 -0.004,0.02344 -0.004,0.02734 -0.008,0.01953 -0.004,0.01953 -0.004,0.02344 -0.008,0.01953 -0.004,0.01953 -0.004,0.01563 -0.008,0.02344 v 0.01562 l -0.004,0.01563 v 0.01562 l -0.004,0.0078 v 0.01563 l -0.008,0.01172 v 0.01953 l -0.004,0.01172 v 0.03906 l -0.004,0.0078 v 0.03125 c 0,0.390624 0.32421,0.574218 0.61328,0.574218 0.64843,0 0.79687,-0.597657 0.86328,-0.902343 0.0351,-0.09375 0.39844,-1.535158 0.83203,-3.296876 0.55859,0.375 1.27734,0.519531 1.92969,0.519531 1.55078,0 2.55859,-1.261719 2.59375,-1.296875 0.34375,1.242188 1.58984,1.296875 1.85937,1.296875 0.64453,0 1.10156,-0.394531 1.42188,-0.953125 0.39843,-0.703125 0.63281,-1.734375 0.63281,-1.800781 0,-0.238281 -0.23438,-0.238281 -0.28906,-0.238281 -0.25391,0 -0.26953,0.07422 -0.39844,0.558593 -0.21484,0.867188 -0.55859,1.929688 -1.3125,1.929688 -0.46875,0 -0.59766,-0.394531 -0.59766,-0.886719 0,-0.304688 0.14453,-0.949219 0.27344,-1.421875 0.125,-0.484375 0.30469,-1.222656 0.39063,-1.621094 l 0.42187,-1.605469 c 0.10156,-0.449218 0.30469,-1.246093 0.30469,-1.332031 0,-0.363281 -0.28906,-0.578125 -0.59375,-0.578125 -0.19922,0 -0.54297,0.08594 -0.74219,0.433594 -0.0547,0.109375 -0.19531,0.683594 -0.28906,1.042969 l -0.37891,1.5 -0.55469,2.25 c -0.13281,0.453125 -0.13281,0.484375 -0.29296,0.722656 -0.5586,0.792969 -1.34766,1.496094 -2.375,1.496094 -1.48047,0 -1.48047,-1.277344 -1.48047,-1.605469 0,-0.46875 0.0508,-0.703125 0.30468,-1.671875 0.17969,-0.796875 0.21875,-0.921875 0.39844,-1.625 l 0.25391,-1.011718 c 0.0859,-0.378906 0.26953,-1.0625 0.26953,-1.132812 0,-0.328125 -0.25391,-0.582032 -0.61719,-0.582032 -0.64453,0 -0.80469,0.632813 -0.86328,0.847657 z m 0,0"
       id="path28"
       inkscape:connector-curvature="0" />
  </g>
</svg>
