<?xml version="1.0" encoding="UTF-8" standalone="no"?>
<svg
   xmlns:dc="http://purl.org/dc/elements/1.1/"
   xmlns:cc="http://creativecommons.org/ns#"
   xmlns:rdf="http://www.w3.org/1999/02/22-rdf-syntax-ns#"
   xmlns:svg="http://www.w3.org/2000/svg"
   xmlns="http://www.w3.org/2000/svg"
   xmlns:sodipodi="http://sodipodi.sourceforge.net/DTD/sodipodi-0.dtd"
   xmlns:inkscape="http://www.inkscape.org/namespaces/inkscape"
   width="274.10962pt"
   height="152.38692pt"
   viewBox="0 0 274.10962 152.38692"
   version="1.2"
   id="svg39"
   sodipodi:docname="feynmanruleqed.svg"
   inkscape:version="0.92.1 r15371">
  <metadata
     id="metadata45">
    <rdf:RDF>
      <cc:Work
         rdf:about="">
        <dc:format>image/svg+xml</dc:format>
        <dc:type
           rdf:resource="http://purl.org/dc/dcmitype/StillImage" />
        <dc:title></dc:title>
      </cc:Work>
    </rdf:RDF>
  </metadata>
  <defs
     id="defs43">
    <marker
       inkscape:stockid="Arrow1Lstart"
       orient="auto"
       refY="0"
       refX="0"
       id="Arrow1Lstart"
       style="overflow:visible"
       inkscape:isstock="true">
      <path
         id="path4618"
         d="M 0,0 5,-5 -12.5,0 5,5 Z"
         style="fill:#000000;fill-opacity:1;fill-rule:evenodd;stroke:#000000;stroke-width:1.00000003pt;stroke-opacity:1"
         transform="matrix(0.8,0,0,0.8,10,0)"
         inkscape:connector-curvature="0" />
    </marker>
    <marker
       inkscape:stockid="Arrow1Lend"
       orient="auto"
       refY="0"
       refX="0"
       id="marker4902"
       style="overflow:visible"
       inkscape:isstock="true">
      <path
         id="path4900"
         d="M 0,0 5,-5 -12.5,0 5,5 Z"
         style="fill:#000000;fill-opacity:1;fill-rule:evenodd;stroke:#000000;stroke-width:1.00000003pt;stroke-opacity:1"
         transform="matrix(-0.8,0,0,-0.8,-10,0)"
         inkscape:connector-curvature="0" />
    </marker>
    <marker
       inkscape:stockid="Arrow1Lend"
       orient="auto"
       refY="0"
       refX="0"
       id="Arrow1Lend"
       style="overflow:visible"
       inkscape:isstock="true">
      <path
         id="path4621"
         d="M 0,0 5,-5 -12.5,0 5,5 Z"
         style="fill:#000000;fill-opacity:1;fill-rule:evenodd;stroke:#000000;stroke-width:1.00000003pt;stroke-opacity:1"
         transform="matrix(-0.8,0,0,-0.8,-10,0)"
         inkscape:connector-curvature="0" />
    </marker>
    <marker
       inkscape:stockid="Arrow1Lend"
       orient="auto"
       refY="0"
       refX="0"
       id="Arrow1Lend-3"
       style="overflow:visible"
       inkscape:isstock="true">
      <path
         id="path4621-6"
         d="M 0,0 5,-5 -12.5,0 5,5 Z"
         style="fill:#000000;fill-opacity:1;fill-rule:evenodd;stroke:#000000;stroke-width:1.00000003pt;stroke-opacity:1"
         transform="matrix(-0.8,0,0,-0.8,-10,0)"
         inkscape:connector-curvature="0" />
    </marker>
    <marker
       inkscape:stockid="Arrow1Lstart"
       orient="auto"
       refY="0"
       refX="0"
       id="Arrow1Lstart-7"
       style="overflow:visible"
       inkscape:isstock="true">
      <path
         id="path4618-5"
         d="M 0,0 5,-5 -12.5,0 5,5 Z"
         style="fill:#000000;fill-opacity:1;fill-rule:evenodd;stroke:#000000;stroke-width:1.00000003pt;stroke-opacity:1"
         transform="matrix(0.8,0,0,0.8,10,0)"
         inkscape:connector-curvature="0" />
    </marker>
  </defs>
  <sodipodi:namedview
     pagecolor="#ffffff"
     bordercolor="#666666"
     borderopacity="1"
     objecttolerance="10"
     gridtolerance="10"
     guidetolerance="10"
     inkscape:pageopacity="0"
     inkscape:pageshadow="2"
     inkscape:window-width="1920"
     inkscape:window-height="1011"
     id="namedview41"
     showgrid="false"
     inkscape:zoom="1.3747955"
     inkscape:cx="184.0162"
     inkscape:cy="69.07122"
     inkscape:window-x="0"
     inkscape:window-y="0"
     inkscape:window-maximized="1"
     inkscape:current-layer="layer2"
     fit-margin-top="0"
     fit-margin-left="0"
     fit-margin-right="0"
     fit-margin-bottom="0" />
  <path
     inkscape:connector-curvature="0"
     id="path18"
     d="m 224.11524,76.687558 h 0.24218 l 0.043,-0.0078 h 0.043 l 0.0352,-0.0039 0.0391,-0.0039 0.0391,-0.0078 0.0703,-0.0078 0.0352,-0.01172 0.0312,-0.0078 0.0391,-0.01172 0.0547,-0.02734 0.0312,-0.01953 0.0273,-0.01563 0.0234,-0.01953 0.0273,-0.02344 0.0195,-0.02344 0.0234,-0.02734 0.004,-0.0078 0.0117,-0.01563 0.0234,-0.04687 0.008,-0.02344 0.008,-0.03125 0.008,-0.01953 0.004,-0.01953 v -0.01953 l 0.004,-0.02344 v -0.01953 l 0.004,-0.01953 v -0.04687 c 0,-0.519531 -0.46484,-0.519531 -0.89843,-0.519531 h -13.9336 c -0.4375,0 -0.90625,0 -0.90625,0.519531 0,0.511719 0.46875,0.511719 0.90625,0.511719 z m 0,0"
     style="fill:#000000;fill-opacity:1;fill-rule:nonzero;stroke:none" />
  <path
     inkscape:connector-curvature="0"
     id="path20"
     d="m 234.10352,66.515683 v -0.05078 l -0.008,-0.09375 -0.008,-0.04687 -0.008,-0.03906 -0.0117,-0.04687 -0.0156,-0.04297 -0.0156,-0.03906 -0.0156,-0.04297 -0.0195,-0.04297 -0.0195,-0.03906 -0.0234,-0.03516 -0.0234,-0.03906 -0.0274,-0.03516 -0.0312,-0.03125 -0.0234,-0.03125 -0.0391,-0.03125 -0.0312,-0.03125 -0.0351,-0.02344 -0.0703,-0.05469 -0.0859,-0.03906 -0.0391,-0.02344 -0.0469,-0.01172 -0.0469,-0.01563 -0.0469,-0.01172 -0.0508,-0.01172 -0.0508,-0.0078 -0.0547,-0.0078 h -0.0504 l -0.0547,-0.0039 c -0.69531,0 -1.39453,0.671874 -1.39453,1.363281 0,0.492187 0.36328,0.933593 0.98438,0.933593 0.58984,0 1.36328,-0.597656 1.36328,-1.367187 z m 0,0"
     style="fill:#000000;fill-opacity:1;fill-rule:nonzero;stroke:none" />
  <path
     inkscape:connector-curvature="0"
     id="path22"
     d="m 232.14649,76.199277 0.0234,-0.06641 0.0273,-0.06641 0.0273,-0.0625 0.0234,-0.05859 0.0234,-0.05078 0.0195,-0.05078 0.0195,-0.04687 0.0156,-0.04687 0.0195,-0.04687 0.0156,-0.03906 0.0312,-0.08594 0.0156,-0.03516 0.0117,-0.03516 0.0273,-0.07812 0.0273,-0.07031 0.0273,-0.07422 0.0117,-0.03516 0.0156,-0.04297 0.0156,-0.03906 0.0469,-0.128907 0.0195,-0.04687 0.0156,-0.05469 0.0195,-0.05469 0.0195,-0.05078 0.0469,-0.125 c 0.20703,-0.519531 0.33594,-0.875 0.33594,-1.367187 0,-1.160156 -0.82422,-2.113282 -2.11328,-2.113282 -2.41797,0 -3.39844,3.738282 -3.39844,3.964844 0,0.257813 0.25391,0.257813 0.30469,0.257813 0.26172,0 0.28515,-0.05078 0.41406,-0.464844 0.69531,-2.417969 1.72656,-3.1875 2.60156,-3.1875 0.20703,0 0.64844,0 0.64844,0.820313 0,0.542968 -0.18359,1.085937 -0.28516,1.339843 -0.20703,0.671875 -1.36718,3.660157 -1.78125,4.765628 -0.25781,0.667967 -0.59375,1.519527 -0.59375,2.058587 0,1.21094 0.87891,2.11328 2.11719,2.11328 2.41797,0 3.3711,-3.73828 3.3711,-3.96484 0,-0.257807 -0.23047,-0.257807 -0.30469,-0.257807 -0.26172,0 -0.26172,0.0781 -0.39063,0.460927 -0.46093,1.6211 -1.3125,3.19532 -2.625,3.19532 -0.4414,0 -0.62109,-0.25782 -0.62109,-0.84766 0,-0.64844 0.15625,-1.00391 0.75,-2.57422 z m 0,0"
     style="fill:#000000;fill-opacity:1;fill-rule:nonzero;stroke:none" />
  <path
     inkscape:connector-curvature="0"
     id="path24"
     d="m 240.39649,76.660214 h 0.33203 l 0.0937,-0.0039 h 0.10156 l 0.10937,-0.0078 0.10938,-0.0039 0.11719,-0.0039 0.12109,-0.0039 0.12109,-0.01172 0.125,-0.0039 0.12891,-0.01172 0.13672,-0.01563 0.26953,-0.02734 0.27734,-0.03125 0.28125,-0.03906 0.28125,-0.04687 0.28125,-0.05859 0.27344,-0.06641 0.14063,-0.03516 0.1289,-0.03516 0.13282,-0.04297 0.1289,-0.04688 0.25,-0.09375 c 1.79688,-0.773437 1.92969,-2.292968 1.92969,-2.65625 0,-1.132812 -0.98047,-2.1875 -2.75781,-2.1875 v 0.570313 c 1.21093,0 1.90625,0.742187 1.90625,1.617187 0,2.683594 -4.11719,2.683594 -5.17188,2.683594 h -1.0625 c 1.00781,-3.917968 3.66016,-4.300781 4.32813,-4.300781 v -0.570313 c -2.85938,0 -6.7461,2.503907 -6.7461,7.007813 0,2.624998 1.51953,4.660148 4.04297,4.660148 3.67969,0 5.84766,-2.72656 5.84766,-3.03906 0,-0.15625 -0.15625,-0.33594 -0.3125,-0.33594 -0.12891,0 -0.17969,0.0508 -0.32813,0.25781 -2.03906,2.55079 -4.84765,2.55079 -5.15625,2.55079 -2.00781,0 -2.23828,-2.16016 -2.23828,-2.98829 0,-0.3125 0.0274,-1.105458 0.41406,-2.679677 z m 0,0"
     style="fill:#000000;fill-opacity:1;fill-rule:nonzero;stroke:none" />
  <path
     inkscape:connector-curvature="0"
     id="path26"
     d="m 249.04102,76.07037 0.0547,-0.140624 0.043,-0.128907 0.0586,-0.128906 0.0586,-0.121094 0.0547,-0.121093 0.0586,-0.117188 0.0625,-0.113281 0.0664,-0.109375 0.0664,-0.105469 0.13282,-0.195313 0.0742,-0.09375 0.14453,-0.179687 0.14843,-0.160156 0.15625,-0.152344 0.16016,-0.136719 0.16011,-0.128906 0.16406,-0.117188 0.16406,-0.101562 0.16406,-0.09375 0.16407,-0.08594 0.16015,-0.07422 0.16797,-0.06641 0.15235,-0.05859 0.15625,-0.05078 0.14843,-0.03906 0.14453,-0.03906 0.13672,-0.03125 0.13282,-0.02344 0.125,-0.02344 0.11328,-0.01562 0.10547,-0.01563 0.0976,-0.0078 0.082,-0.0039 h 0.0781 l 0.0547,-0.0078 h 0.0859 c 3.88672,0 4.17188,4.507813 4.17188,6.542967 0,1.57031 -0.12891,2.00781 -0.3125,2.51953 -0.5625,1.88281 -1.33985,4.8711 -1.33985,5.53906 0,0.28516 0.13282,0.46485 0.33985,0.46485 0.33594,0 0.54297,-0.56641 0.82422,-1.54688 0.58984,-2.16015 0.84765,-3.6289 0.95312,-4.42968 0.0508,-0.33594 0.10156,-0.66797 0.20703,-1.00391 0.82032,-2.546877 2.46875,-6.382812 3.5,-8.421874 0.17969,-0.308594 0.49219,-0.875 0.49219,-0.976563 0,-0.257812 -0.26172,-0.257812 -0.3125,-0.257812 -0.0781,0 -0.23047,0 -0.30859,0.179687 -1.33985,2.445313 -2.36719,5.019532 -3.39844,7.621092 -0.0234,-0.796867 -0.0508,-2.753904 -1.05859,-5.253904 -0.61719,-1.570313 -1.64454,-2.832032 -3.42188,-2.832032 -3.22266,0 -5.02344,3.914063 -5.02344,4.714844 0,0.257813 0.23047,0.257813 0.48828,0.257813 z m 0,0"
     style="fill:#000000;fill-opacity:1;fill-rule:nonzero;stroke:none" />
  <path
     inkscape:connector-curvature="0"
     id="path28"
     d="m 263.43555,76.207089 -0.004,0.02344 -0.004,0.02734 -0.008,0.01953 -0.004,0.01953 -0.004,0.02344 -0.008,0.01953 -0.004,0.01953 -0.004,0.01563 -0.008,0.02344 v 0.01562 l -0.004,0.01563 v 0.01562 l -0.004,0.0078 v 0.01563 l -0.008,0.01172 v 0.01953 l -0.004,0.01172 v 0.03906 l -0.004,0.0078 v 0.03125 c 0,0.390625 0.32421,0.574218 0.61328,0.574218 0.64843,0 0.79687,-0.597656 0.86328,-0.902343 0.0351,-0.09375 0.39844,-1.535157 0.83203,-3.296875 0.55859,0.375 1.27734,0.519531 1.92969,0.519531 1.55078,0 2.55859,-1.261719 2.59375,-1.296875 0.34375,1.242188 1.58984,1.296875 1.85937,1.296875 0.64453,0 1.10156,-0.394531 1.42188,-0.953125 0.39843,-0.703125 0.63281,-1.734375 0.63281,-1.800781 0,-0.238281 -0.23438,-0.238281 -0.28906,-0.238281 -0.25391,0 -0.26953,0.07422 -0.39844,0.558593 -0.21484,0.867188 -0.55859,1.929688 -1.3125,1.929688 -0.46875,0 -0.59766,-0.394531 -0.59766,-0.886719 0,-0.304688 0.14453,-0.949219 0.27344,-1.421875 0.125,-0.484375 0.30469,-1.222656 0.39063,-1.621094 l 0.42187,-1.605469 c 0.10156,-0.449218 0.30469,-1.246093 0.30469,-1.332031 0,-0.363281 -0.28906,-0.578125 -0.59375,-0.578125 -0.19922,0 -0.54297,0.08594 -0.74219,0.433594 -0.0547,0.109375 -0.19531,0.683594 -0.28906,1.042969 l -0.37891,1.5 -0.55469,2.25 c -0.13281,0.453125 -0.13281,0.484375 -0.29296,0.722656 -0.5586,0.792969 -1.34766,1.496094 -2.375,1.496094 -1.48047,0 -1.48047,-1.277344 -1.48047,-1.605469 0,-0.46875 0.0508,-0.703125 0.30468,-1.671875 0.17969,-0.796875 0.21875,-0.921875 0.39844,-1.625 l 0.25391,-1.011719 c 0.0859,-0.378906 0.26953,-1.0625 0.26953,-1.132812 0,-0.328125 -0.25391,-0.582032 -0.61719,-0.582032 -0.64453,0 -0.80469,0.632813 -0.86328,0.847657 z m 0,0"
     style="fill:#000000;fill-opacity:1;fill-rule:nonzero;stroke:none" />
  <g
     inkscape:groupmode="layer"
     id="layer1"
     inkscape:label="frame"
     style="display:none"
     transform="translate(-48.11969,-21.562442)">
    <path
       inkscape:connector-curvature="0"
       style="fill:none;stroke:#000000;stroke-width:0.79999995;stroke-linecap:butt;stroke-linejoin:miter;stroke-miterlimit:4;stroke-opacity:1"
       d="M 14.011718,0.39843695 V 198.62891 H 268.58984"
       id="path12"
       sodipodi:nodetypes="ccc" />
    <path
       inkscape:connector-curvature="0"
       style="fill:#000000;fill-opacity:1;fill-rule:nonzero;stroke:none;stroke-width:0.99999994"
       d="m 4.1484379,9.9101544 -0.734376,2.5312506 h 1.46875 L 4.7109379,13.01953 H 3.273438 l -1.59375,5.484374 C 1.5,19.089843 1.414062,19.468749 1.414062,19.64453 c 0,0.105469 0.023438,0.183594 0.078126,0.234375 0.050781,0.05469 0.109374,0.07813 0.1718739,0.07813 0.1523441,0 0.359376,-0.101562 0.6093761,-0.312501 0.152343,-0.121092 0.488281,-0.503905 1,-1.140624 l 0.2968739,0.21875 C 3.007812,19.558598 2.46875,20.148441 1.960938,20.488284 c -0.34375,0.226563 -0.695313,0.343751 -1.046876,0.343751 -0.27343702,0 -0.49609301,-0.08594 -0.67187401,-0.250001 -0.16796919,-0.164061 -0.25000049,-0.382812 -0.25000049,-0.65625 0,-0.332031 0.0976563,-0.84375 0.2968745,-1.531249 l 1.5468759,-5.375 H 0.42968799 l 0.09375,-0.359375 C 1.199219,12.476566 1.761719,12.199223 2.2109379,11.832035 2.667969,11.468754 3.179688,10.828129 3.7421879,9.9101597 Z m 0,0"
       id="path14" />
    <path
       inkscape:connector-curvature="0"
       style="fill:#000000;fill-opacity:1;fill-rule:nonzero;stroke:none;stroke-width:0.99999994"
       d="m 154.50781,205.82031 c 0.30078,0.32422 0.53125,0.64453 0.6875,0.95313 0.11328,0.23047 0.29688,0.82031 0.54688,1.76562 l 0.8125,-1.23437 c 0.21484,-0.28907 0.48437,-0.57032 0.79687,-0.84375 0.3086,-0.26953 0.58203,-0.45313 0.8125,-0.54688 0.14453,-0.0586 0.3125,-0.0937 0.5,-0.0937 0.25781,0 0.46875,0.0742 0.625,0.21875 0.15235,0.13672 0.23438,0.3086 0.23438,0.51563 0,0.23047 -0.0508,0.38672 -0.14063,0.46875 -0.16797,0.15625 -0.36719,0.23437 -0.59375,0.23437 -0.125,0 -0.26172,-0.0234 -0.40625,-0.0781 -0.29297,-0.10157 -0.49219,-0.15625 -0.59375,-0.15625 -0.14844,0 -0.32031,0.0898 -0.51562,0.26562 -0.38672,0.32422 -0.84766,0.94531 -1.375,1.85938 l 0.75,3.20312 c 0.12109,0.49219 0.22265,0.78516 0.29687,0.875 0.082,0.0937 0.16406,0.14063 0.25,0.14063 0.1211,0 0.27344,-0.0703 0.45313,-0.21875 0.33984,-0.27735 0.63281,-0.64844 0.875,-1.10938 l 0.3125,0.17188 c -0.38672,0.73047 -0.88282,1.33593 -1.48438,1.8125 -0.33594,0.26953 -0.62109,0.40625 -0.85937,0.40625 -0.34375,0 -0.6211,-0.19532 -0.82813,-0.57813 -0.125,-0.23828 -0.39453,-1.28125 -0.79687,-3.125 -0.96875,1.67969 -1.7461,2.76172 -2.32813,3.25 -0.375,0.30078 -0.74219,0.45313 -1.09375,0.45313 -0.24609,0 -0.47265,-0.0898 -0.67187,-0.26563 -0.14453,-0.13281 -0.21875,-0.3164 -0.21875,-0.54687 0,-0.20703 0.0703,-0.37891 0.20312,-0.51563 0.13672,-0.13281 0.30469,-0.20312 0.5,-0.20312 0.19531,0 0.40625,0.10156 0.625,0.29687 0.16406,0.14844 0.28906,0.21875 0.375,0.21875 0.0703,0 0.16406,-0.0508 0.28125,-0.15625 0.28906,-0.22656 0.6875,-0.73437 1.1875,-1.51562 0.4961,-0.77735 0.82813,-1.34375 0.98438,-1.6875 -0.38672,-1.4961 -0.59766,-2.29688 -0.625,-2.39063 -0.13672,-0.39453 -0.32032,-0.67578 -0.54688,-0.84375 -0.23047,-0.16406 -0.57031,-0.25 -1.01562,-0.25 -0.14844,0 -0.3086,0.008 -0.48438,0.0156 v -0.32813 z m 0,0"
       id="path16" />
  </g>
  <g
     inkscape:groupmode="layer"
     id="layer2"
     inkscape:label="rule"
     transform="translate(-48.127502,-21.164005)">
    <path
       inkscape:connector-curvature="0"
       id="path2"
       d="m 115.52008,97.914064 c 3.29297,-8.000002 4.46484,-8.000002 7.75781,0 3.29297,7.999996 4.46876,7.999996 7.76172,0 3.29297,-8.000002 4.46486,-8.000002 7.75781,0 3.29298,7.999996 4.46875,7.999996 7.76172,0 3.29298,-8.000002 4.46486,-8.000002 7.75782,0 3.29688,7.999996 4.46875,7.999996 7.76172,0 3.29297,-8.000002 4.46485,-8.000002 7.76172,0 3.29297,7.999996 4.46485,7.999996 7.75781,0 3.29297,-8.000002 4.46875,-8.000002 7.76172,0 3.29297,7.999996 4.46485,7.999996 7.75782,0 3.29296,-8.000002 4.46875,-8.000002 7.76171,0 3.29297,7.999996 4.46485,7.999996 7.75782,0 3.29297,-8.000002 4.46875,-8.000002 7.76172,0"
       style="fill:none;stroke:#000000;stroke-width:0.79999995;stroke-linecap:butt;stroke-linejoin:miter;stroke-miterlimit:4;stroke-opacity:1" />
    <path
       inkscape:connector-curvature="0"
       id="path4"
       d="m 48.408439,173.30084 33.5562,-37.6953 33.555441,-37.691476"
       style="fill:none;stroke:#000000;stroke-width:0.75225002;stroke-linecap:butt;stroke-linejoin:miter;stroke-miterlimit:4;stroke-dasharray:none;stroke-opacity:1;marker-mid:url(#Arrow1Lend-3)"
       inkscape:transform-center-x="5.4553521"
       inkscape:transform-center-y="-18.002673" />
    <path
       inkscape:connector-curvature="0"
       id="path30"
       d="m 92.132469,147.28526 h 0.33984 l 0.0977,-0.004 h 0.10547 l 0.11328,-0.004 0.11328,-0.008 0.1211,-0.004 0.125,-0.004 0.1289,-0.0117 0.125,-0.004 0.13672,-0.0117 0.136721,-0.0156 0.27734,-0.0273 0.28907,-0.0312 0.28906,-0.043 0.29297,-0.0508 0.28906,-0.0586 0.28516,-0.0664 0.14453,-0.0391 0.13281,-0.0391 0.14062,-0.043 0.13282,-0.0469 0.1289,-0.0469 0.12891,-0.0508 c 1.85937,-0.80078 1.99219,-2.37109 1.99219,-2.74609 0,-1.17187 -1.01172,-2.26171 -2.84766,-2.26171 v 0.58983 c 1.25,0 1.97266,0.76953 1.97266,1.67188 0,2.77344 -4.261721,2.77344 -5.351571,2.77344 h -1.09765 c 1.04297,-4.05079 3.785151,-4.44532 4.476561,-4.44532 v -0.58983 c -2.957031,0 -6.980471,2.58594 -6.980471,7.24608 0,2.71485 1.57422,4.82032 4.1836,4.82032 3.804681,0 6.046871,-2.82422 6.046871,-3.14454 0,-0.16015 -0.16016,-0.34765 -0.32031,-0.34765 -0.13672,0 -0.1875,0.0547 -0.34375,0.26953 -2.10547,2.63672 -5.007811,2.63672 -5.332031,2.63672 -2.07422,0 -2.3125,-2.23828 -2.3125,-3.09375 0,-0.32031 0.0273,-1.14063 0.42578,-2.76953 z m 0,0"
       style="fill:#000000;fill-opacity:1;fill-rule:nonzero;stroke:none;stroke-width:1" />
    <path
       inkscape:connector-curvature="0"
       id="path32"
       d="m 113.31215,139.60558 h 0.1836 l 0.0312,-0.008 h 0.0273 l 0.0312,-0.004 h 0.0312 l 0.0352,-0.004 0.0312,-0.008 0.0273,-0.0117 0.0312,-0.004 0.0312,-0.0117 0.0273,-0.004 0.0273,-0.0117 0.0273,-0.0156 0.0234,-0.0117 0.0234,-0.0156 0.0195,-0.0195 0.0273,-0.0156 0.0156,-0.0234 0.0117,-0.008 0.0117,-0.0117 0.004,-0.0156 0.0117,-0.0117 0.004,-0.0117 0.0117,-0.0156 0.004,-0.0156 0.008,-0.0117 0.008,-0.0312 0.008,-0.0156 v -0.0147 l 0.004,-0.0234 0.008,-0.0156 v -0.0352 l 0.004,-0.0234 v -0.0195 c 0,-0.46484 -0.42969,-0.46484 -0.75,-0.46484 h -11.10929 c -0.29688,0 -0.74219,0 -0.74219,0.44922 0,0.46484 0.42578,0.46484 0.74219,0.46484 z m 0,0"
       style="fill:#000000;fill-opacity:1;fill-rule:nonzero;stroke:none;stroke-width:1" />
    <path
       inkscape:connector-curvature="0"
       id="path34"
       d="m 199.10212,79.238281 -0.12109,0.195312 -0.1211,0.187499 -0.11328,0.171876 -0.12109,0.167969 -0.11719,0.160156 -0.12109,0.144531 -0.1211,0.148437 -0.11328,0.128907 -0.12109,0.125 -0.11719,0.117187 -0.12109,0.109376 -0.1211,0.101562 -0.12109,0.09375 -0.11719,0.08984 -0.12109,0.08203 -0.1211,0.07813 -0.12109,0.07031 -0.12109,0.0625 -0.24219,0.117186 -0.12891,0.04297 -0.12109,0.04687 -0.12109,0.03906 -0.12891,0.03516 -0.125,0.03516 -0.125,0.02344 -0.125,0.02734 -0.12891,0.01953 -0.2539,0.03125 -0.26563,0.02344 c -0.38281,0.02734 -0.66797,0.02734 -0.66797,0.632812 0,0.191407 0.16016,0.351563 0.41407,0.351563 h 5.92578 c 0.1914,0 0.59765,0 0.59765,-0.605469 0,-0.351562 -0.28125,-0.378906 -0.50781,-0.378906 -0.73047,-0.0625 -1.49609,-0.320312 -1.49609,-1.117188 0,-0.382812 0.1914,-0.730468 0.44531,-1.175781 l 2.42187,-4.078125 h 7.98829 l -0.0937,-0.984375 h -7.29297 l 6.27734,-10.503906 1.01563,10.503906 0.0937,0.984375 c 0.0664,0.671875 0.51171,5 0.51171,5.316406 0,0.953126 -1.65234,1.054688 -2.29296,1.054688 -0.44922,0 -0.76563,0 -0.76563,0.632812 0,0.351563 0.38281,0.351563 0.44531,0.351563 h 7.57813 c 0.19531,0 0.57031,0 0.57031,-0.636719 0,-0.347656 -0.3125,-0.347656 -0.72656,-0.347656 -1.97656,0 -1.97656,-0.222656 -2.07422,-1.148438 l -1.94141,-19.894529 c -0.0625,-0.640625 -0.0625,-0.769531 -0.60156,-0.769531 -0.51172,0 -0.63672,0.226562 -0.82812,0.546875 z m 0,0"
       style="fill:#000000;fill-opacity:1;fill-rule:nonzero;stroke:none;stroke-width:1" />
    <path
       inkscape:connector-curvature="0"
       id="path36"
       d="m 218.25056,74.980468 -0.008,0.03125 -0.004,0.03516 -0.008,0.02344 -0.008,0.02734 -0.004,0.02344 -0.008,0.02734 -0.004,0.02344 -0.008,0.01953 -0.008,0.02734 v 0.01953 l -0.004,0.01953 v 0.01563 l -0.008,0.01563 v 0.01953 l -0.008,0.01172 v 0.02344 l -0.004,0.01562 v 0.05078 l -0.008,0.0039 v 0.03906 c 0,0.488282 0.40235,0.710938 0.76172,0.710938 0.79688,0 0.97657,-0.734375 1.06641,-1.113281 0.043,-0.113281 0.49219,-1.898438 1.02734,-4.078125 0.69141,0.46875 1.57813,0.648437 2.38672,0.648437 1.91406,0 3.16016,-1.5625 3.20703,-1.605469 0.42188,1.535157 1.96094,1.605469 2.29297,1.605469 0.80078,0 1.36328,-0.492187 1.75781,-1.183593 0.49219,-0.871093 0.78516,-2.140626 0.78516,-2.222657 0,-0.296875 -0.29297,-0.296875 -0.35547,-0.296875 -0.3125,0 -0.33203,0.08984 -0.49219,0.691406 -0.26953,1.074219 -0.6914,2.382813 -1.625,2.382813 -0.58203,0 -0.74218,-0.484375 -0.74218,-1.089844 0,-0.378905 0.1875,-1.179687 0.33984,-1.757812 0.15234,-0.601563 0.37891,-1.515625 0.48828,-2.007813 l 0.51563,-1.980468 c 0.1289,-0.558594 0.3789,-1.542969 0.3789,-1.648438 0,-0.449219 -0.35937,-0.71875 -0.73828,-0.71875 -0.24219,0 -0.66797,0.109375 -0.91406,0.539062 -0.0703,0.132813 -0.24219,0.84375 -0.35547,1.289063 l -0.46875,1.855469 -0.6875,2.777344 c -0.16016,0.5625 -0.16016,0.601562 -0.35937,0.894532 -0.69141,0.980468 -1.66797,1.847655 -2.9375,1.847655 -1.82813,0 -1.82813,-1.578125 -1.82813,-1.980468 0,-0.582032 0.0625,-0.867188 0.375,-2.070313 0.22266,-0.984375 0.26953,-1.136719 0.49219,-2.007813 l 0.3125,-1.25 c 0.10937,-0.46875 0.33203,-1.3125 0.33203,-1.402343 0,-0.402344 -0.3125,-0.714844 -0.75781,-0.714844 -0.80078,0 -1,0.78125 -1.07032,1.046875 z m 0,0"
       style="fill:#000000;fill-opacity:1;fill-rule:nonzero;stroke:none;stroke-width:1" />
    <path
       inkscape:transform-center-y="18.002673"
       inkscape:transform-center-x="5.4553521"
       style="fill:none;stroke:#000000;stroke-width:0.75212198;stroke-linecap:butt;stroke-linejoin:miter;stroke-miterlimit:4;stroke-opacity:1;marker-mid:url(#Arrow1Lstart-7)"
       d="m 48.408439,21.414051 33.5562,37.6953 33.555441,37.69148"
       id="path132"
       inkscape:connector-curvature="0" />
  </g>
</svg>
