<?xml version="1.0" encoding="UTF-8"?>
<!DOCTYPE svg PUBLIC "-//W3C//DTD SVG 1.1//EN" "http://www.w3.org/Graphics/SVG/1.1/DTD/svg11.dtd">
<svg version="1.2" width="76.2mm" height="76.2mm" viewBox="0 0 7620 7620" preserveAspectRatio="xMidYMid" fill-rule="evenodd" clip-path="url(#presentation_clip_path)" stroke-width="28.222" stroke-linejoin="round" xmlns="http://www.w3.org/2000/svg" xmlns:ooo="http://xml.openoffice.org/svg/export" xmlns:xlink="http://www.w3.org/1999/xlink" xml:space="preserve">
 <defs class="ClipPathGroup">
  <clipPath id="presentation_clip_path" clipPathUnits="userSpaceOnUse">
   <rect x="0" y="0" width="7620" height="7620"/>
  </clipPath>
 </defs>
 <defs class="TextShapeIndex">
  <g ooo:slide="id1" ooo:id-list="id3 id4 id5 id6 id7 id8 id9 id10 id11 id12 id13 id14 id15 id16 id17 id18 id19 id20 id21 id22 id23 id24"/>
 </defs>
 <defs class="EmbeddedBulletChars">
  <g id="bullet-char-template(57356)" transform="scale(0.00048828125,-0.00048828125)">
   <path d="M 580,1141 L 1163,571 580,0 -4,571 580,1141 Z"/>
  </g>
  <g id="bullet-char-template(57354)" transform="scale(0.00048828125,-0.00048828125)">
   <path d="M 8,1128 L 1137,1128 1137,0 8,0 8,1128 Z"/>
  </g>
  <g id="bullet-char-template(10146)" transform="scale(0.00048828125,-0.00048828125)">
   <path d="M 174,0 L 602,739 174,1481 1456,739 174,0 Z M 1358,739 L 309,1346 659,739 1358,739 Z"/>
  </g>
  <g id="bullet-char-template(10132)" transform="scale(0.00048828125,-0.00048828125)">
   <path d="M 2015,739 L 1276,0 717,0 1260,543 174,543 174,936 1260,936 717,1481 1274,1481 2015,739 Z"/>
  </g>
  <g id="bullet-char-template(10007)" transform="scale(0.00048828125,-0.00048828125)">
   <path d="M 0,-2 C -7,14 -16,27 -25,37 L 356,567 C 262,823 215,952 215,954 215,979 228,992 255,992 264,992 276,990 289,987 310,991 331,999 354,1012 L 381,999 492,748 772,1049 836,1024 860,1049 C 881,1039 901,1025 922,1006 886,937 835,863 770,784 769,783 710,716 594,584 L 774,223 C 774,196 753,168 711,139 L 727,119 C 717,90 699,76 672,76 641,76 570,178 457,381 L 164,-76 C 142,-110 111,-127 72,-127 30,-127 9,-110 8,-76 1,-67 -2,-52 -2,-32 -2,-23 -1,-13 0,-2 Z"/>
  </g>
  <g id="bullet-char-template(10004)" transform="scale(0.00048828125,-0.00048828125)">
   <path d="M 285,-33 C 182,-33 111,30 74,156 52,228 41,333 41,471 41,549 55,616 82,672 116,743 169,778 240,778 293,778 328,747 346,684 L 369,508 C 377,444 397,411 428,410 L 1163,1116 C 1174,1127 1196,1133 1229,1133 1271,1133 1292,1118 1292,1087 L 1292,965 C 1292,929 1282,901 1262,881 L 442,47 C 390,-6 338,-33 285,-33 Z"/>
  </g>
  <g id="bullet-char-template(9679)" transform="scale(0.00048828125,-0.00048828125)">
   <path d="M 813,0 C 632,0 489,54 383,161 276,268 223,411 223,592 223,773 276,916 383,1023 489,1130 632,1184 813,1184 992,1184 1136,1130 1245,1023 1353,916 1407,772 1407,592 1407,412 1353,268 1245,161 1136,54 992,0 813,0 Z"/>
  </g>
  <g id="bullet-char-template(8226)" transform="scale(0.00048828125,-0.00048828125)">
   <path d="M 346,457 C 273,457 209,483 155,535 101,586 74,649 74,723 74,796 101,859 155,911 209,963 273,989 346,989 419,989 480,963 531,910 582,859 608,796 608,723 608,648 583,586 532,535 482,483 420,457 346,457 Z"/>
  </g>
  <g id="bullet-char-template(8211)" transform="scale(0.00048828125,-0.00048828125)">
   <path d="M -4,459 L 1135,459 1135,606 -4,606 -4,459 Z"/>
  </g>
 </defs>
 <defs class="TextEmbeddedBitmaps"/>
 <g>
  <g id="id2" class="Master_Slide">
   <g id="bg-id2" class="Background"/>
   <g id="bo-id2" class="BackgroundObjects"/>
  </g>
 </g>
 <g class="SlideGroup">
  <g>
   <g id="id1" class="Slide" clip-path="url(#presentation_clip_path)">
    <g class="Page">
     <g class="com.sun.star.drawing.CustomShape">
      <g id="id3">
       <path fill="none" stroke="rgb(0,0,0)" d="M 3667,4155 C 4750,4155 5577,4489 5577,4926 5577,5363 4750,5697 3667,5697 2584,5697 1757,5363 1757,4926 1757,4489 2584,4155 3667,4155 Z"/>
       <path fill="none" stroke="rgb(0,0,0)" d="M 1757,4155 L 1757,4155 Z"/>
       <path fill="none" stroke="rgb(0,0,0)" d="M 5578,5698 L 5578,5698 Z"/>
      </g>
     </g>
     <g class="com.sun.star.drawing.PolyPolygonShape">
      <g id="id4">
       <path fill="rgb(255,255,255)" stroke="none" d="M 3667,4898 L 6126,4009 2270,2993 -270,4771 305,7096 3667,4898 Z"/>
       <path fill="none" stroke="rgb(255,255,255)" d="M 3667,4898 L 6126,4009 2270,2993 -270,4771 305,7096 3667,4898 Z"/>
      </g>
     </g>
     <g class="com.sun.star.drawing.LineShape">
      <g id="id5">
       <path fill="none" stroke="rgb(0,0,0)" d="M 3667,4898 L 3667,1741"/>
       <path fill="rgb(0,0,0)" stroke="none" d="M 3786,1737 L 3817,1761 3667,1342 3517,1761 3547,1739 3583,1721 3623,1708 3665,1704 3708,1707 3749,1719 3786,1737 Z"/>
      </g>
     </g>
     <g class="com.sun.star.drawing.LineShape">
      <g id="id6">
       <path fill="none" stroke="rgb(204,0,0)" d="M 3667,4898 L 2044,3275"/>
       <path fill="rgb(204,0,0)" stroke="none" d="M 2126,3189 L 2164,3183 1762,2993 1952,3395 1958,3358 1970,3320 1990,3283 2017,3250 2049,3222 2087,3202 2126,3189 Z"/>
      </g>
     </g>
     <g class="com.sun.star.drawing.TextShape">
      <g id="id7">
       <text class="TextShape"><tspan class="TextParagraph" font-family="Times New Roman, serif" font-size="635px" font-style="italic" font-weight="400"><tspan class="TextPosition" x="3917" y="1018"><tspan fill="rgb(0,0,0)" stroke="none">k</tspan></tspan></tspan></text>
      </g>
     </g>
     <g class="com.sun.star.drawing.TextShape">
      <g id="id8">
       <text class="TextShape"><tspan class="TextParagraph" font-family="Times New Roman, serif" font-size="635px" font-style="italic" font-weight="400"><tspan class="TextPosition" x="1353" y="2858"><tspan fill="rgb(0,0,0)" stroke="none">v</tspan></tspan></tspan></text>
      </g>
     </g>
     <g class="com.sun.star.drawing.LineShape">
      <g id="id9">
       <path fill="none" stroke="rgb(204,0,0)" d="M 3668,4899 L 3668,4848"/>
       <path fill="none" stroke="rgb(204,0,0)" d="M 3668,4797 L 3668,4746"/>
       <path fill="none" stroke="rgb(204,0,0)" d="M 3668,4695 L 3668,4644"/>
       <path fill="none" stroke="rgb(204,0,0)" d="M 3668,4593 L 3668,4542"/>
       <path fill="none" stroke="rgb(204,0,0)" d="M 3668,4491 L 3668,4440"/>
       <path fill="none" stroke="rgb(204,0,0)" d="M 3668,4389 L 3668,4338"/>
       <path fill="none" stroke="rgb(204,0,0)" d="M 3668,4287 L 3668,4236"/>
       <path fill="none" stroke="rgb(204,0,0)" d="M 3668,4185 L 3668,4134"/>
       <path fill="none" stroke="rgb(204,0,0)" d="M 3668,4083 L 3668,4032"/>
       <path fill="none" stroke="rgb(204,0,0)" d="M 3668,3981 L 3668,3930"/>
       <path fill="none" stroke="rgb(204,0,0)" d="M 3668,3879 L 3668,3828"/>
       <path fill="none" stroke="rgb(204,0,0)" d="M 3668,3777 L 3668,3726"/>
       <path fill="none" stroke="rgb(204,0,0)" d="M 3668,3675 L 3667,3624"/>
       <path fill="none" stroke="rgb(204,0,0)" d="M 3667,3573 L 3667,3522"/>
       <path fill="none" stroke="rgb(204,0,0)" d="M 3667,3471 L 3667,3420"/>
       <path fill="none" stroke="rgb(204,0,0)" d="M 3667,3369 L 3667,3318"/>
       <path fill="none" stroke="rgb(204,0,0)" d="M 3667,3267 L 3667,3216"/>
       <path fill="none" stroke="rgb(204,0,0)" d="M 3667,3165 L 3667,3114"/>
       <path fill="none" stroke="rgb(204,0,0)" d="M 3667,3063 L 3667,3012"/>
       <path fill="none" stroke="rgb(204,0,0)" d="M 3667,2961 L 3667,2910"/>
       <path fill="none" stroke="rgb(204,0,0)" d="M 3667,2859 L 3667,2808"/>
       <path fill="rgb(204,0,0)" stroke="none" d="M 3786,2753 L 3817,2777 3667,2358 3517,2777 3547,2755 3583,2737 3623,2724 3665,2720 3708,2723 3749,2735 3786,2753 Z"/>
      </g>
     </g>
     <g class="com.sun.star.drawing.LineShape">
      <g id="id10">
       <path fill="none" stroke="rgb(204,0,0)" d="M 3668,4899 L 3626,4927"/>
       <path fill="none" stroke="rgb(204,0,0)" d="M 3583,4956 L 3541,4984"/>
       <path fill="none" stroke="rgb(204,0,0)" d="M 3498,5012 L 3456,5040"/>
       <path fill="none" stroke="rgb(204,0,0)" d="M 3413,5069 L 3371,5097"/>
       <path fill="none" stroke="rgb(204,0,0)" d="M 3328,5125 L 3286,5153"/>
       <path fill="none" stroke="rgb(204,0,0)" d="M 3243,5182 L 3201,5210"/>
       <path fill="none" stroke="rgb(204,0,0)" d="M 3159,5238 L 3116,5266"/>
       <path fill="none" stroke="rgb(204,0,0)" d="M 3074,5295 L 3031,5323"/>
       <path fill="none" stroke="rgb(204,0,0)" d="M 2989,5351 L 2946,5379"/>
       <path fill="none" stroke="rgb(204,0,0)" d="M 2904,5408 L 2861,5436"/>
       <path fill="none" stroke="rgb(204,0,0)" d="M 2819,5464 L 2777,5493"/>
       <path fill="none" stroke="rgb(204,0,0)" d="M 2734,5521 L 2692,5549"/>
       <path fill="none" stroke="rgb(204,0,0)" d="M 2649,5577 L 2607,5606"/>
       <path fill="none" stroke="rgb(204,0,0)" d="M 2564,5634 L 2522,5662"/>
       <path fill="none" stroke="rgb(204,0,0)" d="M 2479,5690 L 2437,5719"/>
       <path fill="none" stroke="rgb(204,0,0)" d="M 2394,5747 L 2352,5775"/>
       <path fill="none" stroke="rgb(204,0,0)" d="M 2310,5803 L 2267,5832"/>
       <path fill="none" stroke="rgb(204,0,0)" d="M 2225,5860 L 2182,5888"/>
       <path fill="none" stroke="rgb(204,0,0)" d="M 2140,5917 L 2097,5945"/>
       <path fill="rgb(204,0,0)" stroke="none" d="M 2025,5850 L 2028,5811 1762,6168 2194,6061 2158,6048 2123,6028 2092,6002 2064,5969 2043,5931 2031,5891 2025,5850 Z"/>
      </g>
     </g>
     <g class="com.sun.star.drawing.TextShape">
      <g id="id11">
       <text class="TextShape"><tspan class="TextParagraph" font-family="Times New Roman, serif" font-size="307px" font-style="italic" font-weight="400"><tspan class="TextPosition" x="1250" y="6352"><tspan font-size="635px" fill="rgb(0,0,0)" stroke="none">v</tspan></tspan><tspan class="TextPosition" y="6574"><tspan fill="rgb(0,0,0)" stroke="none">┴</tspan></tspan></tspan></text>
      </g>
     </g>
     <g class="com.sun.star.drawing.TextShape">
      <g id="id12">
       <text class="TextShape"><tspan class="TextParagraph" font-family="Times New Roman, serif" font-size="491px" font-style="italic" font-weight="400"><tspan class="TextPosition" x="3067" y="3042"><tspan font-size="635px" fill="rgb(0,0,0)" stroke="none">v</tspan></tspan><tspan class="TextPosition" y="3398"><tspan fill="rgb(0,0,0)" stroke="none">‖</tspan></tspan></tspan></text>
      </g>
     </g>
     <g class="com.sun.star.drawing.LineShape">
      <g id="id13">
       <path fill="none" stroke="rgb(0,0,0)" d="M 3667,2358 L 3619,2374"/>
       <path fill="none" stroke="rgb(0,0,0)" d="M 3570,2390 L 3522,2406"/>
       <path fill="none" stroke="rgb(0,0,0)" d="M 3473,2423 L 3425,2439"/>
       <path fill="none" stroke="rgb(0,0,0)" d="M 3377,2455 L 3328,2471"/>
       <path fill="none" stroke="rgb(0,0,0)" d="M 3280,2487 L 3232,2503"/>
       <path fill="none" stroke="rgb(0,0,0)" d="M 3183,2519 L 3135,2535"/>
       <path fill="none" stroke="rgb(0,0,0)" d="M 3086,2552 L 3038,2568"/>
       <path fill="none" stroke="rgb(0,0,0)" d="M 2990,2584 L 2941,2600"/>
       <path fill="none" stroke="rgb(0,0,0)" d="M 2893,2616 L 2844,2632"/>
       <path fill="none" stroke="rgb(0,0,0)" d="M 2796,2648 L 2748,2664"/>
       <path fill="none" stroke="rgb(0,0,0)" d="M 2699,2681 L 2651,2697"/>
       <path fill="none" stroke="rgb(0,0,0)" d="M 2603,2713 L 2554,2729"/>
       <path fill="none" stroke="rgb(0,0,0)" d="M 2506,2745 L 2457,2761"/>
       <path fill="none" stroke="rgb(0,0,0)" d="M 2409,2777 L 2361,2793"/>
       <path fill="none" stroke="rgb(0,0,0)" d="M 2312,2810 L 2264,2826"/>
       <path fill="none" stroke="rgb(0,0,0)" d="M 2216,2842 L 2167,2858"/>
       <path fill="none" stroke="rgb(0,0,0)" d="M 2119,2874 L 2070,2890"/>
       <path fill="none" stroke="rgb(0,0,0)" d="M 2022,2906 L 1974,2922"/>
       <path fill="none" stroke="rgb(0,0,0)" d="M 1925,2939 L 1877,2955"/>
       <path fill="none" stroke="rgb(0,0,0)" d="M 1828,2971 L 1780,2987"/>
      </g>
     </g>
     <g class="com.sun.star.drawing.LineShape">
      <g id="id14">
       <path fill="none" stroke="rgb(0,0,0)" d="M 1762,2993 L 1762,3044"/>
       <path fill="none" stroke="rgb(0,0,0)" d="M 1762,3095 L 1762,3146"/>
       <path fill="none" stroke="rgb(0,0,0)" d="M 1762,3197 L 1762,3248"/>
       <path fill="none" stroke="rgb(0,0,0)" d="M 1762,3299 L 1762,3350"/>
       <path fill="none" stroke="rgb(0,0,0)" d="M 1762,3401 L 1762,3452"/>
       <path fill="none" stroke="rgb(0,0,0)" d="M 1762,3503 L 1762,3554"/>
       <path fill="none" stroke="rgb(0,0,0)" d="M 1762,3605 L 1762,3656"/>
       <path fill="none" stroke="rgb(0,0,0)" d="M 1762,3707 L 1762,3758"/>
       <path fill="none" stroke="rgb(0,0,0)" d="M 1762,3809 L 1762,3860"/>
       <path fill="none" stroke="rgb(0,0,0)" d="M 1762,3911 L 1762,3962"/>
       <path fill="none" stroke="rgb(0,0,0)" d="M 1762,4013 L 1762,4064"/>
       <path fill="none" stroke="rgb(0,0,0)" d="M 1762,4115 L 1762,4166"/>
       <path fill="none" stroke="rgb(0,0,0)" d="M 1762,4217 L 1762,4268"/>
       <path fill="none" stroke="rgb(0,0,0)" d="M 1762,4319 L 1762,4370"/>
       <path fill="none" stroke="rgb(0,0,0)" d="M 1762,4421 L 1762,4472"/>
       <path fill="none" stroke="rgb(0,0,0)" d="M 1762,4523 L 1762,4574"/>
       <path fill="none" stroke="rgb(0,0,0)" d="M 1762,4625 L 1762,4676"/>
       <path fill="none" stroke="rgb(0,0,0)" d="M 1762,4727 L 1762,4778"/>
       <path fill="none" stroke="rgb(0,0,0)" d="M 1762,4829 L 1762,4880"/>
       <path fill="none" stroke="rgb(0,0,0)" d="M 1762,4931 L 1762,4982"/>
       <path fill="none" stroke="rgb(0,0,0)" d="M 1762,5033 L 1762,5084"/>
       <path fill="none" stroke="rgb(0,0,0)" d="M 1762,5135 L 1762,5186"/>
       <path fill="none" stroke="rgb(0,0,0)" d="M 1762,5237 L 1762,5288"/>
       <path fill="none" stroke="rgb(0,0,0)" d="M 1762,5339 L 1762,5390"/>
       <path fill="none" stroke="rgb(0,0,0)" d="M 1762,5441 L 1762,5492"/>
       <path fill="none" stroke="rgb(0,0,0)" d="M 1762,5543 L 1762,5594"/>
       <path fill="none" stroke="rgb(0,0,0)" d="M 1762,5645 L 1762,5696"/>
       <path fill="none" stroke="rgb(0,0,0)" d="M 1762,5747 L 1762,5798"/>
       <path fill="none" stroke="rgb(0,0,0)" d="M 1762,5849 L 1762,5900"/>
       <path fill="none" stroke="rgb(0,0,0)" d="M 1762,5951 L 1762,6002"/>
       <path fill="none" stroke="rgb(0,0,0)" d="M 1762,6053 L 1762,6104"/>
       <path fill="none" stroke="rgb(0,0,0)" d="M 1762,6155 L 1762,6168"/>
      </g>
     </g>
     <g class="com.sun.star.drawing.LineShape">
      <g id="id15">
       <path fill="none" stroke="rgb(0,0,153)" d="M 3667,4898 L 5438,5315"/>
       <path fill="rgb(0,0,153)" stroke="none" d="M 5414,5431 L 5384,5456 5826,5406 5452,5164 5467,5199 5477,5238 5480,5279 5474,5321 5461,5362 5440,5399 5414,5431 Z"/>
      </g>
     </g>
     <g class="com.sun.star.drawing.TextShape">
      <g id="id16">
       <text class="TextShape"><tspan class="TextParagraph" font-family="Times New Roman, serif" font-size="635px" font-style="italic" font-weight="400"><tspan class="TextPosition" x="5532" y="6033"><tspan fill="rgb(0,0,0)" stroke="none">w</tspan></tspan></tspan></text>
      </g>
     </g>
     <g class="com.sun.star.drawing.PolyLineShape">
      <g id="id17">
       <path fill="none" stroke="rgb(0,0,0)" d="M 3319,5133 L 3764,5255 4114,5001"/>
      </g>
     </g>
     <g class="com.sun.star.drawing.LineShape">
      <g id="id18">
       <path fill="none" stroke="rgb(51,102,153)" d="M 3668,4899 L 4881,2461"/>
       <path fill="rgb(51,102,153)" stroke="none" d="M 4989,2511 L 5007,2546 5059,2104 4738,2412 4775,2406 4815,2406 4856,2412 4896,2427 4933,2449 4964,2478 4989,2511 Z"/>
      </g>
     </g>
     <g class="com.sun.star.drawing.LineShape">
      <g id="id19">
       <path fill="none" stroke="rgb(0,0,0)" d="M 3668,2359 L 3718,2350"/>
       <path fill="none" stroke="rgb(0,0,0)" d="M 3768,2341 L 3818,2331"/>
       <path fill="none" stroke="rgb(0,0,0)" d="M 3869,2322 L 3919,2313"/>
       <path fill="none" stroke="rgb(0,0,0)" d="M 3969,2304 L 4019,2295"/>
       <path fill="none" stroke="rgb(0,0,0)" d="M 4069,2285 L 4119,2276"/>
       <path fill="none" stroke="rgb(0,0,0)" d="M 4170,2267 L 4220,2258"/>
       <path fill="none" stroke="rgb(0,0,0)" d="M 4270,2249 L 4320,2239"/>
       <path fill="none" stroke="rgb(0,0,0)" d="M 4370,2230 L 4420,2221"/>
       <path fill="none" stroke="rgb(0,0,0)" d="M 4471,2212 L 4521,2203"/>
       <path fill="none" stroke="rgb(0,0,0)" d="M 4571,2193 L 4621,2184"/>
       <path fill="none" stroke="rgb(0,0,0)" d="M 4671,2175 L 4721,2166"/>
       <path fill="none" stroke="rgb(0,0,0)" d="M 4772,2157 L 4822,2147"/>
       <path fill="none" stroke="rgb(0,0,0)" d="M 4872,2138 L 4922,2129"/>
       <path fill="none" stroke="rgb(0,0,0)" d="M 4972,2120 L 5022,2111"/>
      </g>
     </g>
     <g class="com.sun.star.drawing.LineShape">
      <g id="id20">
       <path fill="none" stroke="rgb(0,0,0)" d="M 5064,2104 L 5064,2155"/>
       <path fill="none" stroke="rgb(0,0,0)" d="M 5064,2206 L 5064,2257"/>
       <path fill="none" stroke="rgb(0,0,0)" d="M 5064,2308 L 5064,2359"/>
       <path fill="none" stroke="rgb(0,0,0)" d="M 5064,2410 L 5064,2461"/>
       <path fill="none" stroke="rgb(0,0,0)" d="M 5064,2512 L 5064,2563"/>
       <path fill="none" stroke="rgb(0,0,0)" d="M 5064,2614 L 5064,2665"/>
       <path fill="none" stroke="rgb(0,0,0)" d="M 5064,2716 L 5064,2767"/>
       <path fill="none" stroke="rgb(0,0,0)" d="M 5064,2818 L 5064,2869"/>
       <path fill="none" stroke="rgb(0,0,0)" d="M 5064,2920 L 5064,2971"/>
       <path fill="none" stroke="rgb(0,0,0)" d="M 5064,3022 L 5064,3073"/>
       <path fill="none" stroke="rgb(0,0,0)" d="M 5064,3124 L 5064,3175"/>
       <path fill="none" stroke="rgb(0,0,0)" d="M 5064,3226 L 5064,3277"/>
       <path fill="none" stroke="rgb(0,0,0)" d="M 5064,3328 L 5064,3379"/>
       <path fill="none" stroke="rgb(0,0,0)" d="M 5064,3430 L 5064,3481"/>
       <path fill="none" stroke="rgb(0,0,0)" d="M 5064,3532 L 5064,3583"/>
       <path fill="none" stroke="rgb(0,0,0)" d="M 5064,3634 L 5064,3685"/>
       <path fill="none" stroke="rgb(0,0,0)" d="M 5064,3736 L 5064,3787"/>
       <path fill="none" stroke="rgb(0,0,0)" d="M 5064,3838 L 5064,3889"/>
       <path fill="none" stroke="rgb(0,0,0)" d="M 5064,3940 L 5064,3991"/>
       <path fill="none" stroke="rgb(0,0,0)" d="M 5064,4042 L 5064,4093"/>
       <path fill="none" stroke="rgb(0,0,0)" d="M 5064,4144 L 5064,4195"/>
       <path fill="none" stroke="rgb(0,0,0)" d="M 5064,4246 L 5064,4297"/>
       <path fill="none" stroke="rgb(0,0,0)" d="M 5064,4348 L 5064,4390"/>
      </g>
     </g>
     <g class="com.sun.star.drawing.PolyLineShape">
      <g id="id21">
       <path fill="none" stroke="rgb(0,0,0)" d="M 3667,4898 L 3708,4868"/>
       <path fill="none" stroke="rgb(0,0,0)" d="M 3750,4839 L 3791,4809"/>
       <path fill="none" stroke="rgb(0,0,0)" d="M 3833,4779 L 3874,4749"/>
       <path fill="none" stroke="rgb(0,0,0)" d="M 3916,4720 L 3957,4690"/>
       <path fill="none" stroke="rgb(0,0,0)" d="M 3999,4660 L 4040,4631"/>
       <path fill="none" stroke="rgb(0,0,0)" d="M 4082,4601 L 4123,4571"/>
       <path fill="none" stroke="rgb(0,0,0)" d="M 4164,4542 L 4206,4512"/>
       <path fill="none" stroke="rgb(0,0,0)" d="M 4247,4482 L 4289,4452"/>
       <path fill="none" stroke="rgb(0,0,0)" d="M 4330,4423 L 4372,4393"/>
       <path fill="none" stroke="rgb(0,0,0)" d="M 4413,4363 L 4455,4334"/>
       <path fill="none" stroke="rgb(0,0,0)" d="M 4496,4304 L 4538,4274"/>
       <path fill="none" stroke="rgb(0,0,0)" d="M 4579,4244 L 4588,4238 4626,4250"/>
       <path fill="none" stroke="rgb(0,0,0)" d="M 4675,4266 L 4723,4281"/>
       <path fill="none" stroke="rgb(0,0,0)" d="M 4772,4297 L 4820,4312"/>
       <path fill="none" stroke="rgb(0,0,0)" d="M 4869,4328 L 4918,4343"/>
       <path fill="none" stroke="rgb(0,0,0)" d="M 4966,4359 L 5015,4374"/>
       <path fill="none" stroke="rgb(0,0,0)" d="M 5063,4390 L 5064,4390"/>
      </g>
     </g>
     <g class="com.sun.star.drawing.TextShape">
      <g id="id22">
       <text class="TextShape"><tspan class="TextParagraph" font-family="Times New Roman, serif" font-size="491px" font-weight="400"><tspan class="TextPosition" x="5187" y="2221"><tspan font-size="635px" font-style="italic" fill="rgb(0,0,0)" stroke="none">v</tspan></tspan><tspan class="TextPosition" y="2577"><tspan fill="rgb(0,0,0)" stroke="none">rot</tspan></tspan></tspan></text>
      </g>
     </g>
     <g class="com.sun.star.drawing.LineShape">
      <g id="id23">
       <path fill="none" stroke="rgb(0,0,0)" d="M 5064,4390 L 5016,4407"/>
       <path fill="none" stroke="rgb(0,0,0)" d="M 4968,4425 L 4920,4442"/>
       <path fill="none" stroke="rgb(0,0,0)" d="M 4872,4460 L 4824,4477"/>
       <path fill="none" stroke="rgb(0,0,0)" d="M 4776,4495 L 4728,4512"/>
       <path fill="none" stroke="rgb(0,0,0)" d="M 4681,4529 L 4633,4547"/>
       <path fill="none" stroke="rgb(0,0,0)" d="M 4585,4564 L 4537,4582"/>
       <path fill="none" stroke="rgb(0,0,0)" d="M 4489,4599 L 4441,4617"/>
       <path fill="none" stroke="rgb(0,0,0)" d="M 4393,4634 L 4345,4651"/>
       <path fill="none" stroke="rgb(0,0,0)" d="M 4297,4669 L 4249,4686"/>
       <path fill="none" stroke="rgb(0,0,0)" d="M 4201,4704 L 4153,4721"/>
       <path fill="none" stroke="rgb(0,0,0)" d="M 4105,4739 L 4057,4756"/>
       <path fill="none" stroke="rgb(0,0,0)" d="M 4010,4773 L 3962,4791"/>
       <path fill="none" stroke="rgb(0,0,0)" d="M 3914,4808 L 3866,4826"/>
       <path fill="none" stroke="rgb(0,0,0)" d="M 3818,4843 L 3770,4861"/>
       <path fill="none" stroke="rgb(0,0,0)" d="M 3722,4878 L 3674,4895"/>
      </g>
     </g>
     <g class="com.sun.star.drawing.TextShape">
      <g id="id24">
       <text class="TextShape"><tspan class="TextParagraph" font-family="Times New Roman, serif" font-size="635px" font-style="italic" font-weight="400"><tspan class="TextPosition" x="5604" y="4701"><tspan fill="rgb(0,0,0)" stroke="none">θ</tspan></tspan></tspan></text>
      </g>
     </g>
    </g>
   </g>
  </g>
 </g>
</svg>