<?xml version="1.0" encoding="UTF-8" standalone="no"?>
<!-- Created with Inkscape (http://www.inkscape.org/) -->
<svg
   xmlns:ns0="http://www.iki.fi/pav/software/textext"
   xmlns:dc="http://purl.org/dc/elements/1.1/"
   xmlns:cc="http://creativecommons.org/ns#"
   xmlns:rdf="http://www.w3.org/1999/02/22-rdf-syntax-ns#"
   xmlns:svg="http://www.w3.org/2000/svg"
   xmlns="http://www.w3.org/2000/svg"
   xmlns:sodipodi="http://sodipodi.sourceforge.net/DTD/sodipodi-0.dtd"
   xmlns:inkscape="http://www.inkscape.org/namespaces/inkscape"
   width="641.59021"
   height="269.54999"
   id="svg2"
   sodipodi:version="0.32"
   inkscape:version="0.46"
   sodipodi:docname="scattering.svg"
   inkscape:output_extension="org.inkscape.output.svg.inkscape"
   version="1.0">
  <sodipodi:namedview
     id="base"
     pagecolor="#ffffff"
     bordercolor="#666666"
     borderopacity="1.0"
     gridtolerance="10000"
     guidetolerance="10"
     objecttolerance="10"
     inkscape:pageopacity="0.0"
     inkscape:pageshadow="2"
     inkscape:zoom="1.309001"
     inkscape:cx="338.42601"
     inkscape:cy="133.41"
     inkscape:document-units="px"
     inkscape:current-layer="layer4"
     showgrid="false"
     inkscape:window-width="1279"
     inkscape:window-height="947"
     inkscape:window-x="1"
     inkscape:window-y="49" />
  <defs
     id="defs4">
    <marker
       inkscape:stockid="Arrow1Lstart"
       orient="auto"
       refY="0"
       refX="0"
       id="Arrow1Lstart"
       style="overflow:visible">
      <path
         id="path3841"
         d="M 0,0 L 5,-5 L -12.5,0 L 5,5 L 0,0 z"
         style="fill-rule:evenodd;stroke:#000000;stroke-width:1pt;marker-start:none"
         transform="matrix(0.8,0,0,0.8,10,0)" />
    </marker>
    <marker
       inkscape:stockid="Arrow1Lend"
       orient="auto"
       refY="0"
       refX="0"
       id="Arrow1Lend"
       style="overflow:visible">
      <path
         id="path3844"
         d="M 0,0 L 5,-5 L -12.5,0 L 5,5 L 0,0 z"
         style="fill-rule:evenodd;stroke:#000000;stroke-width:1pt;marker-start:none"
         transform="matrix(-0.8,0,0,-0.8,-10,0)" />
    </marker>
    <inkscape:perspective
       sodipodi:type="inkscape:persp3d"
       inkscape:vp_x="0 : 526.18109 : 1"
       inkscape:vp_y="0 : 1000 : 0"
       inkscape:vp_z="744.09448 : 526.18109 : 1"
       inkscape:persp3d-origin="372.04724 : 350.78739 : 1"
       id="perspective10" />
  </defs>
  <metadata
     id="metadata7">
    <rdf:RDF>
      <cc:Work
         rdf:about="">
        <dc:format>image/svg+xml</dc:format>
        <dc:type
           rdf:resource="http://purl.org/dc/dcmitype/StillImage" />
      </cc:Work>
    </rdf:RDF>
  </metadata>
  <g
     transform="translate(-37.54923,-27.0382)"
     style="display:inline"
     inkscape:label="Labels"
     inkscape:groupmode="layer"
     id="layer1">
    <g
       style="font-style:normal;font-variant:normal;font-weight:normal;font-stretch:normal;letter-spacing:normal;word-spacing:normal;text-anchor:start;fill:none;fill-opacity:1;stroke:#000000;stroke-linecap:butt;stroke-linejoin:miter;stroke-miterlimit:10.43299961;stroke-dasharray:none;stroke-dashoffset:0;stroke-opacity:1"
       word-spacing="normal"
       letter-spacing="normal"
       font-size-adjust="none"
       font-stretch="normal"
       font-weight="normal"
       font-variant="normal"
       font-style="normal"
       fill-rule="even-odd"
       stroke-miterlimit="10.433"
       xml:space="preserve"
       transform="matrix(1.2505066,0,0,-0.9738894,-167.95359,789.03128)"
       id="g8307">
<polyline
   style="fill:#ffffff;fill-rule:nonzero;stroke:#ffffff;stroke-width:0"
   id="polyline8262"
   points="276,569 318.6,569 318.6,719.48 276,719.48 " />
<path
   style="stroke-width:0.5"
   id="path8264"
   d="M 298.88,716.88 C 308.88,712.48 308.88,710.92 298.88,706.52" />
<path
   style="stroke-width:0.5"
   id="path8266"
   d="M 298.88,706.52 C 288.88,702.13 288.88,700.56 298.88,696.16" />
<path
   style="stroke-width:0.5"
   id="path8268"
   d="M 298.88,696.16 C 308.88,691.77 308.88,690.2 298.88,685.81" />
<path
   style="stroke-width:0.5"
   id="path8270"
   d="M 298.88,685.81 C 288.88,681.41 288.88,679.85 298.88,675.45" />
<path
   style="stroke-width:0.5"
   id="path8272"
   d="M 298.88,675.45 C 308.88,671.05 308.88,669.49 298.88,665.09" />
<path
   style="stroke-width:0.5"
   id="path8274"
   d="M 298.88,665.09 C 288.88,660.7 288.88,659.13 298.88,654.74" />
<path
   style="stroke-width:0.5"
   id="path8276"
   d="M 298.88,654.74 C 308.88,650.34 308.88,648.78 298.88,644.38" />
<path
   style="stroke-width:0.5"
   id="path8278"
   d="M 298.88,644.38 C 288.88,639.98 288.88,638.42 298.88,634.02" />
<path
   style="stroke-width:0.5"
   id="path8280"
   d="M 298.88,634.02 C 308.88,629.63 308.88,628.06 298.88,623.66" />
<path
   style="stroke-width:0.5"
   id="path8282"
   d="M 298.88,623.66 C 288.88,619.27 288.88,617.7 298.88,613.31" />
<path
   style="stroke-width:0.5"
   id="path8284"
   d="M 298.88,613.31 C 308.88,608.91 308.88,607.35 298.88,602.95" />
<path
   style="stroke-width:0.5"
   id="path8286"
   d="M 298.88,602.95 C 288.88,598.55 288.88,596.99 298.88,592.59" />
<path
   style="stroke-width:0.5"
   id="path8288"
   d="M 298.88,592.59 C 308.88,588.2 308.88,586.63 298.88,582.24" />
<path
   style="stroke-width:0.5"
   id="path8290"
   d="M 298.88,582.24 C 288.88,577.84 288.88,576.28 298.88,571.88" />
<polyline
   style="fill:#ffffff;fill-rule:nonzero;stroke:#ffffff;stroke-width:0"
   id="polyline8292"
   points="276,720 319.32,720 319.32,720.48 276,720.48 " />
<polyline
   style="fill:#ffffff;fill-rule:nonzero;stroke:#ffffff;stroke-width:0"
   id="polyline8294"
   points="276,569 276.48,569 276.48,719.84 276,719.84 " />
<polyline
   style="fill:#ffffff;fill-rule:nonzero;stroke:#ffffff;stroke-width:0"
   id="polyline8296"
   points="319,569 319.48,569 319.48,719.84 319,719.84 " />
<polyline
   style="fill:#ffffff;fill-rule:nonzero;stroke:#ffffff;stroke-width:0"
   id="polyline8298"
   points="276,569 319.32,569 319.32,569.48 276,569.48 " />
</g>    <g
       ns0:preamble=""
       ns0:text="$\\gamma$"
       word-spacing="normal"
       letter-spacing="normal"
       font-size-adjust="none"
       font-stretch="normal"
       font-weight="normal"
       font-variant="normal"
       font-style="normal"
       fill-rule="even-odd"
       stroke-miterlimit="10.433"
       transform="matrix(3,0,0,-3,-513.20111,2289.774)"
       id="g8373"
       xml:space="preserve"
       style="font-style:normal;font-variant:normal;font-weight:normal;font-stretch:normal;letter-spacing:normal;word-spacing:normal;text-anchor:start;fill:none;fill-opacity:1;stroke:#000000;stroke-linecap:butt;stroke-linejoin:miter;stroke-miterlimit:10.43299961;stroke-dasharray:none;stroke-dashoffset:0;stroke-opacity:1">
<path
   id="path8375"
   d="M 223.84,709.65 L 223.86,709.71 L 223.88,709.76 L 223.9,709.81 L 223.92,709.85 L 223.94,709.9 L 223.97,709.95 L 223.99,709.99 L 224.02,710.03 L 224.04,710.07 L 224.07,710.11 L 224.09,710.15 L 224.12,710.19 L 224.18,710.25 L 224.24,710.32 L 224.3,710.38 L 224.36,710.43 L 224.42,710.48 L 224.48,710.52 L 224.55,710.56 L 224.61,710.6 L 224.67,710.63 L 224.74,710.66 L 224.8,710.69 L 224.86,710.71 L 224.92,710.73 L 224.98,710.75 L 225.03,710.76 L 225.09,710.77 L 225.14,710.78 L 225.19,710.79 L 225.23,710.8 L 225.27,710.8 L 225.31,710.8 L 225.34,710.81 L 225.37,710.81 L 225.39,710.81 L 225.41,710.81 L 225.43,710.81 C 226.93,710.81 227.04,709.07 227.04,708.28 C 227.04,707.67 226.99,707.5 226.92,707.3 C 226.7,706.58 226.4,705.42 226.4,705.16 C 226.4,705.05 226.45,704.98 226.53,704.98 C 226.66,704.98 226.74,705.2 226.85,705.58 C 227.08,706.41 227.18,706.98 227.22,707.29 C 227.24,707.42 227.26,707.55 227.3,707.68 C 227.62,708.67 228.25,710.15 228.65,710.94 C 228.72,711.06 228.84,711.28 228.84,711.32 C 228.84,711.42 228.74,711.42 228.72,711.42 C 228.69,711.42 228.63,711.42 228.6,711.35 C 228.09,710.4 227.69,709.4 227.29,708.4 C 227.28,708.71 227.27,709.46 226.88,710.43 C 226.64,711.04 226.24,711.53 225.55,711.53 C 224.31,711.53 223.61,710.01 223.61,709.7 C 223.61,709.6 223.7,709.6 223.8,709.6 L 223.84,709.65 z"
   style="fill:#000000;stroke-width:0" />
</g>    <g
       xml:space="preserve"
       id="g8486"
       transform="matrix(3,0,0,-3,-608.20077,2417.6182)"
       stroke-miterlimit="10.433"
       fill-rule="even-odd"
       font-style="normal"
       font-variant="normal"
       font-weight="normal"
       font-stretch="normal"
       font-size-adjust="none"
       letter-spacing="normal"
       word-spacing="normal"
       ns0:text="$\\alpha$\\hspace{3cm}$\\alpha$"
       ns0:preamble=""
       style="font-style:normal;font-variant:normal;font-weight:normal;font-stretch:normal;letter-spacing:normal;word-spacing:normal;text-anchor:start;fill:none;fill-opacity:1;stroke:#000000;stroke-linecap:butt;stroke-linejoin:miter;stroke-miterlimit:10.43299961;stroke-dasharray:none;stroke-dashoffset:0;stroke-opacity:1">
<path
   d="M 228.18,709.47 L 228.18,709.55 L 228.18,709.62 L 228.18,709.69 L 228.17,709.75 L 228.16,709.89 L 228.14,710.01 L 228.12,710.13 L 228.09,710.24 L 228.06,710.35 L 228.03,710.45 L 227.99,710.55 L 227.95,710.64 L 227.9,710.73 L 227.85,710.81 L 227.8,710.89 L 227.75,710.96 L 227.69,711.02 L 227.63,711.09 L 227.57,711.14 L 227.5,711.2 L 227.44,711.24 L 227.37,711.29 L 227.3,711.33 L 227.23,711.37 L 227.16,711.4 L 227.09,711.43 L 227.02,711.45 L 226.95,711.47 L 226.88,711.49 L 226.8,711.5 L 226.73,711.51 L 226.66,711.52 L 226.59,711.52 L 226.52,711.53 L 226.51,711.31 C 227.5,711.31 227.5,710 227.5,709.22 C 227.5,708.86 227.5,708.28 227.52,708.11 L 227.52,708.11 C 226.64,707.34 225.87,707.23 225.48,707.23 C 224.88,707.23 224.58,707.68 224.58,708.32 C 224.58,708.81 224.84,709.88 225.16,710.39 C 225.62,711.12 226.16,711.31 226.51,711.31 L 226.52,711.53 C 225.16,711.53 223.84,710.1 223.84,708.7 C 223.84,707.77 224.44,707.01 225.46,707.01 C 226.08,707.01 226.8,707.24 227.56,707.85 C 227.69,707.32 228.01,707.01 228.46,707.01 C 228.99,707.01 229.3,707.56 229.3,707.72 C 229.3,707.79 229.24,707.82 229.18,707.82 C 229.11,707.82 229.08,707.79 229.05,707.72 C 228.87,707.23 228.51,707.23 228.49,707.23 C 228.18,707.23 228.18,708.01 228.18,708.25 C 228.18,708.46 228.18,708.48 228.28,708.6 C 229.22,709.77 229.43,710.93 229.43,710.94 C 229.43,710.96 229.42,711.04 229.31,711.04 C 229.21,711.04 229.21,711.01 229.16,710.83 C 228.98,710.2 228.65,709.44 228.18,708.86 L 228.18,709.47 z"
   id="path8488"
   style="fill:#000000;stroke-width:0" />
<path
   d="M 319.64,709.47 L 319.64,709.55 L 319.64,709.62 L 319.63,709.69 L 319.63,709.75 L 319.62,709.89 L 319.6,710.01 L 319.58,710.13 L 319.55,710.24 L 319.52,710.35 L 319.48,710.45 L 319.44,710.55 L 319.4,710.64 L 319.36,710.73 L 319.31,710.81 L 319.26,710.89 L 319.2,710.96 L 319.14,711.02 L 319.08,711.09 L 319.02,711.14 L 318.96,711.2 L 318.89,711.24 L 318.83,711.29 L 318.76,711.33 L 318.69,711.37 L 318.62,711.4 L 318.55,711.43 L 318.48,711.45 L 318.4,711.47 L 318.33,711.49 L 318.26,711.5 L 318.19,711.51 L 318.12,711.52 L 318.05,711.52 L 317.98,711.53 L 317.97,711.31 C 318.95,711.31 318.95,710 318.95,709.22 C 318.95,708.86 318.95,708.28 318.97,708.11 L 318.97,708.11 C 318.1,707.34 317.33,707.23 316.93,707.23 C 316.33,707.23 316.03,707.68 316.03,708.32 C 316.03,708.81 316.29,709.88 316.61,710.39 C 317.08,711.12 317.62,711.31 317.97,711.31 L 317.98,711.53 C 316.61,711.53 315.3,710.1 315.3,708.7 C 315.3,707.77 315.89,707.01 316.91,707.01 C 317.54,707.01 318.26,707.24 319.01,707.85 C 319.14,707.32 319.47,707.01 319.92,707.01 C 320.45,707.01 320.76,707.56 320.76,707.72 C 320.76,707.79 320.7,707.82 320.64,707.82 C 320.57,707.82 320.54,707.79 320.51,707.72 C 320.33,707.23 319.97,707.23 319.95,707.23 C 319.64,707.23 319.64,708.01 319.64,708.25 C 319.64,708.46 319.64,708.48 319.74,708.6 C 320.68,709.77 320.89,710.93 320.89,710.94 C 320.89,710.96 320.88,711.04 320.77,711.04 C 320.67,711.04 320.67,711.01 320.62,710.83 C 320.44,710.2 320.11,709.44 319.64,708.86 L 319.64,709.47 z"
   id="path8490"
   style="fill:#000000;stroke-width:0" />
</g>    <g
       ns0:preamble=""
       ns0:text="Au\\hspace{3cm}Au"
       word-spacing="normal"
       letter-spacing="normal"
       font-size-adjust="none"
       font-stretch="normal"
       font-weight="normal"
       font-variant="normal"
       font-style="normal"
       fill-rule="even-odd"
       stroke-miterlimit="10.433"
       transform="matrix(3,0,0,-3,-633.70077,2169.8182)"
       id="content"
       xml:space="preserve"
       style="font-style:normal;font-variant:normal;font-weight:normal;font-stretch:normal;letter-spacing:normal;word-spacing:normal;text-anchor:start;fill:none;fill-opacity:1;stroke:#000000;stroke-linecap:butt;stroke-linejoin:miter;stroke-miterlimit:10.43299961;stroke-dasharray:none;stroke-dashoffset:0;stroke-opacity:1">
<path
   id="path8602"
   d="M 227.4,714.06 L 227.39,714.07 L 227.39,714.08 L 227.38,714.09 L 227.38,714.1 L 227.38,714.11 L 227.37,714.12 L 227.37,714.13 L 227.36,714.14 L 227.36,714.15 L 227.35,714.16 L 227.35,714.17 L 227.35,714.18 L 227.34,714.18 L 227.34,714.19 L 227.33,714.2 L 227.32,714.2 L 227.32,714.21 L 227.31,714.22 L 227.31,714.22 L 227.3,714.23 L 227.29,714.23 L 227.28,714.24 L 227.27,714.24 L 227.26,714.24 L 227.25,714.25 L 227.24,714.25 L 227.23,714.25 L 227.22,714.25 L 227.21,714.25 L 227.2,714.26 L 227.18,714.26 L 227.18,714.26 L 227.17,714.26 C 227.01,714.26 226.98,714.2 226.93,714.06 L 224.87,708.1 C 224.69,707.59 224.29,707.44 223.75,707.43 L 223.75,707.12 C 223.98,707.13 224.41,707.15 224.77,707.15 C 225.08,707.15 225.59,707.13 225.91,707.12 L 225.91,707.43 C 225.41,707.43 225.17,707.68 225.17,707.94 C 225.17,707.97 225.18,708.07 225.19,708.09 L 225.64,709.39 L 225.75,709.7 L 226.87,712.94 L 227.99,709.7 L 225.75,709.7 L 225.64,709.39 L 228.1,709.39 L 228.63,707.87 C 228.64,707.83 228.66,707.77 228.66,707.73 C 228.66,707.43 228.1,707.43 227.84,707.43 L 227.84,707.12 C 228.2,707.15 228.89,707.15 229.27,707.15 C 229.7,707.15 230.16,707.14 230.58,707.12 L 230.58,707.43 L 230.4,707.43 C 229.8,707.43 229.66,707.5 229.55,707.83 L 227.4,714.06 z"
   style="fill:#000000;stroke-width:0" />
<path
   id="path8604"
   d="M 234.8,707.91 L 234.8,707.01 L 236.23,707.12 L 236.23,707.43 C 235.54,707.43 235.46,707.5 235.46,707.99 L 235.46,711.53 L 233.99,711.42 L 233.99,711.11 C 234.69,711.11 234.77,711.04 234.77,710.55 L 234.77,708.78 C 234.77,707.91 234.29,707.23 233.56,707.23 C 232.73,707.23 232.69,707.7 232.69,708.22 L 232.69,711.53 L 231.22,711.42 L 231.22,711.11 C 232,711.11 232,711.08 232,710.19 L 232,708.7 C 232,707.92 232,707.01 233.51,707.01 C 234.07,707.01 234.51,707.29 234.8,707.91 z"
   style="fill:#000000;stroke-width:0" />
<path
   id="path8606"
   d="M 325.45,714.06 L 325.44,714.07 L 325.44,714.08 L 325.43,714.09 L 325.43,714.1 L 325.42,714.11 L 325.42,714.12 L 325.41,714.13 L 325.41,714.14 L 325.41,714.15 L 325.4,714.16 L 325.4,714.17 L 325.39,714.18 L 325.39,714.18 L 325.38,714.19 L 325.38,714.2 L 325.37,714.2 L 325.37,714.21 L 325.36,714.22 L 325.35,714.22 L 325.35,714.23 L 325.34,714.23 L 325.33,714.24 L 325.32,714.24 L 325.31,714.24 L 325.3,714.25 L 325.29,714.25 L 325.28,714.25 L 325.27,714.25 L 325.26,714.25 L 325.24,714.26 L 325.23,714.26 L 325.22,714.26 C 325.06,714.26 325.03,714.2 324.98,714.06 L 322.92,708.1 C 322.73,707.59 322.34,707.44 321.8,707.43 L 321.8,707.12 C 322.03,707.13 322.46,707.15 322.82,707.15 C 323.12,707.15 323.64,707.13 323.96,707.12 L 323.96,707.43 C 323.46,707.43 323.21,707.68 323.21,707.94 C 323.21,707.97 323.22,708.07 323.23,708.09 L 323.69,709.39 L 323.8,709.7 L 324.92,712.94 L 326.04,709.7 L 323.8,709.7 L 323.69,709.39 L 326.15,709.39 L 326.68,707.87 C 326.69,707.83 326.71,707.77 326.71,707.73 C 326.71,707.43 326.15,707.43 325.88,707.43 L 325.88,707.12 C 326.24,707.15 326.94,707.15 327.32,707.15 C 327.75,707.15 328.2,707.14 328.62,707.12 L 328.62,707.43 L 328.44,707.43 C 327.85,707.43 327.71,707.5 327.6,707.83 L 325.45,714.06 z"
   style="fill:#000000;stroke-width:0" />
<path
   id="path8608"
   d="M 332.85,707.91 L 332.85,707.01 L 334.28,707.12 L 334.28,707.43 C 333.58,707.43 333.5,707.5 333.5,707.99 L 333.5,711.53 L 332.04,711.42 L 332.04,711.11 C 332.74,711.11 332.82,711.04 332.82,710.55 L 332.82,708.78 C 332.82,707.91 332.34,707.23 331.61,707.23 C 330.77,707.23 330.73,707.7 330.73,708.22 L 330.73,711.53 L 329.27,711.42 L 329.27,711.11 C 330.05,711.11 330.05,711.08 330.05,710.19 L 330.05,708.7 C 330.05,707.92 330.05,707.01 331.56,707.01 C 332.12,707.01 332.56,707.29 332.85,707.91 z"
   style="fill:#000000;stroke-width:0" />
</g>    <g
       style="font-style:normal;font-variant:normal;font-weight:normal;font-stretch:normal;letter-spacing:normal;word-spacing:normal;text-anchor:start;fill:none;fill-opacity:1;stroke:#000000;stroke-linecap:butt;stroke-linejoin:miter;stroke-miterlimit:10.43299961;stroke-dasharray:none;stroke-dashoffset:0;stroke-opacity:1"
       xml:space="preserve"
       id="g9784"
       transform="matrix(3,0,0,-3,-38.954658,2293.8597)"
       stroke-miterlimit="10.433"
       fill-rule="even-odd"
       font-style="normal"
       font-variant="normal"
       font-weight="normal"
       font-stretch="normal"
       font-size-adjust="none"
       letter-spacing="normal"
       word-spacing="normal"
       ns0:text="$\\theta$"
       ns0:preamble="">
<path
   style="fill:#000000;stroke-width:0"
   d="M 227.96,712.1 L 227.96,712.17 L 227.96,712.24 L 227.96,712.31 L 227.96,712.38 L 227.95,712.46 L 227.94,712.54 L 227.93,712.62 L 227.92,712.7 L 227.91,712.78 L 227.89,712.87 L 227.87,712.95 L 227.85,713.04 L 227.83,713.12 L 227.81,713.21 L 227.78,713.29 L 227.75,713.37 L 227.71,713.45 L 227.68,713.53 L 227.64,713.6 L 227.59,713.67 L 227.55,713.74 L 227.5,713.8 L 227.44,713.86 L 227.39,713.92 L 227.32,713.97 L 227.29,713.99 L 227.26,714.01 L 227.22,714.03 L 227.19,714.05 L 227.15,714.07 L 227.11,714.09 L 227.07,714.1 L 227.03,714.11 L 226.99,714.12 L 226.95,714.13 L 226.91,714.14 L 226.86,714.14 L 226.82,714.14 L 226.77,714.15 L 226.76,713.93 C 227.25,713.93 227.31,713.29 227.31,712.72 C 227.31,712.23 227.23,711.72 226.99,710.74 L 224.91,710.74 C 225.08,711.38 225.28,712.17 225.67,712.88 C 225.94,713.37 226.31,713.93 226.76,713.93 L 226.77,714.15 C 225.38,714.15 223.85,711.34 223.85,709.05 C 223.85,708.12 224.14,707.01 225.05,707.01 L 225.05,707.23 C 224.72,707.23 224.51,707.52 224.51,708.45 C 224.51,708.87 224.57,709.44 224.83,710.42 L 226.9,710.42 C 226.79,709.96 226.58,709.11 226.2,708.4 C 225.85,707.72 225.48,707.23 225.05,707.23 L 225.05,707.01 C 226.45,707.01 227.96,709.87 227.96,712.1 z"
   id="path9786" />
</g>    <g
       ns0:preamble=""
       ns0:text="$\\alpha$"
       word-spacing="normal"
       letter-spacing="normal"
       font-size-adjust="none"
       font-stretch="normal"
       font-weight="normal"
       font-variant="normal"
       font-style="normal"
       fill-rule="even-odd"
       stroke-miterlimit="10.433"
       transform="matrix(3,0,0,-3,-250.65787,2294.7509)"
       id="g9898"
       xml:space="preserve"
       style="font-style:normal;font-variant:normal;font-weight:normal;font-stretch:normal;letter-spacing:normal;word-spacing:normal;text-anchor:start;fill:none;fill-opacity:1;stroke:#000000;stroke-linecap:butt;stroke-linejoin:miter;stroke-miterlimit:10.43299961;stroke-dasharray:none;stroke-dashoffset:0;stroke-opacity:1">
<path
   id="path9900"
   d="M 228.18,709.47 L 228.18,709.55 L 228.18,709.62 L 228.18,709.69 L 228.17,709.75 L 228.16,709.89 L 228.14,710.01 L 228.12,710.13 L 228.09,710.24 L 228.06,710.35 L 228.03,710.45 L 227.99,710.55 L 227.95,710.64 L 227.9,710.73 L 227.85,710.81 L 227.8,710.89 L 227.75,710.96 L 227.69,711.02 L 227.63,711.09 L 227.57,711.14 L 227.5,711.2 L 227.44,711.24 L 227.37,711.29 L 227.3,711.33 L 227.23,711.37 L 227.16,711.4 L 227.09,711.43 L 227.02,711.45 L 226.95,711.47 L 226.88,711.49 L 226.8,711.5 L 226.73,711.51 L 226.66,711.52 L 226.59,711.52 L 226.52,711.53 L 226.51,711.31 C 227.5,711.31 227.5,710 227.5,709.22 C 227.5,708.86 227.5,708.28 227.52,708.11 L 227.52,708.11 C 226.64,707.34 225.87,707.23 225.48,707.23 C 224.88,707.23 224.58,707.68 224.58,708.32 C 224.58,708.81 224.84,709.88 225.16,710.39 C 225.62,711.12 226.16,711.31 226.51,711.31 L 226.52,711.53 C 225.16,711.53 223.84,710.1 223.84,708.7 C 223.84,707.77 224.44,707.01 225.46,707.01 C 226.08,707.01 226.8,707.24 227.56,707.85 C 227.69,707.32 228.01,707.01 228.46,707.01 C 228.99,707.01 229.3,707.56 229.3,707.72 C 229.3,707.79 229.24,707.82 229.18,707.82 C 229.11,707.82 229.08,707.79 229.05,707.72 C 228.87,707.23 228.51,707.23 228.49,707.23 C 228.18,707.23 228.18,708.01 228.18,708.25 C 228.18,708.46 228.18,708.48 228.28,708.6 C 229.22,709.77 229.43,710.93 229.43,710.94 C 229.43,710.96 229.42,711.04 229.31,711.04 C 229.21,711.04 229.21,711.01 229.16,710.83 C 228.98,710.2 228.65,709.44 228.18,708.86 L 228.18,709.47 z"
   style="fill:#000000;stroke-width:0" />
</g>    <g
       ns0:preamble=""
       ns0:text="$\\alpha$"
       word-spacing="normal"
       letter-spacing="normal"
       font-size-adjust="none"
       font-stretch="normal"
       font-weight="normal"
       font-variant="normal"
       font-style="normal"
       fill-rule="even-odd"
       stroke-miterlimit="10.433"
       transform="matrix(3,0,0,-3,-9.1505842,2238.8729)"
       id="g9968"
       xml:space="preserve"
       style="font-style:normal;font-variant:normal;font-weight:normal;font-stretch:normal;letter-spacing:normal;word-spacing:normal;text-anchor:start;fill:none;fill-opacity:1;stroke:#000000;stroke-linecap:butt;stroke-linejoin:miter;stroke-miterlimit:10.43299961;stroke-dasharray:none;stroke-dashoffset:0;stroke-opacity:1;display:inline">
<path
   id="path9970"
   d="M 228.18,709.47 L 228.18,709.55 L 228.18,709.62 L 228.18,709.69 L 228.17,709.75 L 228.16,709.89 L 228.14,710.01 L 228.12,710.13 L 228.09,710.24 L 228.06,710.35 L 228.03,710.45 L 227.99,710.55 L 227.95,710.64 L 227.9,710.73 L 227.85,710.81 L 227.8,710.89 L 227.75,710.96 L 227.69,711.02 L 227.63,711.09 L 227.57,711.14 L 227.5,711.2 L 227.44,711.24 L 227.37,711.29 L 227.3,711.33 L 227.23,711.37 L 227.16,711.4 L 227.09,711.43 L 227.02,711.45 L 226.95,711.47 L 226.88,711.49 L 226.8,711.5 L 226.73,711.51 L 226.66,711.52 L 226.59,711.52 L 226.52,711.53 L 226.51,711.31 C 227.5,711.31 227.5,710 227.5,709.22 C 227.5,708.86 227.5,708.28 227.52,708.11 L 227.52,708.11 C 226.64,707.34 225.87,707.23 225.48,707.23 C 224.88,707.23 224.58,707.68 224.58,708.32 C 224.58,708.81 224.84,709.88 225.16,710.39 C 225.62,711.12 226.16,711.31 226.51,711.31 L 226.52,711.53 C 225.16,711.53 223.84,710.1 223.84,708.7 C 223.84,707.77 224.44,707.01 225.46,707.01 C 226.08,707.01 226.8,707.24 227.56,707.85 C 227.69,707.32 228.01,707.01 228.46,707.01 C 228.99,707.01 229.3,707.56 229.3,707.72 C 229.3,707.79 229.24,707.82 229.18,707.82 C 229.11,707.82 229.08,707.79 229.05,707.72 C 228.87,707.23 228.51,707.23 228.49,707.23 C 228.18,707.23 228.18,708.01 228.18,708.25 C 228.18,708.46 228.18,708.48 228.28,708.6 C 229.22,709.77 229.43,710.93 229.43,710.94 C 229.43,710.96 229.42,711.04 229.31,711.04 C 229.21,711.04 229.21,711.01 229.16,710.83 C 228.98,710.2 228.65,709.44 228.18,708.86 L 228.18,709.47 z"
   style="fill:#000000;stroke-width:0" />
</g>    <g
       ns0:preamble=""
       ns0:text="Au"
       word-spacing="normal"
       letter-spacing="normal"
       font-size-adjust="none"
       font-stretch="normal"
       font-weight="normal"
       font-variant="normal"
       font-style="normal"
       fill-rule="even-odd"
       stroke-miterlimit="10.433"
       transform="matrix(3,0,0,-3,-139.78455,2267.9027)"
       id="g10145"
       xml:space="preserve"
       style="font-style:normal;font-variant:normal;font-weight:normal;font-stretch:normal;letter-spacing:normal;word-spacing:normal;text-anchor:start;fill:none;fill-opacity:1;stroke:#000000;stroke-linecap:butt;stroke-linejoin:miter;stroke-miterlimit:10.43299961;stroke-dasharray:none;stroke-dashoffset:0;stroke-opacity:1">
<path
   id="path10147"
   d="M 227.4,714.06 L 227.39,714.07 L 227.39,714.08 L 227.38,714.09 L 227.38,714.1 L 227.38,714.11 L 227.37,714.12 L 227.37,714.13 L 227.36,714.14 L 227.36,714.15 L 227.35,714.16 L 227.35,714.17 L 227.35,714.18 L 227.34,714.18 L 227.34,714.19 L 227.33,714.2 L 227.32,714.2 L 227.32,714.21 L 227.31,714.22 L 227.31,714.22 L 227.3,714.23 L 227.29,714.23 L 227.28,714.24 L 227.27,714.24 L 227.26,714.24 L 227.25,714.25 L 227.24,714.25 L 227.23,714.25 L 227.22,714.25 L 227.21,714.25 L 227.2,714.26 L 227.18,714.26 L 227.18,714.26 L 227.17,714.26 C 227.01,714.26 226.98,714.2 226.93,714.06 L 224.87,708.1 C 224.69,707.59 224.29,707.44 223.75,707.43 L 223.75,707.12 C 223.98,707.13 224.41,707.15 224.77,707.15 C 225.08,707.15 225.59,707.13 225.91,707.12 L 225.91,707.43 C 225.41,707.43 225.17,707.68 225.17,707.94 C 225.17,707.97 225.18,708.07 225.19,708.09 L 225.64,709.39 L 225.75,709.7 L 226.87,712.94 L 227.99,709.7 L 225.75,709.7 L 225.64,709.39 L 228.1,709.39 L 228.63,707.87 C 228.64,707.83 228.66,707.77 228.66,707.73 C 228.66,707.43 228.1,707.43 227.84,707.43 L 227.84,707.12 C 228.2,707.15 228.89,707.15 229.27,707.15 C 229.7,707.15 230.16,707.14 230.58,707.12 L 230.58,707.43 L 230.4,707.43 C 229.8,707.43 229.66,707.5 229.55,707.83 L 227.4,714.06 z"
   style="fill:#000000;stroke-width:0" />
<path
   id="path10149"
   d="M 234.8,707.91 L 234.8,707.01 L 236.23,707.12 L 236.23,707.43 C 235.54,707.43 235.46,707.5 235.46,707.99 L 235.46,711.53 L 233.99,711.42 L 233.99,711.11 C 234.69,711.11 234.77,711.04 234.77,710.55 L 234.77,708.78 C 234.77,707.91 234.29,707.23 233.56,707.23 C 232.73,707.23 232.69,707.7 232.69,708.22 L 232.69,711.53 L 231.22,711.42 L 231.22,711.11 C 232,711.11 232,711.08 232,710.19 L 232,708.7 C 232,707.92 232,707.01 233.51,707.01 C 234.07,707.01 234.51,707.29 234.8,707.91 z"
   style="fill:#000000;stroke-width:0" />
</g>  </g>
  <g
     transform="translate(-37.54923,-27.0382)"
     style="display:inline"
     inkscape:groupmode="layer"
     id="layer2"
     inkscape:label="lines-arrows">
    <path
       style="fill:none;fill-rule:evenodd;stroke:#000000;stroke-width:1px;stroke-linecap:butt;stroke-linejoin:miter;marker-mid:url(#Arrow1Lend);stroke-opacity:1"
       d="M 84.610512,286.78546 L 145.09961,260.06636 L 205.58871,232.23395"
       id="path4618"
       sodipodi:nodetypes="ccc" />
    <path
       sodipodi:nodetypes="ccc"
       id="path5135"
       d="M 326.8892,286.78546 L 266.4001,260.06636 L 205.911,232.23395"
       style="fill:none;fill-rule:evenodd;stroke:#000000;stroke-width:1px;stroke-linecap:butt;stroke-linejoin:miter;marker-mid:url(#Arrow1Lstart);stroke-opacity:1" />
    <path
       sodipodi:nodetypes="ccc"
       id="path5664"
       d="M 84.610512,36.433673 L 145.09961,63.152773 L 205.58871,90.985183"
       style="fill:none;fill-rule:evenodd;stroke:#000000;stroke-width:1px;stroke-linecap:butt;stroke-linejoin:miter;marker-mid:url(#Arrow1Lend);stroke-opacity:1" />
    <path
       style="fill:none;fill-rule:evenodd;stroke:#000000;stroke-width:1px;stroke-linecap:butt;stroke-linejoin:miter;marker-mid:url(#Arrow1Lstart);stroke-opacity:1"
       d="M 326.8892,36.433673 L 266.4001,63.152773 L 205.911,90.985183"
       id="path5666"
       sodipodi:nodetypes="ccc" />
  </g>
  <g
     inkscape:groupmode="layer"
     id="layer4"
     inkscape:label="scattering-target"
     style="display:inline"
     transform="translate(23.58,8.19)">
    <rect
       style="fill:#cecc32;fill-opacity:0.99516913;stroke:none;stroke-width:1;stroke-miterlimit:4;stroke-dasharray:4, 4;stroke-dashoffset:0;stroke-opacity:1;display:inline"
       id="rect9725"
       width="13.398309"
       height="57.314987"
       x="482.52521"
       y="117.03934" />
  </g>
  <g
     inkscape:groupmode="layer"
     id="layer3"
     inkscape:label="scattering"
     style="display:inline"
     transform="translate(23.58,8.19)">
    <path
       sodipodi:nodetypes="ccc"
       id="path5881"
       d="M 368.14168,145.69684 L 428.63078,145.69684 L 489.11988,145.69684"
       style="fill:none;fill-rule:evenodd;stroke:#000000;stroke-width:1px;stroke-linecap:butt;stroke-linejoin:miter;marker-mid:url(#Arrow1Lend);stroke-opacity:1;display:inline" />
    <path
       style="fill:none;fill-rule:evenodd;stroke:#000000;stroke-width:1px;stroke-linecap:butt;stroke-linejoin:miter;marker-mid:url(#Arrow1Lstart);stroke-opacity:1;display:inline"
       d="M 610.42037,91.2965 L 549.93127,118.0156 L 489.44217,145.84801"
       id="path5883"
       sodipodi:nodetypes="ccc" />
    <path
       style="fill:none;fill-rule:evenodd;stroke:#000000;stroke-width:0.98848081;stroke-linecap:butt;stroke-linejoin:miter;marker-mid:none;stroke-miterlimit:4;stroke-dasharray:3.95392323, 7.90784645;stroke-dashoffset:0;stroke-opacity:1;display:inline"
       d="M 490.53624,145.69684 L 546.13098,145.69684 L 601.72572,145.69684"
       id="path8677"
       sodipodi:nodetypes="ccc" />
    <path
       style="fill:none;fill-rule:evenodd;stroke:#000000;stroke-width:1;stroke-linecap:butt;stroke-linejoin:miter;marker-start:none;stroke-miterlimit:4;stroke-dasharray:4, 4;stroke-dashoffset:0;stroke-opacity:1;display:inline"
       d="M 562.91505,144.74653 C 563.53534,129.11517 560.61997,123.71863 551.93588,117.76382"
       id="path9200"
       sodipodi:nodetypes="cc" />
  </g>
</svg>
