<?xml version="1.0" encoding="UTF-8" standalone="no"?>
<!-- Created with Inkscape (http://www.inkscape.org/) -->

<svg
   xmlns:ns0="http://www.iki.fi/pav/software/textext"
   xmlns:dc="http://purl.org/dc/elements/1.1/"
   xmlns:cc="http://creativecommons.org/ns#"
   xmlns:rdf="http://www.w3.org/1999/02/22-rdf-syntax-ns#"
   xmlns:svg="http://www.w3.org/2000/svg"
   xmlns="http://www.w3.org/2000/svg"
   xmlns:sodipodi="http://sodipodi.sourceforge.net/DTD/sodipodi-0.dtd"
   xmlns:inkscape="http://www.inkscape.org/namespaces/inkscape"
   width="467.35239"
   height="283.47195"
   id="svg2407"
   sodipodi:version="0.32"
   inkscape:version="0.92.1 r15371"
   version="1.0"
   sodipodi:docname="vphi2.svg"
   inkscape:output_extension="org.inkscape.output.svg.inkscape">
  <defs
     id="defs2409">
    <marker
       inkscape:stockid="Arrow1Lend"
       orient="auto"
       refY="0.0"
       refX="0.0"
       id="Arrow1Lend"
       style="overflow:visible;"
       inkscape:isstock="true">
      <path
         id="path4504"
         d="M 0.0,0.0 L 5.0,-5.0 L -12.5,0.0 L 5.0,5.0 L 0.0,0.0 z "
         style="fill-rule:evenodd;stroke:#000000;stroke-width:1pt;stroke-opacity:1;fill:#000000;fill-opacity:1"
         transform="scale(0.8) rotate(180) translate(12.5,0)" />
    </marker>
    <inkscape:perspective
       sodipodi:type="inkscape:persp3d"
       inkscape:vp_x="0 : 561.25983 : 1"
       inkscape:vp_y="0 : 1066.6667 : 0"
       inkscape:vp_z="793.70078 : 561.25983 : 1"
       inkscape:persp3d-origin="396.85039 : 374.17322 : 1"
       id="perspective2415" />
  </defs>
  <sodipodi:namedview
     id="base"
     pagecolor="#ffffff"
     bordercolor="#666666"
     borderopacity="1.0"
     gridtolerance="10000"
     guidetolerance="10"
     objecttolerance="10"
     inkscape:pageopacity="0.0"
     inkscape:pageshadow="2"
     inkscape:zoom="2.762178"
     inkscape:cx="204.35151"
     inkscape:cy="141.73598"
     inkscape:document-units="px"
     inkscape:current-layer="layer2"
     showgrid="false"
     inkscape:window-width="1920"
     inkscape:window-height="1009"
     inkscape:window-x="0"
     inkscape:window-y="34"
     inkscape:window-maximized="1" />
  <metadata
     id="metadata2412">
    <rdf:RDF>
      <cc:Work
         rdf:about="">
        <dc:format>image/svg+xml</dc:format>
        <dc:type
           rdf:resource="http://purl.org/dc/dcmitype/StillImage" />
        <dc:title></dc:title>
      </cc:Work>
    </rdf:RDF>
  </metadata>
  <g
     inkscape:label="Layer 1"
     inkscape:groupmode="layer"
     id="layer1"
     transform="translate(-296.60953,-526.68848)">
    <g
       ns0:preamble=""
       ns0:text="$\\phi$"
       word-spacing="normal"
       letter-spacing="normal"
       font-size-adjust="none"
       font-stretch="normal"
       font-weight="normal"
       font-variant="normal"
       font-style="normal"
       fill-rule="even-odd"
       stroke-miterlimit="10.433"
       transform="matrix(3,0,0,-3,-159.99999,3087.7498)"
       id="content"
       xml:space="preserve"
       style="font-style:normal;font-variant:normal;font-weight:normal;font-stretch:normal;letter-spacing:normal;word-spacing:normal;text-anchor:start;fill:none;fill-opacity:1;stroke:#000000;stroke-linecap:butt;stroke-linejoin:miter;stroke-miterlimit:10.43299961;stroke-dasharray:none;stroke-dashoffset:0;stroke-opacity:1"><path
         id="path3406"
         d="m 295.8014,768.49778 v 0 0 0 0 0 0 0.0107 0 0 0.0107 0 0.0107 0 0.0107 0 l 0.0107,0.0107 v 0 0.0107 0.0107 0.0107 l 0.0107,0.0107 v 0 0.0107 0 0.0107 0 0.0107 0 0.0107 0 0 0 h 0.0107 v 0 0 0 0.0107 0 0 c 0,0.0107 0,0.10667 -0.128,0.10667 -0.10667,0 -0.11734,-0.032 -0.16,-0.21333 l -0.61867,-2.45334 c -1.696,-0.0533 -3.25333,-1.472 -3.25333,-2.912 0,-1.01333 0.74666,-1.856 2.03733,-1.93066 l 0.0533,0.23466 c -0.62933,0.032 -1.39733,0.40534 -1.39733,1.472 0,1.26934 0.91733,2.76267 2.496,2.90134 l -1.09867,-4.37334 -0.0533,-0.23466 c -0.0853,-0.33067 -0.16,-0.66134 -0.24533,-0.992 -0.11734,-0.50134 -0.23467,-0.90667 -0.23467,-0.93867 0,-0.10667 0.0853,-0.11733 0.13867,-0.11733 0.0427,0 0.064,0.0107 0.096,0.0427 0.0213,0.0213 0.0853,0.27734 0.11733,0.42667 0.13867,0.52267 0.26667,1.056 0.40533,1.57867 l 0.0533,0.23466 1.09866,4.37334 c 0.81067,-0.0427 1.408,-0.53334 1.408,-1.472 0,-1.248 -0.90666,-2.77334 -2.50666,-2.90134 l -0.0533,-0.23466 c 1.71734,0.0533 3.25334,1.49333 3.25334,2.912 0,0.84266 -0.56534,1.824 -2.03734,1.93066 z"
         style="fill:#000000;stroke-width:0"
         inkscape:connector-curvature="0" /></g>    <path
       sodipodi:nodetypes="cccccssssssc"
       style="fill:#fdfefd;fill-opacity:0;stroke:#000000;stroke-width:1.06666672;stroke-miterlimit:4;stroke-dasharray:none;stroke-dashoffset:0;stroke-opacity:0.98222219"
       d="m 297.14286,761.88848 h 466.28571 m -233.14285,0 V 527.22181 m -233.14286,0 c 22.20408,44.69204 44.40817,83.00496 66.61224,114.93879 22.20409,31.93382 44.40816,57.46299 66.61225,76.62584 22.20408,19.16285 44.40816,31.92106 66.61224,38.31293 22.20409,6.39187 44.40816,6.3791 66.61225,0 22.20407,-6.3791 44.40816,-19.16285 66.61225,-38.31293 22.20407,-19.15008 44.40816,-44.7048 66.61224,-76.62584 22.20408,-31.92106 44.40816,-70.24675 66.61224,-114.93879"
       title="x*x"
       id="path3432"
       inkscape:connector-curvature="0" />
    <g
       ns0:preamble=""
       ns0:text="$V$"
       word-spacing="normal"
       letter-spacing="normal"
       font-size-adjust="none"
       font-stretch="normal"
       font-weight="normal"
       font-variant="normal"
       font-style="normal"
       fill-rule="even-odd"
       stroke-miterlimit="10.433"
       transform="matrix(3,0,0,-3,-235.75313,2822.1949)"
       id="g3461"
       xml:space="preserve"
       style="font-style:normal;font-variant:normal;font-weight:normal;font-stretch:normal;letter-spacing:normal;word-spacing:normal;text-anchor:start;fill:none;fill-opacity:1;stroke:#000000;stroke-linecap:butt;stroke-linejoin:miter;stroke-miterlimit:10.43299961;stroke-dasharray:none;stroke-dashoffset:0;stroke-opacity:1"><path
         id="path3463"
         d="m 245.00267,760.30933 0.0427,0.0747 0.0533,0.0747 0.0427,0.064 0.0533,0.064 0.0427,0.0533 0.0533,0.0533 0.0427,0.0533 0.0427,0.0533 0.0427,0.0427 0.0533,0.032 0.0427,0.0427 0.0427,0.032 0.0427,0.032 0.0427,0.0213 0.0427,0.032 0.0427,0.0213 0.0427,0.0213 0.0427,0.0107 0.0427,0.0213 0.0427,0.0107 0.0427,0.0107 0.032,0.0107 0.0427,0.0107 0.0427,0.0107 0.032,0.0107 h 0.0427 l 0.0747,0.0107 h 0.0747 l 0.0747,0.0107 c 0.128,0.0107 0.13867,0.192 0.13867,0.20266 0,0.0853 -0.0533,0.128 -0.13867,0.128 -0.26666,0 -0.576,-0.032 -0.864,-0.032 -0.352,0 -0.71466,0.032 -1.056,0.032 -0.064,0 -0.20266,0 -0.20266,-0.20266 0,-0.11734 0.096,-0.128 0.17066,-0.128 0.288,-0.0213 0.49067,-0.128 0.49067,-0.352 0,-0.16 -0.16,-0.39467 -0.16,-0.40534 l -3.264,-5.184 -0.72533,5.62134 c 0,0.18133 0.24533,0.32 0.736,0.32 0.14933,0 0.26666,0 0.26666,0.21333 0,0.096 -0.0853,0.11733 -0.14933,0.11733 -0.42667,0 -0.88533,-0.032 -1.312,-0.032 -0.192,0 -0.39467,0.0107 -0.58667,0.0107 -0.192,0 -0.39466,0.0213 -0.576,0.0213 -0.0747,0 -0.20266,0 -0.20266,-0.20266 0,-0.128 0.096,-0.128 0.26666,-0.128 0.59734,0 0.608,-0.096 0.64,-0.36267 l 0.832,-6.56 c 0.032,-0.21333 0.0747,-0.24533 0.21334,-0.24533 0.17066,0 0.21333,0.0533 0.29866,0.192 z"
         style="fill:#000000;stroke-width:0"
         inkscape:connector-curvature="0" /></g>  </g>
  <g
     inkscape:groupmode="layer"
     id="layer2"
     inkscape:label="roll">
    <circle
       style="fill:#ff0000;fill-opacity:1;stroke:none;stroke-width:1.43768001;stroke-miterlimit:4;stroke-dasharray:8.62608011, 8.62608011;stroke-dashoffset:0;stroke-opacity:1"
       id="path3684"
       cx="24.031116"
       cy="21.925304"
       r="10" />
  </g>
</svg>
