<?xml version="1.0" encoding="UTF-8" standalone="no"?>
<!-- Created with Inkscape (http://www.inkscape.org/) -->
<svg
   xmlns:ns0="http://www.iki.fi/pav/software/textext"
   xmlns:dc="http://purl.org/dc/elements/1.1/"
   xmlns:cc="http://creativecommons.org/ns#"
   xmlns:rdf="http://www.w3.org/1999/02/22-rdf-syntax-ns#"
   xmlns:svg="http://www.w3.org/2000/svg"
   xmlns="http://www.w3.org/2000/svg"
   xmlns:sodipodi="http://sodipodi.sourceforge.net/DTD/sodipodi-0.dtd"
   xmlns:inkscape="http://www.inkscape.org/namespaces/inkscape"
   width="627.95978"
   height="266.82001"
   id="svg2"
   sodipodi:version="0.32"
   inkscape:version="0.46"
   sodipodi:docname="yukawa-schange.svg"
   inkscape:output_extension="org.inkscape.output.svg.inkscape"
   version="1.0">
  <sodipodi:namedview
     id="base"
     pagecolor="#ffffff"
     bordercolor="#666666"
     borderopacity="1.0"
     gridtolerance="10000"
     guidetolerance="10"
     objecttolerance="10"
     inkscape:pageopacity="0.0"
     inkscape:pageshadow="2"
     inkscape:zoom="1.309001"
     inkscape:cx="338.42601"
     inkscape:cy="133.41"
     inkscape:document-units="px"
     inkscape:current-layer="svg2"
     showgrid="false"
     inkscape:window-width="1279"
     inkscape:window-height="947"
     inkscape:window-x="1"
     inkscape:window-y="49" />
  <defs
     id="defs4">
    <marker
       style="overflow:visible"
       id="Arrow1Lstart"
       refX="0"
       refY="0"
       orient="auto"
       inkscape:stockid="Arrow1Lstart">
      <path
         transform="matrix(0.8,0,0,0.8,10,0)"
         style="fill-rule:evenodd;stroke:#000000;stroke-width:1pt;marker-start:none"
         d="M 0,0 L 5,-5 L -12.5,0 L 5,5 L 0,0 z"
         id="path3841" />
    </marker>
    <marker
       style="overflow:visible"
       id="Arrow1Lend"
       refX="0"
       refY="0"
       orient="auto"
       inkscape:stockid="Arrow1Lend">
      <path
         transform="matrix(-0.8,0,0,-0.8,-10,0)"
         style="fill-rule:evenodd;stroke:#000000;stroke-width:1pt;marker-start:none"
         d="M 0,0 L 5,-5 L -12.5,0 L 5,5 L 0,0 z"
         id="path3844" />
    </marker>
    <inkscape:perspective
       id="perspective10"
       inkscape:persp3d-origin="372.04724 : 350.78739 : 1"
       inkscape:vp_z="744.09448 : 526.18109 : 1"
       inkscape:vp_y="0 : 1000 : 0"
       inkscape:vp_x="0 : 526.18109 : 1"
       sodipodi:type="inkscape:persp3d" />
  </defs>
  <metadata
     id="metadata7">
    <rdf:RDF>
      <cc:Work
         rdf:about="">
        <dc:format>image/svg+xml</dc:format>
        <dc:type
           rdf:resource="http://purl.org/dc/dcmitype/StillImage" />
      </cc:Work>
    </rdf:RDF>
  </metadata>
  <g
     id="layer1"
     inkscape:groupmode="layer"
     inkscape:label="Labels"
     style="display:inline"
     transform="translate(-61.12923,-35.2282)">
    <g
       style="font-style:normal;font-variant:normal;font-weight:normal;font-stretch:normal;letter-spacing:normal;word-spacing:normal;text-anchor:start;fill:none;fill-opacity:1;stroke:#000000;stroke-linecap:butt;stroke-linejoin:miter;stroke-miterlimit:10.43299961;stroke-dasharray:none;stroke-dashoffset:0;stroke-opacity:1"
       xml:space="preserve"
       id="g2529"
       transform="matrix(3,0,0,-3,-608.20077,2417.6182)"
       stroke-miterlimit="10.433"
       fill-rule="even-odd"
       font-style="normal"
       font-variant="normal"
       font-weight="normal"
       font-stretch="normal"
       font-size-adjust="none"
       letter-spacing="normal"
       word-spacing="normal"
       ns0:text="$n$\\hspace{3cm}$p$"
       ns0:preamble="">
<path
   style="fill:#000000;stroke-width:0"
   d="M 224.31,707.71 L 224.31,707.7 L 224.3,707.68 L 224.3,707.67 L 224.3,707.65 L 224.29,707.62 L 224.28,707.59 L 224.28,707.55 L 224.27,707.52 L 224.26,707.49 L 224.25,707.46 L 224.25,707.44 L 224.25,707.43 L 224.24,707.41 L 224.24,707.4 L 224.24,707.39 L 224.23,707.37 L 224.23,707.36 L 224.23,707.35 L 224.23,707.34 L 224.23,707.33 L 224.22,707.32 L 224.22,707.31 L 224.22,707.3 L 224.22,707.29 L 224.22,707.29 L 224.22,707.28 C 224.22,707.1 224.36,707.01 224.51,707.01 C 224.63,707.01 224.81,707.09 224.88,707.29 C 224.89,707.31 225.01,707.78 225.07,708.03 C 225.14,708.33 225.22,708.63 225.29,708.93 C 225.35,709.15 225.4,709.36 225.46,709.59 C 225.49,709.76 225.57,710.05 225.58,710.09 C 225.73,710.4 226.26,711.31 227.21,711.31 C 227.66,711.31 227.75,710.94 227.75,710.61 C 227.75,709.99 227.26,708.72 227.1,708.29 C 227.01,708.06 227,707.94 227,707.83 C 227,707.36 227.35,707.01 227.82,707.01 C 228.75,707.01 229.12,708.47 229.12,708.55 C 229.12,708.65 229.03,708.65 229,708.65 C 228.9,708.65 228.9,708.62 228.85,708.47 C 228.65,707.79 228.32,707.23 227.84,707.23 C 227.67,707.23 227.6,707.33 227.6,707.56 C 227.6,707.81 227.69,708.05 227.78,708.27 C 227.96,708.8 228.38,709.89 228.38,710.46 C 228.38,711.13 227.96,711.53 227.24,711.53 C 226.34,711.53 225.85,710.89 225.68,710.66 C 225.63,711.22 225.23,711.53 224.77,711.53 C 224.31,711.53 224.12,711.14 224.02,710.96 C 223.86,710.62 223.72,710.03 223.72,709.99 C 223.72,709.89 223.82,709.89 223.84,709.89 C 223.94,709.89 223.95,709.9 224.01,710.12 C 224.18,710.83 224.38,711.31 224.74,711.31 C 224.94,711.31 225.05,711.18 225.05,710.85 C 225.05,710.64 225.02,710.53 224.89,710.01 L 224.31,707.71 z"
   id="path2531" />
<path
   style="fill:#000000;stroke-width:0"
   d="M 314.9,705.91 L 314.89,705.88 L 314.89,705.85 L 314.88,705.82 L 314.87,705.79 L 314.87,705.77 L 314.86,705.74 L 314.85,705.72 L 314.84,705.7 L 314.84,705.68 L 314.83,705.66 L 314.82,705.64 L 314.81,705.63 L 314.8,705.61 L 314.79,705.6 L 314.78,705.59 L 314.77,705.58 L 314.75,705.57 L 314.74,705.56 L 314.72,705.55 L 314.7,705.54 L 314.69,705.53 L 314.67,705.53 L 314.64,705.52 L 314.62,705.52 L 314.6,705.51 L 314.57,705.51 L 314.55,705.51 L 314.54,705.5 L 314.52,705.5 L 314.51,705.5 L 314.49,705.5 L 314.48,705.5 L 314.46,705.5 L 314.44,705.5 L 314.42,705.5 L 314.4,705.5 L 314.38,705.5 L 314.36,705.5 C 314.24,705.5 314.13,705.5 314.13,705.31 C 314.13,705.23 314.18,705.19 314.26,705.19 C 314.53,705.19 314.82,705.22 315.1,705.22 C 315.43,705.22 315.77,705.19 316.09,705.19 C 316.14,705.19 316.27,705.19 316.27,705.39 C 316.27,705.5 316.17,705.5 316.03,705.5 C 315.53,705.5 315.53,705.57 315.53,705.66 C 315.53,705.78 315.95,707.4 316.02,707.65 C 316.15,707.36 316.42,707.01 316.93,707.01 L 316.92,707.23 C 316.27,707.23 316.14,708.06 316.14,708.12 C 316.14,708.14 316.14,708.16 316.17,708.28 L 316.65,710.23 C 316.72,710.5 316.99,710.78 317.17,710.93 C 317.52,711.24 317.81,711.31 317.98,711.31 C 318.38,711.31 318.62,710.96 318.62,710.37 C 318.62,709.78 318.29,708.64 318.11,708.26 C 317.77,707.56 317.29,707.23 316.92,707.23 L 316.93,707.01 C 318.09,707.01 319.33,708.47 319.33,709.93 C 319.33,710.87 318.77,711.53 318.01,711.53 C 317.51,711.53 317.03,711.17 316.7,710.78 C 316.6,711.32 316.18,711.53 315.81,711.53 C 315.35,711.53 315.16,711.14 315.07,710.96 C 314.89,710.62 314.76,710.02 314.76,709.99 C 314.76,709.89 314.86,709.89 314.88,709.89 C 314.98,709.89 314.99,709.9 315.05,710.12 C 315.22,710.83 315.42,711.31 315.78,711.31 C 315.95,711.31 316.09,711.23 316.09,710.85 C 316.09,710.62 316.06,710.51 316.02,710.34 L 314.9,705.91 z"
   id="path2533" />
</g>    <g
       ns0:preamble=""
       ns0:text="$p$\\hspace{3cm}$n$"
       word-spacing="normal"
       letter-spacing="normal"
       font-size-adjust="none"
       font-stretch="normal"
       font-weight="normal"
       font-variant="normal"
       font-style="normal"
       fill-rule="even-odd"
       stroke-miterlimit="10.433"
       transform="matrix(3,0,0,-3,-608.20077,2169.8182)"
       id="content"
       xml:space="preserve"
       style="font-style:normal;font-variant:normal;font-weight:normal;font-stretch:normal;letter-spacing:normal;word-spacing:normal;text-anchor:start;fill:none;fill-opacity:1;stroke:#000000;stroke-linecap:butt;stroke-linejoin:miter;stroke-miterlimit:10.43299961;stroke-dasharray:none;stroke-dashoffset:0;stroke-opacity:1">
<path
   id="path5687"
   d="M 223.88,705.91 L 223.87,705.88 L 223.87,705.85 L 223.86,705.82 L 223.85,705.79 L 223.85,705.77 L 223.84,705.74 L 223.83,705.72 L 223.82,705.7 L 223.82,705.68 L 223.81,705.66 L 223.8,705.64 L 223.79,705.63 L 223.78,705.61 L 223.77,705.6 L 223.76,705.59 L 223.75,705.58 L 223.73,705.57 L 223.72,705.56 L 223.7,705.55 L 223.68,705.54 L 223.67,705.53 L 223.65,705.53 L 223.62,705.52 L 223.6,705.52 L 223.58,705.51 L 223.55,705.51 L 223.53,705.51 L 223.52,705.5 L 223.5,705.5 L 223.49,705.5 L 223.47,705.5 L 223.46,705.5 L 223.44,705.5 L 223.42,705.5 L 223.4,705.5 L 223.38,705.5 L 223.36,705.5 L 223.34,705.5 C 223.22,705.5 223.11,705.5 223.11,705.31 C 223.11,705.23 223.16,705.19 223.24,705.19 C 223.51,705.19 223.8,705.22 224.08,705.22 C 224.41,705.22 224.75,705.19 225.07,705.19 C 225.12,705.19 225.25,705.19 225.25,705.39 C 225.25,705.5 225.15,705.5 225.01,705.5 C 224.51,705.5 224.51,705.57 224.51,705.66 C 224.51,705.78 224.93,707.4 225,707.65 C 225.13,707.36 225.4,707.01 225.91,707.01 L 225.9,707.23 C 225.25,707.23 225.12,708.06 225.12,708.12 C 225.12,708.14 225.12,708.16 225.15,708.28 L 225.63,710.23 C 225.7,710.5 225.97,710.78 226.15,710.93 C 226.5,711.24 226.79,711.31 226.96,711.31 C 227.36,711.31 227.6,710.96 227.6,710.37 C 227.6,709.78 227.27,708.64 227.09,708.26 C 226.75,707.56 226.27,707.23 225.9,707.23 L 225.91,707.01 C 227.07,707.01 228.31,708.47 228.31,709.93 C 228.31,710.87 227.75,711.53 226.99,711.53 C 226.49,711.53 226.01,711.17 225.68,710.78 C 225.58,711.32 225.16,711.53 224.79,711.53 C 224.33,711.53 224.14,711.14 224.05,710.96 C 223.87,710.62 223.74,710.02 223.74,709.99 C 223.74,709.89 223.84,709.89 223.86,709.89 C 223.96,709.89 223.97,709.9 224.03,710.12 C 224.2,710.83 224.4,711.31 224.76,711.31 C 224.93,711.31 225.07,711.23 225.07,710.85 C 225.07,710.62 225.04,710.51 225,710.34 L 223.88,705.91 z"
   style="fill:#000000;stroke-width:0" />
<path
   id="path5689"
   d="M 314.36,707.71 L 314.36,707.7 L 314.36,707.68 L 314.35,707.67 L 314.35,707.65 L 314.34,707.62 L 314.34,707.59 L 314.33,707.55 L 314.32,707.52 L 314.31,707.49 L 314.31,707.46 L 314.3,707.44 L 314.3,707.43 L 314.3,707.41 L 314.29,707.4 L 314.29,707.39 L 314.29,707.37 L 314.28,707.36 L 314.28,707.35 L 314.28,707.34 L 314.28,707.33 L 314.28,707.32 L 314.27,707.31 L 314.27,707.3 L 314.27,707.29 L 314.27,707.29 L 314.27,707.28 C 314.27,707.1 314.41,707.01 314.56,707.01 C 314.68,707.01 314.86,707.09 314.93,707.29 C 314.94,707.31 315.06,707.78 315.12,708.03 C 315.19,708.33 315.27,708.63 315.34,708.93 C 315.4,709.15 315.46,709.36 315.51,709.59 C 315.55,709.76 315.63,710.05 315.64,710.09 C 315.79,710.4 316.31,711.31 317.26,711.31 C 317.71,711.31 317.8,710.94 317.8,710.61 C 317.8,709.99 317.31,708.72 317.15,708.29 C 317.06,708.06 317.05,707.94 317.05,707.83 C 317.05,707.36 317.4,707.01 317.87,707.01 C 318.8,707.01 319.17,708.47 319.17,708.55 C 319.17,708.65 319.08,708.65 319.05,708.65 C 318.95,708.65 318.95,708.62 318.9,708.47 C 318.7,707.79 318.38,707.23 317.89,707.23 C 317.72,707.23 317.65,707.33 317.65,707.56 C 317.65,707.81 317.74,708.05 317.83,708.27 C 318.02,708.8 318.44,709.89 318.44,710.46 C 318.44,711.13 318.01,711.53 317.29,711.53 C 316.39,711.53 315.91,710.89 315.74,710.66 C 315.69,711.22 315.28,711.53 314.82,711.53 C 314.36,711.53 314.17,711.14 314.07,710.96 C 313.91,710.62 313.77,710.03 313.77,709.99 C 313.77,709.89 313.87,709.89 313.89,709.89 C 313.99,709.89 314,709.9 314.06,710.12 C 314.23,710.83 314.43,711.31 314.79,711.31 C 314.99,711.31 315.1,711.18 315.1,710.85 C 315.1,710.64 315.07,710.53 314.94,710.01 L 314.36,707.71 z"
   style="fill:#000000;stroke-width:0" />
</g>    <g
       ns0:preamble=""
       ns0:text="$n$\\hspace{3cm}$p$"
       word-spacing="normal"
       letter-spacing="normal"
       font-size-adjust="none"
       font-stretch="normal"
       font-weight="normal"
       font-variant="normal"
       font-style="normal"
       fill-rule="even-odd"
       stroke-miterlimit="10.433"
       transform="matrix(3,0,0,-3,-268.901,2417.6182)"
       id="g5857"
       xml:space="preserve"
       style="font-style:normal;font-variant:normal;font-weight:normal;font-stretch:normal;letter-spacing:normal;word-spacing:normal;text-anchor:start;fill:none;fill-opacity:1;stroke:#000000;stroke-linecap:butt;stroke-linejoin:miter;stroke-miterlimit:10.43299961;stroke-dasharray:none;stroke-dashoffset:0;stroke-opacity:1">
<path
   id="path5859"
   d="M 224.31,707.71 L 224.31,707.7 L 224.3,707.68 L 224.3,707.67 L 224.3,707.65 L 224.29,707.62 L 224.28,707.59 L 224.28,707.55 L 224.27,707.52 L 224.26,707.49 L 224.25,707.46 L 224.25,707.44 L 224.25,707.43 L 224.24,707.41 L 224.24,707.4 L 224.24,707.39 L 224.23,707.37 L 224.23,707.36 L 224.23,707.35 L 224.23,707.34 L 224.23,707.33 L 224.22,707.32 L 224.22,707.31 L 224.22,707.3 L 224.22,707.29 L 224.22,707.29 L 224.22,707.28 C 224.22,707.1 224.36,707.01 224.51,707.01 C 224.63,707.01 224.81,707.09 224.88,707.29 C 224.89,707.31 225.01,707.78 225.07,708.03 C 225.14,708.33 225.22,708.63 225.29,708.93 C 225.35,709.15 225.4,709.36 225.46,709.59 C 225.49,709.76 225.57,710.05 225.58,710.09 C 225.73,710.4 226.26,711.31 227.21,711.31 C 227.66,711.31 227.75,710.94 227.75,710.61 C 227.75,709.99 227.26,708.72 227.1,708.29 C 227.01,708.06 227,707.94 227,707.83 C 227,707.36 227.35,707.01 227.82,707.01 C 228.75,707.01 229.12,708.47 229.12,708.55 C 229.12,708.65 229.03,708.65 229,708.65 C 228.9,708.65 228.9,708.62 228.85,708.47 C 228.65,707.79 228.32,707.23 227.84,707.23 C 227.67,707.23 227.6,707.33 227.6,707.56 C 227.6,707.81 227.69,708.05 227.78,708.27 C 227.96,708.8 228.38,709.89 228.38,710.46 C 228.38,711.13 227.96,711.53 227.24,711.53 C 226.34,711.53 225.85,710.89 225.68,710.66 C 225.63,711.22 225.23,711.53 224.77,711.53 C 224.31,711.53 224.12,711.14 224.02,710.96 C 223.86,710.62 223.72,710.03 223.72,709.99 C 223.72,709.89 223.82,709.89 223.84,709.89 C 223.94,709.89 223.95,709.9 224.01,710.12 C 224.18,710.83 224.38,711.31 224.74,711.31 C 224.94,711.31 225.05,711.18 225.05,710.85 C 225.05,710.64 225.02,710.53 224.89,710.01 L 224.31,707.71 z"
   style="fill:#000000;stroke-width:0" />
<path
   id="path5861"
   d="M 314.9,705.91 L 314.89,705.88 L 314.89,705.85 L 314.88,705.82 L 314.87,705.79 L 314.87,705.77 L 314.86,705.74 L 314.85,705.72 L 314.84,705.7 L 314.84,705.68 L 314.83,705.66 L 314.82,705.64 L 314.81,705.63 L 314.8,705.61 L 314.79,705.6 L 314.78,705.59 L 314.77,705.58 L 314.75,705.57 L 314.74,705.56 L 314.72,705.55 L 314.7,705.54 L 314.69,705.53 L 314.67,705.53 L 314.64,705.52 L 314.62,705.52 L 314.6,705.51 L 314.57,705.51 L 314.55,705.51 L 314.54,705.5 L 314.52,705.5 L 314.51,705.5 L 314.49,705.5 L 314.48,705.5 L 314.46,705.5 L 314.44,705.5 L 314.42,705.5 L 314.4,705.5 L 314.38,705.5 L 314.36,705.5 C 314.24,705.5 314.13,705.5 314.13,705.31 C 314.13,705.23 314.18,705.19 314.26,705.19 C 314.53,705.19 314.82,705.22 315.1,705.22 C 315.43,705.22 315.77,705.19 316.09,705.19 C 316.14,705.19 316.27,705.19 316.27,705.39 C 316.27,705.5 316.17,705.5 316.03,705.5 C 315.53,705.5 315.53,705.57 315.53,705.66 C 315.53,705.78 315.95,707.4 316.02,707.65 C 316.15,707.36 316.42,707.01 316.93,707.01 L 316.92,707.23 C 316.27,707.23 316.14,708.06 316.14,708.12 C 316.14,708.14 316.14,708.16 316.17,708.28 L 316.65,710.23 C 316.72,710.5 316.99,710.78 317.17,710.93 C 317.52,711.24 317.81,711.31 317.98,711.31 C 318.38,711.31 318.62,710.96 318.62,710.37 C 318.62,709.78 318.29,708.64 318.11,708.26 C 317.77,707.56 317.29,707.23 316.92,707.23 L 316.93,707.01 C 318.09,707.01 319.33,708.47 319.33,709.93 C 319.33,710.87 318.77,711.53 318.01,711.53 C 317.51,711.53 317.03,711.17 316.7,710.78 C 316.6,711.32 316.18,711.53 315.81,711.53 C 315.35,711.53 315.16,711.14 315.07,710.96 C 314.89,710.62 314.76,710.02 314.76,709.99 C 314.76,709.89 314.86,709.89 314.88,709.89 C 314.98,709.89 314.99,709.9 315.05,710.12 C 315.22,710.83 315.42,711.31 315.78,711.31 C 315.95,711.31 316.09,711.23 316.09,710.85 C 316.09,710.62 316.06,710.51 316.02,710.34 L 314.9,705.91 z"
   style="fill:#000000;stroke-width:0" />
</g>    <g
       style="font-style:normal;font-variant:normal;font-weight:normal;font-stretch:normal;letter-spacing:normal;word-spacing:normal;text-anchor:start;fill:none;fill-opacity:1;stroke:#000000;stroke-linecap:butt;stroke-linejoin:miter;stroke-miterlimit:10.43299961;stroke-dasharray:none;stroke-dashoffset:0;stroke-opacity:1"
       xml:space="preserve"
       id="g5863"
       transform="matrix(3,0,0,-3,-268.901,2169.8182)"
       stroke-miterlimit="10.433"
       fill-rule="even-odd"
       font-style="normal"
       font-variant="normal"
       font-weight="normal"
       font-stretch="normal"
       font-size-adjust="none"
       letter-spacing="normal"
       word-spacing="normal"
       ns0:text="$p$\\hspace{3cm}$n$"
       ns0:preamble="">
<path
   style="fill:#000000;stroke-width:0"
   d="M 223.88,705.91 L 223.87,705.88 L 223.87,705.85 L 223.86,705.82 L 223.85,705.79 L 223.85,705.77 L 223.84,705.74 L 223.83,705.72 L 223.82,705.7 L 223.82,705.68 L 223.81,705.66 L 223.8,705.64 L 223.79,705.63 L 223.78,705.61 L 223.77,705.6 L 223.76,705.59 L 223.75,705.58 L 223.73,705.57 L 223.72,705.56 L 223.7,705.55 L 223.68,705.54 L 223.67,705.53 L 223.65,705.53 L 223.62,705.52 L 223.6,705.52 L 223.58,705.51 L 223.55,705.51 L 223.53,705.51 L 223.52,705.5 L 223.5,705.5 L 223.49,705.5 L 223.47,705.5 L 223.46,705.5 L 223.44,705.5 L 223.42,705.5 L 223.4,705.5 L 223.38,705.5 L 223.36,705.5 L 223.34,705.5 C 223.22,705.5 223.11,705.5 223.11,705.31 C 223.11,705.23 223.16,705.19 223.24,705.19 C 223.51,705.19 223.8,705.22 224.08,705.22 C 224.41,705.22 224.75,705.19 225.07,705.19 C 225.12,705.19 225.25,705.19 225.25,705.39 C 225.25,705.5 225.15,705.5 225.01,705.5 C 224.51,705.5 224.51,705.57 224.51,705.66 C 224.51,705.78 224.93,707.4 225,707.65 C 225.13,707.36 225.4,707.01 225.91,707.01 L 225.9,707.23 C 225.25,707.23 225.12,708.06 225.12,708.12 C 225.12,708.14 225.12,708.16 225.15,708.28 L 225.63,710.23 C 225.7,710.5 225.97,710.78 226.15,710.93 C 226.5,711.24 226.79,711.31 226.96,711.31 C 227.36,711.31 227.6,710.96 227.6,710.37 C 227.6,709.78 227.27,708.64 227.09,708.26 C 226.75,707.56 226.27,707.23 225.9,707.23 L 225.91,707.01 C 227.07,707.01 228.31,708.47 228.31,709.93 C 228.31,710.87 227.75,711.53 226.99,711.53 C 226.49,711.53 226.01,711.17 225.68,710.78 C 225.58,711.32 225.16,711.53 224.79,711.53 C 224.33,711.53 224.14,711.14 224.05,710.96 C 223.87,710.62 223.74,710.02 223.74,709.99 C 223.74,709.89 223.84,709.89 223.86,709.89 C 223.96,709.89 223.97,709.9 224.03,710.12 C 224.2,710.83 224.4,711.31 224.76,711.31 C 224.93,711.31 225.07,711.23 225.07,710.85 C 225.07,710.62 225.04,710.51 225,710.34 L 223.88,705.91 z"
   id="path5865" />
<path
   style="fill:#000000;stroke-width:0"
   d="M 314.36,707.71 L 314.36,707.7 L 314.36,707.68 L 314.35,707.67 L 314.35,707.65 L 314.34,707.62 L 314.34,707.59 L 314.33,707.55 L 314.32,707.52 L 314.31,707.49 L 314.31,707.46 L 314.3,707.44 L 314.3,707.43 L 314.3,707.41 L 314.29,707.4 L 314.29,707.39 L 314.29,707.37 L 314.28,707.36 L 314.28,707.35 L 314.28,707.34 L 314.28,707.33 L 314.28,707.32 L 314.27,707.31 L 314.27,707.3 L 314.27,707.29 L 314.27,707.29 L 314.27,707.28 C 314.27,707.1 314.41,707.01 314.56,707.01 C 314.68,707.01 314.86,707.09 314.93,707.29 C 314.94,707.31 315.06,707.78 315.12,708.03 C 315.19,708.33 315.27,708.63 315.34,708.93 C 315.4,709.15 315.46,709.36 315.51,709.59 C 315.55,709.76 315.63,710.05 315.64,710.09 C 315.79,710.4 316.31,711.31 317.26,711.31 C 317.71,711.31 317.8,710.94 317.8,710.61 C 317.8,709.99 317.31,708.72 317.15,708.29 C 317.06,708.06 317.05,707.94 317.05,707.83 C 317.05,707.36 317.4,707.01 317.87,707.01 C 318.8,707.01 319.17,708.47 319.17,708.55 C 319.17,708.65 319.08,708.65 319.05,708.65 C 318.95,708.65 318.95,708.62 318.9,708.47 C 318.7,707.79 318.38,707.23 317.89,707.23 C 317.72,707.23 317.65,707.33 317.65,707.56 C 317.65,707.81 317.74,708.05 317.83,708.27 C 318.02,708.8 318.44,709.89 318.44,710.46 C 318.44,711.13 318.01,711.53 317.29,711.53 C 316.39,711.53 315.91,710.89 315.74,710.66 C 315.69,711.22 315.28,711.53 314.82,711.53 C 314.36,711.53 314.17,711.14 314.07,710.96 C 313.91,710.62 313.77,710.03 313.77,709.99 C 313.77,709.89 313.87,709.89 313.89,709.89 C 313.99,709.89 314,709.9 314.06,710.12 C 314.23,710.83 314.43,711.31 314.79,711.31 C 314.99,711.31 315.1,711.18 315.1,710.85 C 315.1,710.64 315.07,710.53 314.94,710.01 L 314.36,707.71 z"
   id="path5867" />
</g>    <g
       xml:space="preserve"
       id="g8040"
       transform="matrix(3,0,0,-3,-513.20111,2289.774)"
       stroke="black"
       stroke-linecap="butt"
       stroke-linejoin="miter"
       stroke-miterlimit="10.433"
       stroke-dasharray="none"
       stroke-dashoffset="0"
       stroke-opacity="1"
       fill="none"
       fill-rule="even-odd"
       fill-opacity="1"
       font-style="normal"
       font-variant="normal"
       font-weight="normal"
       font-stretch="normal"
       font-size-adjust="none"
       letter-spacing="normal"
       word-spacing="normal"
       text-anchor="start"
       ns0:text="$\\phi^-$"
       ns0:preamble="">
<path
   d="M227.79,713.8 L227.79,713.8 L227.79,713.8 L227.79,713.8 L227.79,713.8 L227.79,713.8 L227.79,713.8 L227.79,713.81 L227.79,713.81 L227.79,713.81 L227.79,713.82 L227.79,713.82 L227.79,713.83 L227.79,713.83 L227.79,713.84 L227.79,713.84 L227.8,713.85 L227.8,713.85 L227.8,713.86 L227.8,713.87 L227.8,713.88 L227.81,713.89 L227.81,713.89 L227.81,713.9 L227.81,713.9 L227.81,713.91 L227.81,713.91 L227.81,713.92 L227.81,713.92 L227.81,713.93 L227.81,713.93 L227.81,713.93 L227.81,713.93 L227.82,713.93 L227.82,713.93 L227.82,713.93 L227.82,713.93 L227.82,713.94 L227.82,713.94 L227.82,713.94 C227.82,713.95,227.82,714.04,227.7,714.04 C227.6,714.04,227.59,714.01,227.55,713.84 L226.97,711.54 C225.38,711.49,223.92,710.16,223.92,708.81 C223.92,707.86,224.62,707.07,225.83,707 L225.88,707.22 C225.29,707.25,224.57,707.6,224.57,708.6 C224.57,709.79,225.43,711.19,226.91,711.32 L225.88,707.22 L225.83,707 C225.75,706.69,225.68,706.38,225.6,706.07 C225.49,705.6,225.38,705.22,225.38,705.19 C225.38,705.09,225.46,705.08,225.51,705.08 C225.55,705.08,225.57,705.09,225.6,705.12 C225.62,705.14,225.68,705.38,225.71,705.52 C225.84,706.01,225.96,706.51,226.09,707 L226.14,707.22 L227.17,711.32 C227.93,711.28,228.49,710.82,228.49,709.94 C228.49,708.77,227.64,707.34,226.14,707.22 L226.09,707 C227.7,707.05,229.14,708.4,229.14,709.73 C229.14,710.52,228.61,711.44,227.23,711.54 Z "
   stroke-width="0"
   fill="black"
   id="path8042" />
<path
   d="M234.57,712.31 L234.58,712.31 L234.59,712.31 L234.6,712.31 L234.61,712.31 L234.62,712.31 L234.63,712.32 L234.64,712.32 L234.65,712.32 L234.66,712.32 L234.67,712.32 L234.68,712.32 L234.7,712.32 L234.71,712.33 L234.72,712.33 L234.73,712.33 L234.74,712.33 L234.75,712.34 L234.76,712.34 L234.77,712.35 L234.77,712.35 L234.78,712.36 L234.79,712.37 L234.8,712.38 L234.8,712.38 L234.8,712.38 L234.81,712.39 L234.81,712.39 L234.81,712.4 L234.82,712.4 L234.82,712.41 L234.82,712.41 L234.82,712.42 L234.82,712.43 L234.83,712.43 L234.83,712.44 L234.83,712.44 L234.83,712.45 L234.83,712.46 L234.83,712.47 L234.83,712.47 L234.83,712.48 C234.83,712.66,234.67,712.66,234.57,712.66 H230.38 C230.28,712.66,230.12,712.66,230.12,712.48 C230.12,712.31,230.29,712.31,230.38,712.31 Z "
   stroke-width="0"
   fill="black"
   id="path8044" />
</g>    <g
       ns0:preamble=""
       ns0:text="$\\phi^-$"
       text-anchor="start"
       word-spacing="normal"
       letter-spacing="normal"
       font-size-adjust="none"
       font-stretch="normal"
       font-weight="normal"
       font-variant="normal"
       font-style="normal"
       fill-opacity="1"
       fill-rule="even-odd"
       fill="none"
       stroke-opacity="1"
       stroke-dashoffset="0"
       stroke-dasharray="none"
       stroke-miterlimit="10.433"
       stroke-linejoin="miter"
       stroke-linecap="butt"
       stroke="black"
       transform="matrix(3,0,0,-3,-173.90134,2289.774)"
       id="g8121"
       xml:space="preserve">
<path
   id="path8123"
   fill="black"
   stroke-width="0"
   d="M227.79,713.8 L227.79,713.8 L227.79,713.8 L227.79,713.8 L227.79,713.8 L227.79,713.8 L227.79,713.8 L227.79,713.81 L227.79,713.81 L227.79,713.81 L227.79,713.82 L227.79,713.82 L227.79,713.83 L227.79,713.83 L227.79,713.84 L227.79,713.84 L227.8,713.85 L227.8,713.85 L227.8,713.86 L227.8,713.87 L227.8,713.88 L227.81,713.89 L227.81,713.89 L227.81,713.9 L227.81,713.9 L227.81,713.91 L227.81,713.91 L227.81,713.92 L227.81,713.92 L227.81,713.93 L227.81,713.93 L227.81,713.93 L227.81,713.93 L227.82,713.93 L227.82,713.93 L227.82,713.93 L227.82,713.93 L227.82,713.94 L227.82,713.94 L227.82,713.94 C227.82,713.95,227.82,714.04,227.7,714.04 C227.6,714.04,227.59,714.01,227.55,713.84 L226.97,711.54 C225.38,711.49,223.92,710.16,223.92,708.81 C223.92,707.86,224.62,707.07,225.83,707 L225.88,707.22 C225.29,707.25,224.57,707.6,224.57,708.6 C224.57,709.79,225.43,711.19,226.91,711.32 L225.88,707.22 L225.83,707 C225.75,706.69,225.68,706.38,225.6,706.07 C225.49,705.6,225.38,705.22,225.38,705.19 C225.38,705.09,225.46,705.08,225.51,705.08 C225.55,705.08,225.57,705.09,225.6,705.12 C225.62,705.14,225.68,705.38,225.71,705.52 C225.84,706.01,225.96,706.51,226.09,707 L226.14,707.22 L227.17,711.32 C227.93,711.28,228.49,710.82,228.49,709.94 C228.49,708.77,227.64,707.34,226.14,707.22 L226.09,707 C227.7,707.05,229.14,708.4,229.14,709.73 C229.14,710.52,228.61,711.44,227.23,711.54 Z " />
<path
   id="path8125"
   fill="black"
   stroke-width="0"
   d="M234.57,712.31 L234.58,712.31 L234.59,712.31 L234.6,712.31 L234.61,712.31 L234.62,712.31 L234.63,712.32 L234.64,712.32 L234.65,712.32 L234.66,712.32 L234.67,712.32 L234.68,712.32 L234.7,712.32 L234.71,712.33 L234.72,712.33 L234.73,712.33 L234.74,712.33 L234.75,712.34 L234.76,712.34 L234.77,712.35 L234.77,712.35 L234.78,712.36 L234.79,712.37 L234.8,712.38 L234.8,712.38 L234.8,712.38 L234.81,712.39 L234.81,712.39 L234.81,712.4 L234.82,712.4 L234.82,712.41 L234.82,712.41 L234.82,712.42 L234.82,712.43 L234.83,712.43 L234.83,712.44 L234.83,712.44 L234.83,712.45 L234.83,712.46 L234.83,712.47 L234.83,712.47 L234.83,712.48 C234.83,712.66,234.67,712.66,234.57,712.66 H230.38 C230.28,712.66,230.12,712.66,230.12,712.48 C230.12,712.31,230.29,712.31,230.38,712.31 Z " />
</g>  </g>
  <g
     inkscape:label="lines-arrows"
     id="layer2"
     inkscape:groupmode="layer"
     style="display:inline"
     transform="translate(-61.12923,-35.2282)">
    <path
       sodipodi:nodetypes="ccc"
       id="path2557"
       d="M 205.95981,232.23395 L 205.95981,158.7564 L 205.95981,91.587523"
       style="fill:none;fill-rule:evenodd;stroke:#000000;stroke-width:1;stroke-linecap:butt;stroke-linejoin:miter;marker-mid:url(#Arrow1Lend);stroke-miterlimit:4;stroke-dasharray:4, 4;stroke-dashoffset:0;stroke-opacity:1" />
    <path
       sodipodi:nodetypes="ccc"
       id="path4618"
       d="M 84.610512,286.78546 L 145.09961,260.06636 L 205.58871,232.23395"
       style="fill:none;fill-rule:evenodd;stroke:#000000;stroke-width:1px;stroke-linecap:butt;stroke-linejoin:miter;marker-mid:url(#Arrow1Lend);stroke-opacity:1" />
    <path
       style="fill:none;fill-rule:evenodd;stroke:#000000;stroke-width:1px;stroke-linecap:butt;stroke-linejoin:miter;marker-mid:url(#Arrow1Lstart);stroke-opacity:1"
       d="M 326.8892,286.78546 L 266.4001,260.06636 L 205.911,232.23395"
       id="path5135"
       sodipodi:nodetypes="ccc" />
    <path
       style="fill:none;fill-rule:evenodd;stroke:#000000;stroke-width:1px;stroke-linecap:butt;stroke-linejoin:miter;marker-mid:url(#Arrow1Lend);stroke-opacity:1"
       d="M 84.610512,36.433673 L 145.09961,63.152773 L 205.58871,90.985183"
       id="path5664"
       sodipodi:nodetypes="ccc" />
    <path
       sodipodi:nodetypes="ccc"
       id="path5666"
       d="M 326.8892,36.433673 L 266.4001,63.152773 L 205.911,90.985183"
       style="fill:none;fill-rule:evenodd;stroke:#000000;stroke-width:1px;stroke-linecap:butt;stroke-linejoin:miter;marker-mid:url(#Arrow1Lstart);stroke-opacity:1" />
    <path
       style="fill:none;fill-rule:evenodd;stroke:#000000;stroke-width:1;stroke-linecap:butt;stroke-linejoin:miter;marker-mid:url(#Arrow1Lstart);stroke-miterlimit:4;stroke-dasharray:4, 4;stroke-dashoffset:0;stroke-opacity:1"
       d="M 545.25958,232.23395 L 545.25958,158.7564 L 545.25958,91.587523"
       id="path5879"
       sodipodi:nodetypes="ccc" />
    <path
       style="fill:none;fill-rule:evenodd;stroke:#000000;stroke-width:1px;stroke-linecap:butt;stroke-linejoin:miter;marker-mid:url(#Arrow1Lend);stroke-opacity:1"
       d="M 423.91028,286.78546 L 484.39938,260.06636 L 544.88848,232.23395"
       id="path5881"
       sodipodi:nodetypes="ccc" />
    <path
       sodipodi:nodetypes="ccc"
       id="path5883"
       d="M 666.18897,286.78546 L 605.69987,260.06636 L 545.21077,232.23395"
       style="fill:none;fill-rule:evenodd;stroke:#000000;stroke-width:1px;stroke-linecap:butt;stroke-linejoin:miter;marker-mid:url(#Arrow1Lstart);stroke-opacity:1" />
    <path
       sodipodi:nodetypes="ccc"
       id="path5885"
       d="M 423.91028,36.433673 L 484.39938,63.152773 L 544.88848,90.985183"
       style="fill:none;fill-rule:evenodd;stroke:#000000;stroke-width:1px;stroke-linecap:butt;stroke-linejoin:miter;marker-mid:url(#Arrow1Lstart);stroke-opacity:1" />
    <path
       style="fill:none;fill-rule:evenodd;stroke:#000000;stroke-width:1px;stroke-linecap:butt;stroke-linejoin:miter;marker-mid:url(#Arrow1Lend);stroke-opacity:1"
       d="M 666.18897,36.433673 L 605.69987,63.152773 L 545.21077,90.985183"
       id="path5887"
       sodipodi:nodetypes="ccc" />
  </g>
</svg>
